<?xml version="1.0" encoding="utf-8"?>
<!-- Generator: Adobe Illustrator 21.0.0, SVG Export Plug-In . SVG Version: 6.00 Build 0)  -->
<svg version="1.1" id="Layer_1" xmlns="http://www.w3.org/2000/svg" xmlns:xlink="http://www.w3.org/1999/xlink" x="0px" y="0px"
	 viewBox="0 0 332.6 55" style="enable-background:new 0 0 332.6 55;" xml:space="preserve">
<style type="text/css">
	.st0{fill:#003A5C;}
	.st1{fill:#0D8CBE;}
	.st2{fill:#013A5C;}
	.st3{fill:#0D8DBE;}
</style>
<g>
	<path class="st0" d="M24.2,11.8c0,2.3,0.1,4.3,0,6.4c0,0.9,0.3,1.4,1.1,1.9c3.5,2,7,4,10.6,6c0.8,0.4,0.9,0.9,0.7,1.7
		c-0.6,1.9-1.3,3.7-2,5.6c-0.3,0.7-0.6,0.7-1.2,0.4c-2.6-1.5-5.2-2.9-7.9-4.4c-0.3-0.2-0.7-0.4-1.3-0.7c0,8,0,15.8,0,23.7
		c-1.1-0.5-1.6-1.3-2.1-2c-3.1-4.1-5.3-8.7-7.4-13.3c-2.2-5-3.9-10.2-5.2-15.5c-0.2-1.1-0.1-1.6,1-2.2C15,16.9,19.5,14.3,24.2,11.8z
		"/>
	<path class="st1" d="M38.4,18.9c-1.7-1.1-3.4-2.1-5-3.1c-2.6-1.6-5.2-3.1-7.9-4.6c-0.9-0.5-1.6-0.5-2.5,0
		c-4.3,2.5-8.7,4.8-13.1,7.2c-0.9,0.5-1.1,0.2-1.2-0.6c-0.3-2.1-0.7-4.2-0.7-6.3c0-0.6,0.1-1,0.6-1.3c4.6-2.9,9.2-5.7,14-8.3
		c1-0.5,1.9-0.6,2.9-0.1c4.7,2.4,9.2,5.2,13.5,8.3c0.4,0.3,0.6,0.7,0.6,1.2C39.4,13.9,39,16.4,38.4,18.9z"/>
</g>
<g>
	<path class="st2" d="M236.5,32.2c0-3.1,0.1-6.1,0-9.2c-0.1-1.5,0.5-2.1,2-1.9c2,0.3,4.1-0.8,6,0.8c0.2,0.1,0.8-0.3,1.3-0.5
		c3.5-1.7,6.9-1.4,10,1c1.1,0.9,1.6,0.6,2.6-0.1c3.5-2.3,7.3-2.8,11.1-0.8c3.8,2,4.9,5.5,4.9,9.4c0.1,3.6,0,7.1,0,10.7
		c0,1.5-0.3,2.2-2.1,2.2c-5.7,0.2-5.7,0.2-5.7-5.5c0-2.4,0.1-4.8-0.1-7.2c-0.2-2.6-1.7-4-4.1-3.8c-2.4,0.2-3.5,1.4-3.3,4
		c0.2,3.4,0,6.9,0.1,10.4c0,1.7-0.5,2.1-2.2,2.1c-5.5,0.1-5.5,0.2-5.5-5.4c0-2.5,0-5-0.1-7.5c-0.1-2.4-1.5-3.7-3.9-3.6
		c-2.4,0.1-3.6,1.4-3.5,3.9c0.1,3.6,0,7.1,0,10.7c0,1.3-0.4,1.8-1.8,1.9c-5.8,0.4-5.8,0.4-5.8-5.3C236.5,36.4,236.5,34.3,236.5,32.2
		z"/>
	<path class="st0" d="M175.2,28c0-4.6,0.1-9.2,0-13.8c0-1.7,0.3-2.3,2.2-2.3c5.8,0,5.8-0.1,5.8,5.7c0,2.3-0.7,5.3,0.4,6.7
		c1.4,1.6,4.5,0.5,6.9,0.5c5.6,0.1,5.6,0,5.6-5.4c0-0.5,0-1,0-1.4c0-6.3,0-6.2,6.2-6c1.6,0.1,1.8,0.7,1.8,2c0,9.3,0,18.7,0,28
		c0,1.4-0.3,2-1.9,2c-6.2,0.2-6.2,0.3-6.2-6c0-5.9,0-5.9-6-5.9c-6.9,0-6.9,0-6.9,6.8c0,5.1,0,5-5.2,5.1c-2.4,0.1-2.8-0.8-2.8-2.9
		C175.3,36.6,175.2,32.3,175.2,28z"/>
	<path class="st3" d="M56.3,27.6c0-4.5,0.1-9,0-13.5c0-1.7,0.3-2.4,2.2-2.3c6.4,0.1,12.9,0.1,19.3,0c1.7,0,2.3,0.4,2.3,2.2
		c0,4.8,0.1,4.8-4.6,4.8c-3.1,0-6.1,0.1-9.2,0c-1.7-0.1-2.1,0.6-2.1,2.1c-0.1,4.8-0.2,4.8,4.6,4.8c2.2,0,4.4,0.1,6.6,0
		c1.6-0.1,2.4,0.2,2.4,2.1c0,4.8,0.1,4.8-4.8,4.9c-2.9,0.1-6.6-1.3-8.3,0.6c-1.4,1.6-0.6,5.3-0.4,8.1c0.1,2.4-0.9,2.6-2.9,2.6
		c-5-0.1-5,0-5-5C56.3,35.1,56.3,31.4,56.3,27.6z"/>
	<path class="st0" d="M304.3,36.1c2.9,0.2,6-1.2,8,2.1c0.3,0.4,1.2,0.6,1.8,0.6c1.5,0,3.7,0.6,3.9-1.3c0.3-2.1-2-1.8-3.4-2.1
		c-1.8-0.4-3.6-0.6-5.3-1.2c-2.4-0.8-4-2.6-4.4-5.2c-0.3-2.7,0.5-4.9,2.7-6.6c3.8-2.9,11.5-2.7,15.2,0.3c0.7,0.5,1.3,1.2,1.7,1.9
		c0.6,1,1.4,2.2,0.9,3.2c-0.5,1.1-1.9,0.4-2.9,0.5c-1.7,0.1-3.6,0.5-4.6-1.7c-0.4-0.9-1.7-0.9-2.6-0.9c-1.2,0-2.8-0.1-3,1.5
		c-0.2,1.6,1.3,1.6,2.4,1.9c1.9,0.4,3.8,0.6,5.6,1.1c3.2,0.8,5.1,3,5.3,5.7c0.2,3.6-1.1,6-4.3,7.3c-4,1.7-8.1,1.7-12.1,0.1
		C306.3,42.2,304.4,39.8,304.3,36.1z"/>
	<path class="st3" d="M121,27.1c0-4.9,0-9.8,0-14.7c0-1.5,0.4-1.9,1.9-2c5.6-0.2,5.6-0.3,5.6,5.2c0,8.4-0.1,16.9,0,25.3
		c0,2.2-0.5,3-2.8,2.9c-4.8-0.2-4.8,0-4.8-4.7C121,35.2,121,31.1,121,27.1z"/>
	<path class="st1" d="M115.8,27.1c0,4.9,0,9.8,0,14.7c0,1.5-0.4,2-1.9,2c-5.6,0.2-5.6,0.3-5.6-5.2c0-8.4,0.1-16.9,0-25.3
		c0-2.2,0.5-3,2.8-2.9c4.7,0.2,4.7,0,4.7,4.6C115.8,19.1,115.8,23.1,115.8,27.1z"/>
	<path class="st3" d="M157.7,32.3c0-3.1-0.1-6.1,0-9.2c0.1-1.7-0.6-2-2.1-2.1c-2.9-0.3-5.7,1-8.6,0c-4.6-1.5-8.6-0.1-11.6,3.6
		c-3.3,4.1-3.9,8.7-1.5,13.4c2.1,4.2,5.7,6.8,10.4,6.1c3.9-0.6,7.6-0.3,11.4-0.3c1.5,0,2-0.6,2-2C157.7,38.6,157.7,35.4,157.7,32.3z
		 M145.6,37.9c-3.3,0-5.6-2.2-5.6-5.6c0-3.2,2.2-5.5,5.3-5.5c3.7,0,4.7,1.2,4.7,5.7C150.1,36.8,149.1,37.9,145.6,37.9z"/>
	<path class="st3" d="M102,34.7c1.8,0,2.3-0.5,2.3-2.3c-0.1-3.8-1.1-7-4.1-9.4c-4.8-4-13-3.2-16.9,1.5c-4,4.8-3.5,12.6,1.1,16.7
		c4.6,4.2,13.4,4,17.4-0.3c0.8-0.8,1.3-1.9,1.8-2.9c0.3-0.6,0.3-1.5-0.7-1.4c-2.5,0.3-5-0.7-7.5,1c-2.5,1.7-5.5,0.4-7.2-3
		C93,34.7,97.5,34.6,102,34.7z M92.2,30.3c-0.5,0-1,0.1-1.4,0c-0.9-0.2-2.2,0.6-2.5-0.5C88,28.6,89,27.7,90,27.1
		c2.2-1.4,5.1-0.8,6.3,1.2c0.8,1.2,0.9,2.2-1,2C94.3,30.2,93.2,30.3,92.2,30.3z"/>
	<path class="st0" d="M292.1,20.8c-5.7-1.1-11.3,1.9-13.3,7.1c-2,5.4-0.1,11.6,4.5,14.5c4.9,3.1,12.5,2.4,16-1.5
		C300,40,300.5,39,301,38c0.2-0.5,0.3-1.3-0.6-1.2c-2.4,0.3-4.9-0.8-7.3,0.7c-2.9,1.9-5.8,0.9-7.6-2.8c4.9,0,9.5,0,14.1,0
		c1.5,0,1.9-0.5,2-2C301.9,26.4,298.5,22,292.1,20.8z M292.9,30.3c-2.4-0.1-4.9,0-7.5,0c0.5-2.7,2.2-3.6,4.3-3.9
		c1.7-0.2,3.2,0.4,4.2,2C294.5,29.5,294.8,30.4,292.9,30.3z"/>
	<path class="st0" d="M220.6,20.5c-7-0.1-12.4,5.1-12.4,11.9c0,6.9,5.3,12.1,12.2,12.2c7,0.1,12.4-5.3,12.4-12.3
		C232.8,25.6,227.6,20.6,220.6,20.5z M220.6,37.9c-3,0-5-2.2-5-5.4c0-3.2,2.1-5.3,5.1-5.3c3,0,5.1,2.3,5,5.4
		C225.6,35.8,223.6,37.9,220.6,37.9z"/>
</g>
</svg>
