<?xml version="1.0" encoding="utf-8"?>
<!-- Generator: Adobe Illustrator 21.0.0, SVG Export Plug-In . SVG Version: 6.00 Build 0)  -->
<svg version="1.1" id="Layer_1" xmlns="http://www.w3.org/2000/svg" xmlns:xlink="http://www.w3.org/1999/xlink" x="0px" y="0px"
	 viewBox="0 0 566.7 55" style="enable-background:new 0 0 566.7 55;" xml:space="preserve">
<style type="text/css">
	.st0{font-family:'PRIMETIME-Regular';}
	.st1{font-size:36px;}
	.st2{fill:#45DB8C;}
</style>
<text transform="matrix(1 0 0 1 74.6665 41.9077)" class="st0 st1">REFLEXOLOGY CENTER</text>
<g>
	<path class="st2" d="M4,31.8c2.2-0.7,4.4-1.4,6.7-1.8c1.6-0.3,3.2-0.5,4.8-0.5c0.4,0,0.5-0.1,0.4-0.5c-0.5-2.4-0.5-4.8-0.6-7.3
		c-0.1-2.5-0.2-5-0.5-7.4c0-0.1,0-0.3,0-0.5c1.5,0.3,3,0.6,4.5,1c3.2,0.9,6.3,2.1,8.9,4.1c1,0.8,1.9,1.7,2.7,2.7
		c0.1,0.2,0.2,0.3,0.1,0.5c-1.3,2.5-2.2,5.1-2.8,8c-2.3-3.9-4.8-7.4-8.7-9.7c-0.1,0.2,0,0.3,0.1,0.5c2.3,4.3,4.8,8.4,7.7,12.4
		c0.2,0.3,0.4,0.6,0.3,1c-0.3,2.6-0.2,5.3,0,7.9c0,0.1,0,0.2,0,0.3c-4.7-4-9.9-6.7-16.2-7.2c0,0.3,0.2,0.3,0.3,0.4
		c5,3.1,10.2,6,15.7,8.3c0.3,0.1,0.5,0.3,0.5,0.6c0.1,0.7,0.2,1.4,0.3,2.2c0,0.2,0,0.4-0.2,0.4c-2.3,0.9-4.6,1.6-7.2,1.5
		c-3.2,0-5.8-1.5-7.9-3.8c-1.7-2-3.1-4.2-4.5-6.4c-1.3-2.1-2.5-4.2-4-6.1c-0.1-0.1-0.1-0.3-0.3-0.4C4,31.9,4,31.8,4,31.8z"/>
	<path class="st2" d="M59.5,9c-4.6,0.5-9.2,1.5-13.4,3.5c-3.5,1.6-6.6,3.8-9,6.8c-3.7,4.5-5.2,9.8-5.6,15.5c-0.3,3.8,0,7.6,0.5,11.4
		c0,0.3,0.1,0.5,0.5,0.5c1.7,0.2,3.4,0.4,5.2,0.5c3.9,0.2,7.7,0.2,11.5-0.7c5.3-1.2,9.4-4.1,12-8.9c1.8-3.3,2.9-6.9,3.8-10.5
		C66,22.9,66.9,18.4,68,14c0.5-1.8,1-3.6,1.7-5.5C66.2,8.5,62.9,8.7,59.5,9z M34.9,44c0.3-0.8,0.5-1.4,0.7-2
		c1.4-3.5,3.4-6.6,5.7-9.5c3.5-4.4,7.6-8.3,12.4-11.3c1.8-1.2,3.8-2.1,5.9-2.8C55.7,24.6,39.5,41.3,34.9,44z"/>
</g>
</svg>
