<?xml version="1.0" encoding="UTF-8" standalone="no"?>
<svg width="172px" height="18px" viewBox="0 0 172 18" version="1.1" xmlns="http://www.w3.org/2000/svg" xmlns:xlink="http://www.w3.org/1999/xlink" xmlns:sketch="http://www.bohemiancoding.com/sketch/ns">
    <!-- Generator: Sketch 3.3.3 (12072) - http://www.bohemiancoding.com/sketch -->
    <title>api-endpoint-get</title>
    <desc>Created with Sketch.</desc>
    <defs></defs>
    <g id="Design" stroke="none" stroke-width="1" fill="none" fill-rule="evenodd" sketch:type="MSPage">
        <g id="Artboard" sketch:type="MSArtboardGroup" transform="translate(-828.000000, -1354.000000)" fill="#6F7C82">
            <g id="Details" sketch:type="MSLayerGroup" transform="translate(0.000000, 1253.000000)">
                <g id="GET" transform="translate(789.000000, 68.000000)" sketch:type="MSShapeGroup">
                    <path d="M44.3527273,47.1636364 C42.8909018,47.1636364 41.7754584,46.7681858 41.0063636,45.9772727 C40.2372689,45.1863597 39.8527273,44.0709163 39.8527273,42.6309091 L39.8527273,38.3272727 C39.8527273,36.8654472 40.2372689,35.7363676 41.0063636,34.94 C41.7754584,34.1436324 42.8745383,33.7454545 44.3036364,33.7454545 C45.7218253,33.7454545 46.785451,34.0890875 47.4945455,34.7763636 C48.2036399,35.4636398 48.5963633,36.4890841 48.6727273,37.8527273 L45.9727273,38.0163636 C45.9072724,37.1872686 45.7545467,36.614547 45.5145455,36.2981818 C45.2745443,35.9818166 44.8763664,35.8236364 44.32,35.8236364 C43.643633,35.8236364 43.177274,36.0336343 42.9209091,36.4536364 C42.6645442,36.8736385 42.5363636,37.5636316 42.5363636,38.5236364 L42.5363636,42.4345455 C42.5363636,43.3836411 42.6645442,44.0627252 42.9209091,44.4718182 C43.177274,44.8809111 43.6490875,45.0854545 44.3363636,45.0854545 C44.9909124,45.0854545 45.4436351,44.8700022 45.6945455,44.4390909 C45.9454558,44.0081797 46.0654546,43.3072776 46.0545455,42.3363636 L44.2872727,42.3363636 L44.2872727,40.2581818 L48.7545455,40.2581818 L48.7545455,42.5818182 C48.7545455,44.0545528 48.3727311,45.1863597 47.6090909,45.9772727 C46.8454507,46.7681858 45.760007,47.1636364 44.3527273,47.1636364 L44.3527273,47.1636364 Z M50.7345455,47 L50.7345455,33.9090909 L59.5054545,33.9090909 L59.5054545,35.9872727 L53.4345455,35.9872727 L53.4345455,38.9490909 L58.7527273,38.9490909 L58.7527273,41.0272727 L53.4345455,41.0272727 L53.4345455,44.9218182 L59.5054545,44.9218182 L59.5054545,47 L50.7345455,47 Z M64.5781818,47 L64.5781818,35.9872727 L61.1581818,35.9872727 L61.1581818,33.9090909 L70.6981818,33.9090909 L70.6981818,35.9872727 L67.2618182,35.9872727 L67.2618182,47 L64.5781818,47 Z M83.8054545,50.2727273 L89.8109091,33.9090909 L91.3654545,33.9090909 L85.36,50.2727273 L83.8054545,50.2727273 Z M99.4163636,47 L97.42,47 L94.2454545,37.1818182 L95.9472727,37.1818182 L98.4345455,45.6745455 L100.921818,37.1818182 L102.574545,37.1818182 L99.4163636,47 Z M105.912727,47 L105.912727,45.5763636 L109.185455,45.5763636 L109.185455,35.8236364 L108.76,35.8236364 C108.454544,36.4236394 108.026366,36.8599986 107.475455,37.1327273 C106.924543,37.4054559 106.305458,37.4872733 105.618182,37.3781818 L105.470909,35.8236364 C106.22364,35.9000004 106.927269,35.7718198 107.581818,35.4390909 C108.236367,35.106362 108.78727,34.5963671 109.234545,33.9090909 L110.772727,33.9090909 L110.772727,45.5763636 L113.750909,45.5763636 L113.750909,47 L105.912727,47 Z M116.303636,50.2727273 L122.309091,33.9090909 L123.863636,33.9090909 L117.858182,50.2727273 L116.303636,50.2727273 Z M130.801818,45.7727273 C131.598186,45.7727273 132.184544,45.5900018 132.560909,45.2245455 C132.937275,44.8590891 133.125455,44.2836403 133.125455,43.4981818 L133.125455,40.6181818 C133.125455,39.8981782 132.980911,39.3690926 132.691818,39.0309091 C132.402726,38.6927256 131.958185,38.5236364 131.358182,38.5236364 C130.856361,38.5236364 130.392729,38.6572714 129.967273,38.9245455 C129.541816,39.1918195 129.12182,39.6090881 128.707273,40.1763636 L128.707273,45.1345455 C129.012729,45.3418192 129.334544,45.4999995 129.672727,45.6090909 C130.010911,45.7181824 130.387271,45.7727273 130.801818,45.7727273 L130.801818,45.7727273 Z M130.834545,47.1636364 C130.496362,47.1636364 130.14182,47.1227277 129.770909,47.0409091 C129.399998,46.9590905 129.045456,46.8472734 128.707273,46.7054545 L128.707273,50.2727273 L127.136364,50.2727273 L127.136364,37.1818182 L128.707273,37.1818182 L128.707273,38.7036364 L129.165455,38.7036364 C129.405456,38.1799974 129.759998,37.7681833 130.229091,37.4681818 C130.698184,37.1681803 131.221815,37.0181818 131.8,37.0181818 C132.705459,37.0181818 133.414543,37.342724 133.927273,37.9918182 C134.440003,38.6409123 134.696364,39.5327216 134.696364,40.6672727 L134.696364,43.5309091 C134.696364,44.6545511 134.352731,45.5409058 133.665455,46.19 C132.978178,46.8390942 132.034551,47.1636364 130.834545,47.1636364 L130.834545,47.1636364 Z M138.689091,47 L138.689091,37.1818182 L140.276364,37.1818182 L140.276364,38.7527273 L140.718182,38.7527273 C140.925456,38.1527243 141.247271,37.7136378 141.683636,37.4354545 C142.120002,37.1572713 142.643633,37.0181818 143.254545,37.0181818 C143.941822,37.0181818 144.509089,37.2554522 144.956364,37.73 C145.403639,38.2045478 145.627273,38.8781775 145.627273,39.7509091 L145.627273,41.2563636 L144.121818,41.2563636 L144.121818,40.3236364 C144.121818,39.7018151 143.999092,39.2463651 143.753636,38.9572727 C143.508181,38.6681804 143.123639,38.5236364 142.6,38.5236364 C142.130907,38.5236364 141.702729,38.6490897 141.315455,38.9 C140.92818,39.1509103 140.58182,39.5327247 140.276364,40.0454545 L140.276364,47 L138.689091,47 Z M152.581818,47.1636364 C151.370903,47.1636364 150.438185,46.8527304 149.783636,46.2309091 C149.129088,45.6090878 148.801818,44.7200058 148.801818,43.5636364 L148.801818,40.6836364 C148.801818,39.5163578 149.129088,38.6136396 149.783636,37.9754545 C150.438185,37.3372695 151.376358,37.0181818 152.598182,37.0181818 C153.798188,37.0181818 154.725451,37.3372695 155.38,37.9754545 C156.034549,38.6136396 156.361818,39.5163578 156.361818,40.6836364 L156.361818,43.5472727 C156.361818,44.7145513 156.034549,45.6090878 155.38,46.2309091 C154.725451,46.8527304 153.792733,47.1636364 152.581818,47.1636364 L152.581818,47.1636364 Z M152.581818,45.74 C153.32364,45.74 153.877271,45.5654563 154.242727,45.2163636 C154.608184,44.867271 154.790909,44.3163674 154.790909,43.5636364 L154.790909,40.6836364 C154.790909,39.9199962 154.608184,39.3554564 154.242727,38.99 C153.877271,38.6245436 153.32364,38.4418182 152.581818,38.4418182 C151.839996,38.4418182 151.286365,38.6245436 150.920909,38.99 C150.555453,39.3554564 150.372727,39.9199962 150.372727,40.6836364 L150.372727,43.5636364 C150.372727,44.3163674 150.555453,44.867271 150.920909,45.2163636 C151.286365,45.5654563 151.839996,45.74 152.581818,45.74 L152.581818,45.74 Z M162.972727,45.6581818 C163.474548,45.6581818 163.940907,45.5218195 164.371818,45.2490909 C164.802729,44.9763623 165.219998,44.561821 165.623636,44.0054545 L165.623636,39.0472727 C165.31818,38.8290898 164.993638,38.6681823 164.65,38.5645455 C164.306362,38.4609086 163.938184,38.4090909 163.545455,38.4090909 C162.749087,38.4090909 162.160002,38.5945436 161.778182,38.9654545 C161.396362,39.3363655 161.205455,39.909087 161.205455,40.6836364 L161.205455,43.5472727 C161.205455,44.2672763 161.352726,44.7990892 161.647273,45.1427273 C161.94182,45.4863654 162.383633,45.6581818 162.972727,45.6581818 L162.972727,45.6581818 Z M165.165455,45.4781818 C164.925453,46.0127299 164.573639,46.4272713 164.11,46.7218182 C163.646361,47.0163651 163.120003,47.1636364 162.530909,47.1636364 C161.614541,47.1636364 160.90273,46.8418214 160.395455,46.1981818 C159.888179,45.5545422 159.634545,44.6600057 159.634545,43.5145455 L159.634545,40.6509091 C159.634545,39.5054488 159.972724,38.6136396 160.649091,37.9754545 C161.325458,37.3372695 162.274539,37.0181818 163.496364,37.0181818 C163.845456,37.0181818 164.202725,37.0590905 164.568182,37.1409091 C164.933638,37.2227277 165.285453,37.3345447 165.623636,37.4763636 L165.623636,33.9090909 L167.194545,33.9090909 L167.194545,47 L165.623636,47 L165.623636,45.4781818 L165.165455,45.4781818 Z M173.347273,47.1636364 C172.474541,47.1636364 171.776366,46.8636394 171.252727,46.2636364 C170.729088,45.6636334 170.467273,44.8727322 170.467273,43.8909091 L170.467273,37.1818182 L172.038182,37.1818182 L172.038182,43.5963636 C172.038182,44.2836398 172.179999,44.7990892 172.463636,45.1427273 C172.747274,45.4863654 173.183633,45.6581818 173.772727,45.6581818 C174.241821,45.6581818 174.699998,45.5245468 175.147273,45.2572727 C175.594548,44.9899987 176.030907,44.5836391 176.456364,44.0381818 L176.456364,37.1818182 L178.027273,37.1818182 L178.027273,47 L176.456364,47 L176.456364,45.4781818 L175.998182,45.4781818 C175.801817,45.9800025 175.460912,46.3863621 174.975455,46.6972727 C174.489998,47.0081834 173.947276,47.1636364 173.347273,47.1636364 L173.347273,47.1636364 Z M185.292727,47.1636364 C183.961812,47.1636364 182.96364,46.8554576 182.298182,46.2390909 C181.632724,45.6227242 181.3,44.7309149 181.3,43.5636364 L181.3,40.6836364 C181.3,39.4836304 181.632724,38.5727304 182.298182,37.9509091 C182.96364,37.3290878 183.956357,37.0181818 185.276364,37.0181818 C186.443642,37.0181818 187.340906,37.2963609 187.968182,37.8527273 C188.595458,38.4090937 188.947272,39.2490853 189.023636,40.3727273 L187.469091,40.4545455 C187.425454,39.7345419 187.226365,39.2190925 186.871818,38.9081818 C186.517271,38.5972712 185.980004,38.4418182 185.26,38.4418182 C184.463632,38.4418182 183.866366,38.6218164 183.468182,38.9818182 C183.069998,39.34182 182.870909,39.9036325 182.870909,40.6672727 L182.870909,43.58 C182.870909,44.3218219 183.069998,44.867271 183.468182,45.2163636 C183.866366,45.5654563 184.469087,45.74 185.276364,45.74 C185.996367,45.74 186.533635,45.6118195 186.888182,45.3554545 C187.242729,45.0990896 187.436363,44.6654576 187.469091,44.0545455 L189.023636,44.1363636 C188.958181,45.1509142 188.614549,45.9090884 187.992727,46.4109091 C187.370906,46.9127298 186.470915,47.1636364 185.292727,47.1636364 L185.292727,47.1636364 Z M197.483636,47.1472727 C196.469086,47.1472727 195.678185,46.8745482 195.110909,46.3290909 C194.543634,45.7836336 194.26,44.987278 194.26,43.94 L194.26,38.6054545 L191.74,38.6054545 L191.74,37.1818182 L194.26,37.1818182 L194.26,33.9090909 L195.847273,33.9090909 L195.847273,37.1818182 L199.709091,37.1818182 L199.709091,38.6054545 L195.847273,38.6054545 L195.847273,43.7763636 C195.847273,44.3981849 195.991817,44.8645439 196.280909,45.1754545 C196.570001,45.4863652 196.992724,45.6418182 197.549091,45.6418182 C197.920002,45.6418182 198.271817,45.6145457 198.604545,45.56 C198.937274,45.5054543 199.250908,45.4236369 199.545455,45.3145455 L199.856364,46.7709091 C199.539998,46.8800005 199.182729,46.9699996 198.784545,47.0409091 C198.386362,47.1118185 197.95273,47.1472727 197.483636,47.1472727 L197.483636,47.1472727 Z M206.892727,47.1636364 C206.118178,47.1636364 205.368185,47.0490921 204.642727,46.82 C203.917269,46.5909079 203.265457,46.2418205 202.687273,45.7727273 L203.358182,44.5127273 C203.849093,44.8945474 204.402724,45.1945444 205.019091,45.4127273 C205.635458,45.6309102 206.259997,45.74 206.892727,45.74 C207.460003,45.74 207.961816,45.6472737 208.398182,45.4618182 C208.834548,45.2763627 209.052727,44.9163663 209.052727,44.3818182 C209.052727,43.8909066 208.86182,43.5445465 208.48,43.3427273 C208.09818,43.1409081 207.400005,42.9581826 206.385455,42.7945455 C205.229085,42.60909 204.37273,42.3009112 203.816364,41.87 C203.259997,41.4390888 202.981818,40.7927316 202.981818,39.9309091 C202.981818,38.9818134 203.317269,38.2590934 203.988182,37.7627273 C204.659094,37.2663612 205.469086,37.0181818 206.418182,37.0181818 C207.127276,37.0181818 207.817269,37.1436351 208.488182,37.3945455 C209.159094,37.6454558 209.76727,37.9890887 210.312727,38.4254545 L209.641818,39.6854545 C209.183634,39.3254527 208.681821,39.028183 208.136364,38.7936364 C207.590906,38.5590897 207.023639,38.4418182 206.434545,38.4418182 C205.910906,38.4418182 205.466365,38.5454535 205.100909,38.7527273 C204.735453,38.960001 204.552727,39.3145429 204.552727,39.8163636 C204.552727,40.2854569 204.73818,40.6236353 205.109091,40.8309091 C205.480002,41.0381829 206.178177,41.2236355 207.203636,41.3872727 C208.370915,41.5727282 209.232724,41.8945432 209.789091,42.3527273 C210.345457,42.8109114 210.623636,43.4436323 210.623636,44.2509091 C210.623636,45.2327322 210.255458,45.963634 209.519091,46.4436364 C208.782724,46.9236388 207.907278,47.1636364 206.892727,47.1636364 L206.892727,47.1636364 Z" id="api-endpoint-get"></path>
                </g>
            </g>
        </g>
    </g>
</svg>