<?xml version="1.0" encoding="UTF-8" standalone="no"?>
<svg width="161px" height="18px" viewBox="0 0 161 18" version="1.1" xmlns="http://www.w3.org/2000/svg" xmlns:xlink="http://www.w3.org/1999/xlink" xmlns:sketch="http://www.bohemiancoding.com/sketch/ns">
    <!-- Generator: Sketch 3.3.3 (12072) - http://www.bohemiancoding.com/sketch -->
    <title>POST /v1/orders</title>
    <desc>Created with Sketch.</desc>
    <defs></defs>
    <g id="Design" stroke="none" stroke-width="1" fill="none" fill-rule="evenodd" sketch:type="MSPage">
        <g id="Artboard" sketch:type="MSArtboardGroup" transform="translate(-904.000000, -1416.000000)" fill="#6F7C82">
            <g id="Details" sketch:type="MSLayerGroup" transform="translate(0.000000, 1253.000000)">
                <g id="POST" transform="translate(859.000000, 130.000000)" sketch:type="MSShapeGroup">
                    <path d="M45.3181818,47 L45.3181818,33.9090909 L49.9163636,33.9090909 C51.2472794,33.9090909 52.2809054,34.2009062 53.0172727,34.7845455 C53.75364,35.3681847 54.1218182,36.270903 54.1218182,37.4927273 L54.1218182,39.3254545 C54.1218182,40.5254605 53.7590945,41.4036336 53.0336364,41.96 C52.3081782,42.5163664 51.2690977,42.7945455 49.9163636,42.7945455 L48.0181818,42.7945455 L48.0181818,47 L45.3181818,47 Z M48.0181818,40.7654545 L49.7690909,40.7654545 C50.3363665,40.7654545 50.7563623,40.648183 51.0290909,40.4136364 C51.3018195,40.1790897 51.4381818,39.7454577 51.4381818,39.1127273 L51.4381818,37.6727273 C51.4381818,37.0290877 51.3018195,36.5872739 51.0290909,36.3472727 C50.7563623,36.1072715 50.3363665,35.9872727 49.7690909,35.9872727 L48.0181818,35.9872727 L48.0181818,40.7654545 Z M60.5036364,47.1636364 C59.0745383,47.1636364 57.9836401,46.781822 57.2309091,46.0181818 C56.4781781,45.2545416 56.1018182,44.1800069 56.1018182,42.7945455 L56.1018182,38.18 C56.1018182,36.7836294 56.4809053,35.6954584 57.2390909,34.9154545 C57.9972765,34.1354506 59.0909019,33.7454545 60.52,33.7454545 C61.9490981,33.7454545 63.0399962,34.1354506 63.7927273,34.9154545 C64.5454583,35.6954584 64.9218182,36.7836294 64.9218182,38.18 L64.9218182,42.7945455 C64.9218182,44.1800069 64.5427311,45.2545416 63.7845455,46.0181818 C63.0263598,46.781822 61.9327344,47.1636364 60.5036364,47.1636364 L60.5036364,47.1636364 Z M60.5036364,45.0854545 C61.1254577,45.0854545 61.5672714,44.9027291 61.8290909,44.5372727 C62.0909104,44.1718164 62.2218182,43.5254592 62.2218182,42.5981818 L62.2218182,38.3763636 C62.2218182,37.4381771 62.0909104,36.7781837 61.8290909,36.3963636 C61.5672714,36.0145435 61.1254577,35.8236364 60.5036364,35.8236364 C59.8818151,35.8236364 59.4400013,36.0145435 59.1781818,36.3963636 C58.9163623,36.7781837 58.7854545,37.4381771 58.7854545,38.3763636 L58.7854545,42.5981818 C58.7854545,43.5254592 58.9163623,44.1718164 59.1781818,44.5372727 C59.4400013,44.9027291 59.8818151,45.0854545 60.5036364,45.0854545 L60.5036364,45.0854545 Z M71.2218182,47.1472727 C70.3272683,47.1472727 69.5063674,47.0218194 68.7590909,46.7709091 C68.0118144,46.5199987 67.3381848,46.1600023 66.7381818,45.6909091 L67.4581818,43.6781818 C68.0145482,44.1036385 68.5981788,44.4418169 69.2090909,44.6927273 C69.8200031,44.9436376 70.5127234,45.0690909 71.2872727,45.0690909 C71.9200032,45.0690909 72.3918166,44.9245469 72.7027273,44.6354545 C73.0136379,44.3463622 73.1690909,43.9563661 73.1690909,43.4654545 C73.1690909,42.9309064 72.9945472,42.5409103 72.6454545,42.2954545 C72.2963619,42.0499988 71.6636409,41.785456 70.7472727,41.5018182 C69.3836295,41.0981798 68.4263664,40.6072756 67.8754545,40.0290909 C67.3245427,39.4509062 67.0490909,38.649096 67.0490909,37.6236364 C67.0490909,36.4890852 67.4145418,35.564549 68.1454545,34.85 C68.8763673,34.135451 69.9236295,33.7781818 71.2872727,33.7781818 C72.0400038,33.7781818 72.7790873,33.9118168 73.5045455,34.1790909 C74.2300036,34.446365 74.8381794,34.7818162 75.3290909,35.1854545 L74.7236364,37.1 C74.1672699,36.7072708 73.6163664,36.4045465 73.0709091,36.1918182 C72.5254518,35.9790898 71.9636393,35.8727273 71.3854545,35.8727273 C70.8509064,35.8727273 70.4418196,35.9927261 70.1581818,36.2327273 C69.874544,36.4727285 69.7327273,36.8381794 69.7327273,37.3290909 C69.7327273,37.7981842 69.8990892,38.1636351 70.2318182,38.4254545 C70.5645471,38.687274 71.2272678,38.9709076 72.22,39.2763636 C73.572734,39.6909112 74.5190882,40.1899971 75.0590909,40.7736364 C75.5990936,41.3572756 75.8690909,42.172722 75.8690909,43.22 C75.8690909,44.4527334 75.4463679,45.4154511 74.6009091,46.1081818 C73.7554503,46.8009126 72.6290979,47.1472727 71.2218182,47.1472727 L71.2218182,47.1472727 Z M80.8272727,47 L80.8272727,35.9872727 L77.4072727,35.9872727 L77.4072727,33.9090909 L86.9472727,33.9090909 L86.9472727,35.9872727 L83.5109091,35.9872727 L83.5109091,47 L80.8272727,47 Z M100.054545,50.2727273 L106.06,33.9090909 L107.614545,33.9090909 L101.609091,50.2727273 L100.054545,50.2727273 Z M115.665455,47 L113.669091,47 L110.494545,37.1818182 L112.196364,37.1818182 L114.683636,45.6745455 L117.170909,37.1818182 L118.823636,37.1818182 L115.665455,47 Z M122.161818,47 L122.161818,45.5763636 L125.434545,45.5763636 L125.434545,35.8236364 L125.009091,35.8236364 C124.703635,36.4236394 124.275457,36.8599986 123.724545,37.1327273 C123.173634,37.4054559 122.554549,37.4872733 121.867273,37.3781818 L121.72,35.8236364 C122.472731,35.9000004 123.17636,35.7718198 123.830909,35.4390909 C124.485458,35.106362 125.036361,34.5963671 125.483636,33.9090909 L127.021818,33.9090909 L127.021818,45.5763636 L130,45.5763636 L130,47 L122.161818,47 Z M132.552727,50.2727273 L138.558182,33.9090909 L140.112727,33.9090909 L134.107273,50.2727273 L132.552727,50.2727273 Z M147.165455,47.1636364 C145.954539,47.1636364 145.021821,46.8527304 144.367273,46.2309091 C143.712724,45.6090878 143.385455,44.7200058 143.385455,43.5636364 L143.385455,40.6836364 C143.385455,39.5163578 143.712724,38.6136396 144.367273,37.9754545 C145.021821,37.3372695 145.959994,37.0181818 147.181818,37.0181818 C148.381824,37.0181818 149.309088,37.3372695 149.963636,37.9754545 C150.618185,38.6136396 150.945455,39.5163578 150.945455,40.6836364 L150.945455,43.5472727 C150.945455,44.7145513 150.618185,45.6090878 149.963636,46.2309091 C149.309088,46.8527304 148.37637,47.1636364 147.165455,47.1636364 L147.165455,47.1636364 Z M147.165455,45.74 C147.907276,45.74 148.460907,45.5654563 148.826364,45.2163636 C149.19182,44.867271 149.374545,44.3163674 149.374545,43.5636364 L149.374545,40.6836364 C149.374545,39.9199962 149.19182,39.3554564 148.826364,38.99 C148.460907,38.6245436 147.907276,38.4418182 147.165455,38.4418182 C146.423633,38.4418182 145.870002,38.6245436 145.504545,38.99 C145.139089,39.3554564 144.956364,39.9199962 144.956364,40.6836364 L144.956364,43.5636364 C144.956364,44.3163674 145.139089,44.867271 145.504545,45.2163636 C145.870002,45.5654563 146.423633,45.74 147.165455,45.74 L147.165455,45.74 Z M154.938182,47 L154.938182,37.1818182 L156.525455,37.1818182 L156.525455,38.7527273 L156.967273,38.7527273 C157.174546,38.1527243 157.496361,37.7136378 157.932727,37.4354545 C158.369093,37.1572713 158.892724,37.0181818 159.503636,37.0181818 C160.190913,37.0181818 160.75818,37.2554522 161.205455,37.73 C161.65273,38.2045478 161.876364,38.8781775 161.876364,39.7509091 L161.876364,41.2563636 L160.370909,41.2563636 L160.370909,40.3236364 C160.370909,39.7018151 160.248183,39.2463651 160.002727,38.9572727 C159.757272,38.6681804 159.37273,38.5236364 158.849091,38.5236364 C158.379998,38.5236364 157.95182,38.6490897 157.564545,38.9 C157.177271,39.1509103 156.830911,39.5327247 156.525455,40.0454545 L156.525455,47 L154.938182,47 Z M168.389091,45.6581818 C168.890912,45.6581818 169.357271,45.5218195 169.788182,45.2490909 C170.219093,44.9763623 170.636362,44.561821 171.04,44.0054545 L171.04,39.0472727 C170.734544,38.8290898 170.410002,38.6681823 170.066364,38.5645455 C169.722726,38.4609086 169.354547,38.4090909 168.961818,38.4090909 C168.165451,38.4090909 167.576366,38.5945436 167.194545,38.9654545 C166.812725,39.3363655 166.621818,39.909087 166.621818,40.6836364 L166.621818,43.5472727 C166.621818,44.2672763 166.769089,44.7990892 167.063636,45.1427273 C167.358183,45.4863654 167.799997,45.6581818 168.389091,45.6581818 L168.389091,45.6581818 Z M170.581818,45.4781818 C170.341817,46.0127299 169.990002,46.4272713 169.526364,46.7218182 C169.062725,47.0163651 168.536367,47.1636364 167.947273,47.1636364 C167.030905,47.1636364 166.319093,46.8418214 165.811818,46.1981818 C165.304543,45.5545422 165.050909,44.6600057 165.050909,43.5145455 L165.050909,40.6509091 C165.050909,39.5054488 165.389088,38.6136396 166.065455,37.9754545 C166.741822,37.3372695 167.690903,37.0181818 168.912727,37.0181818 C169.26182,37.0181818 169.619089,37.0590905 169.984545,37.1409091 C170.350002,37.2227277 170.701816,37.3345447 171.04,37.4763636 L171.04,33.9090909 L172.610909,33.9090909 L172.610909,47 L171.04,47 L171.04,45.4781818 L170.581818,45.4781818 Z M183.492727,44.8563636 C183.219999,45.6636404 182.80273,46.2499982 182.240909,46.6154545 C181.679088,46.9809109 180.82546,47.1636364 179.68,47.1636364 C178.490903,47.1636364 177.560912,46.8581849 176.89,46.2472727 C176.219088,45.6363606 175.883636,44.7363696 175.883636,43.5472727 L175.883636,40.6836364 C175.883636,39.4618121 176.235451,38.5454576 176.939091,37.9345455 C177.642731,37.3236333 178.556358,37.0181818 179.68,37.0181818 C180.814551,37.0181818 181.725451,37.3290878 182.412727,37.9509091 C183.100003,38.5727304 183.443636,39.5272663 183.443636,40.8145455 L183.443636,42.4018182 L177.454545,42.4018182 L177.454545,43.5472727 C177.454545,44.3545495 177.637271,44.9327255 178.002727,45.2818182 C178.368184,45.6309108 178.927269,45.8054545 179.68,45.8054545 C180.389094,45.8054545 180.904544,45.6936375 181.226364,45.47 C181.548183,45.2463625 181.796363,44.8890934 181.970909,44.3981818 L183.492727,44.8563636 Z M177.454545,40.7 L177.454545,41.1909091 L181.872727,41.1909091 L181.872727,40.8472727 C181.872727,39.9854502 181.687275,39.3581838 181.316364,38.9654545 C180.945453,38.5727253 180.394549,38.3763636 179.663636,38.3763636 C178.932724,38.3763636 178.38182,38.5672708 178.010909,38.9490909 C177.639998,39.330911 177.454545,39.9145415 177.454545,40.7 L177.454545,40.7 Z M187.436364,47 L187.436364,37.1818182 L189.023636,37.1818182 L189.023636,38.7527273 L189.465455,38.7527273 C189.672728,38.1527243 189.994543,37.7136378 190.430909,37.4354545 C190.867275,37.1572713 191.390906,37.0181818 192.001818,37.0181818 C192.689094,37.0181818 193.256361,37.2554522 193.703636,37.73 C194.150911,38.2045478 194.374545,38.8781775 194.374545,39.7509091 L194.374545,41.2563636 L192.869091,41.2563636 L192.869091,40.3236364 C192.869091,39.7018151 192.746365,39.2463651 192.500909,38.9572727 C192.255453,38.6681804 191.870912,38.5236364 191.347273,38.5236364 C190.878179,38.5236364 190.450002,38.6490897 190.062727,38.9 C189.675453,39.1509103 189.329092,39.5327247 189.023636,40.0454545 L189.023636,47 L187.436364,47 Z M201.476364,47.1636364 C200.701814,47.1636364 199.951822,47.0490921 199.226364,46.82 C198.500905,46.5909079 197.849094,46.2418205 197.270909,45.7727273 L197.941818,44.5127273 C198.43273,44.8945474 198.986361,45.1945444 199.602727,45.4127273 C200.219094,45.6309102 200.843633,45.74 201.476364,45.74 C202.043639,45.74 202.545452,45.6472737 202.981818,45.4618182 C203.418184,45.2763627 203.636364,44.9163663 203.636364,44.3818182 C203.636364,43.8909066 203.445456,43.5445465 203.063636,43.3427273 C202.681816,43.1409081 201.983641,42.9581826 200.969091,42.7945455 C199.812721,42.60909 198.956366,42.3009112 198.4,41.87 C197.843634,41.4390888 197.565455,40.7927316 197.565455,39.9309091 C197.565455,38.9818134 197.900906,38.2590934 198.571818,37.7627273 C199.242731,37.2663612 200.052723,37.0181818 201.001818,37.0181818 C201.710913,37.0181818 202.400906,37.1436351 203.071818,37.3945455 C203.742731,37.6454558 204.350906,37.9890887 204.896364,38.4254545 L204.225455,39.6854545 C203.76727,39.3254527 203.265457,39.028183 202.72,38.7936364 C202.174543,38.5590897 201.607276,38.4418182 201.018182,38.4418182 C200.494543,38.4418182 200.050002,38.5454535 199.684545,38.7527273 C199.319089,38.960001 199.136364,39.3145429 199.136364,39.8163636 C199.136364,40.2854569 199.321816,40.6236353 199.692727,40.8309091 C200.063638,41.0381829 200.761813,41.2236355 201.787273,41.3872727 C202.954551,41.5727282 203.816361,41.8945432 204.372727,42.3527273 C204.929094,42.8109114 205.207273,43.4436323 205.207273,44.2509091 C205.207273,45.2327322 204.839095,45.963634 204.102727,46.4436364 C203.36636,46.9236388 202.490914,47.1636364 201.476364,47.1636364 L201.476364,47.1636364 Z" id="POST-/v1/orders"></path>
                </g>
            </g>
        </g>
    </g>
</svg>