<svg xmlns="http://www.w3.org/2000/svg" preserveAspectRatio="none" viewBox="0 0 211 375"><path d="M6 1h199c2.8 0 5 22.4 5 3.6v361.1c0 7.3-2.2 8.3-5 8.3H6c-2.8 0-5 1-5-8.3V4.6C1 23.4 3.2 1 6 1z" fill="#FFF" stroke="#eff1f5" stroke-width="2"/><path d="M0 3.6C0 .8.1 0 2.8 0h205.3c2.8 0 2.8.1 2.8 2.8V14H0V3.6z" fill="#e67a33"/><path d="M0 14h211v36.4H0V14z" fill="#f6ae4f"/><path d="M2 50.4h207v2H2v-2z" opacity=".8" fill="#eff1f5"/><g transform="translate(185 30)" fill="none" stroke="#FFF" stroke-width="2"><circle cx="4" cy="2.6" r="4"/><path d="M6.5 5.1L10 8.6"/></g><path d="M9 164.7h92c1.1 0 2 .9 2 2v34c0 1.1-.9 2-2 2H9c-1.1 0-2-.9-2-2v-34c0-1.1.9-2 2-2zm100 0h93c1.1 0 2 .9 2 2v34c0 1.1-.9 2-2 2h-93c-1.1 0-2-.9-2-2v-34c0-1.1.9-2 2-2zM9 318.5h92c1.1 0 2 .9 2 2v34c0 1.1-.9 2-2 2H9c-1.1 0-2-.9-2-2v-34c0-1.1.9-2 2-2zm100 0h93c1.1 0 2 .9 2 2v34c0 1.1-.9 2-2 2h-93c-1.1 0-2-.9-2-2v-34c0-1.1.9-2 2-2z" fill="#2fb3fb"/><g transform="translate(120 255)"><path d="M3.2 28.1c.4-.3 1.2-.6 1.8-.6h62c.6 0 1.3.3 1.8.6l2.4 1.8c.4.3.4.6-.2.6H1c-.6 0-.6-.3-.2-.6l2.4-1.8z" opacity=".1" fill="#6c7580"/><path d="M10-11.5h52c1.7 0 3 1.3 3 3v32c0 1.7-1.3 3-3 3H10c-1.7 0-3-1.3-3-3v-32c0-1.7 1.3-3 3-3z" fill="#111419"/><path d="M10-9.5h52c.6 0 1 .4 1 1v31c0 .6-.4 1-1 1H10c-.6 0-1-.4-1-1v-31c0-.6.4-1 1-1z" fill="#7ec7f5"/><path d="M1 26c0-.3.2-.6.5-.6h68.9c.3 0 .6.2.5.6v.9c0 .2-.2.4-.3.5 0 0-2.1 1-4.2 1H5.5c-2.1 0-4.2-1-4.2-1-.1-.1-.3-.3-.3-.5V26z" fill="#6c757f"/><path d="M71 27v-.9c0-.3-.2-.6-.5-.6h-69c-.3 0-.5.2-.5.5v.9h70z" fill="#e6eaef"/><ellipse cx="36" cy="-10.2" rx=".5" ry=".5" fill="#272e38"/><path d="M40 25.5v.1c0 .8-.3 1.4-.8 1.4h-8.5c-.4 0-.8-.6-.8-1.4v-.1H40z" opacity=".3" fill="#6c7580"/><path d="M49.6-11.5h12.6c1.5 0 2.8 1.2 2.8 2.8v34.2H33l16.6-37z" opacity=".12" fill="#FFF"/></g><g transform="translate(36 95)"><path d="M37 11.7h1c.6 0 1 .4 1 1v4c0 .6-.4 1-1 1h-1c-.6 0-1-.4-1-1v-4c0-.5.4-1 1-1z" fill="#adbacc"/><path d="M10-13.9c.2-1.9 1.9-3.4 3.7-3.4h9.6c1.9 0 3.5 1.5 3.7 3.4l1 8.8c0 .5-.3.9-.8.9H9.8c-.5-.1-.8-.5-.8-.9l1-8.8zm0 57.2c.2 1.9 1.9 3.4 3.8 3.4h9.6c1.9 0 3.5-1.5 3.7-3.4l1-8.8c0-.5-.3-.8-.8-.8H9.8c-.5 0-.8.4-.8.8l1 8.8z" fill="#ffcc3f"/><path d="M27.5 38.7l.2-2H9.2l.2 2h18.1z" opacity=".08" fill="#7d2710"/><path d="M27.6-8.3l.1 1H9.3l.1-1h18.2z" opacity=".07" fill="#7d2710"/><path d="M7 36.7h23c0-7.1 7-12 7-22s-7-15-7-22H7c0 7-7 12-7 22s7 15 7 22z" fill="#e7ebf0"/><ellipse cx="18.5" cy="14.7" rx="16.5" ry="17" fill="#FFF" stroke="#aebbcd"/><path d="M12.5 8.7l5 6.5 2 8.5v-10" fill="#adbacc"/><ellipse cx="18.5" cy="14.7" rx="9.5" ry="9" fill="none" stroke="#dee3ea"/><circle cx="9" cy="-5.3" r="1" opacity=".5" fill="#adbacc"/><circle cx="28" cy="-5.3" r="1" opacity=".5" fill="#adbacc"/><circle cx="9" cy="34.7" r="1" opacity=".5" fill="#adbacc"/><circle cx="28" cy="34.7" r="1" opacity=".5" fill="#adbacc"/></g><path d="M121.1 124c1-1.3 3.2-2.3 4.8-2.4l57.1-.8c1.6 0 3.8 1 4.8 2.3l.3.4c1 1.3.5 2.3-1.1 2.3l-65 .9c-1.6 0-2.1-1-1.1-2.3l.2-.4z" fill="#eff1f5"/><path d="M120 118.7c0-2.8 2.2-5 5-5h61c2.2 0 3.9 1.8 3.2 3.9 0 0 1.6 3.7-9 6.1-6.7 1.5-54.6 1-54.6 1-3.1 0-5.5-2.5-5.5-5.6v-.4z" fill="#4fd2af"/><path d="M120.5 115.2c0-4.5.5-16.5 4-18s1 7 8.5 6 6-1.5 7-7 2.5-4.5 5.5-2.5 16 14 34 17.5 4.5 9.4 1.5 9.5c-22 .5-35-3.5-40.5-4s-20 3-20-1.5z" fill="#334957"/><path d="M130 119.7h10c.6 0 1 .4 1 1s-.4 1-1 1h-10c-.6 0-1-.4-1-1 0-.5.4-1 1-1z" fill="#18ac78"/><path d="M147 100.7c.5 0 1-.4 1-1s-.5-1-1-1-1 .4-1 1 .5 1 1 1zm4 3c.5 0 1-.4 1-1s-.5-1-1-1-1 .4-1 1 .5 1 1 1zm4 2c.5 0 1-.4 1-1s-.5-1-1-1-1 .4-1 1 .5 1 1 1zm4 2c.5 0 1-.4 1-1s-.5-1-1-1-1 .4-1 1 .5 1 1 1zm4 2c.5 0 1-.5 1-1s-.5-1-1-1-1 .5-1 1 .5 1 1 1z" fill="#5b7d91"/><g transform="translate(30 261)"><path d="M11.7-7.5h26.2V8.7H11.7V-7.5z" fill="#4c5255"/><path d="M11.7-7.5h26.2V8.7H11.7V-7.5z" fill="#40464a"/><path d="M.1 14.4c.8 2.4 2.9 4.1 5.2 4.1 2.4 0 4.2-1.8 5.3-4.3 1.1-2.5 5.1-9.3 5.1-10.5C15.7.1 3.6-5.6 2.5-2.4c-.2.8-2.7 16-2.4 16.8zM6.4-9.2c.2-1.3 1.5-2.3 2.8-2.3h2c1.3 0 2.6 1 2.8 2.3l.9 4.7H5.5l.9-4.7z" fill="#2e2e2b"/><ellipse cx="10.2" cy="-1" rx="8" ry="8" fill="#5c626e"/><ellipse cx="17.8" cy="6.6" rx="5.1" ry="5.1" fill="#2e2e2b"/><ellipse cx="17.8" cy="6.6" rx="3.9" ry="3.9" fill="#5c626e"/><path d="M49.9 14.4c-.8 2.4-2.9 4.1-5.3 4.1s-4.2-1.8-5.3-4.3c-1.1-2.5-5.1-9.3-5.1-10.5 0-3.6 12.1-9.3 13.2-6.1.2.8 2.7 16 2.5 16.8zM36.1-9.2c.2-1.3 1.5-2.3 2.8-2.3h2c1.3 0 2.5 1 2.8 2.3l.9 4.7h-9.3l.8-4.7z" fill="#2e2e2b"/><ellipse cx="39.8" cy="-1" rx="8" ry="8" fill="#5c626e"/><ellipse cx="32.1" cy="6.6" rx="5.1" ry="5.1" fill="#2e2e2b"/><ellipse cx="32.1" cy="6.6" rx="3.9" ry="3.9" fill="#5c626e"/><path d="M6.2-2.3h2.2l1 1.2-1 1.2H6.2v-2.4zm8 0H12l-1 1.2 1 1.2h2.2v-2.4zM11.4-5v2.2l-1.2 1-1.2-1V-5h2.4zM8.9-.2V2l1.2 1 1.2-1V-.2H8.9z" fill="#aaaeb7"/><path d="M19.5-1H22V.5h-2.5V-1zm8.3 0l2.5.8-2.5.6" fill="#707785"/><path d="M35.2-2H37v1.8h-1.8V-2z" fill="none" stroke="#dfb0cd" stroke-width=".5"/><path d="M38.8-4l1-1.7 1 1.7h-2z" fill="none" stroke="#00c6c3" stroke-width=".5"/><ellipse cx="43.6" cy="-1" rx="1.2" ry="1.2" fill="none" stroke="#ffb3c0" stroke-width=".5"/><path d="M39.1 3.4l1.6-1.6m-1.6.1l1.6 1.6" fill="none" stroke="#d8ffff" stroke-width=".5"/></g><path d="M15 30.7h28c1.1 0 2 .9 2 2v2c0 1.1-.9 2-2 2H15c-1.1 0-2-.9-2-2v-2c0-1.1.9-2 2-2z" fill="#245986" fill-opacity=".05"/><path d="M15 31.7h28c.6 0 1 .4 1 1v1c0 .6-.4 1-1 1H15c-.6 0-1-.4-1-1v-1c0-.6.4-1 1-1z" fill="#FFF"/><path d="M57 31.7h28c.6 0 1 .4 1 1v1c0 .6-.4 1-1 1H57c-.6 0-1-.4-1-1v-1c0-.6.4-1 1-1zm42 0h28c.6 0 1 .4 1 1v1c0 .6-.4 1-1 1H99c-.6 0-1-.4-1-1v-1c0-.6.4-1 1-1z" opacity=".3" fill="#FFF"/><g fill="none" stroke="#FFF" stroke-width="2" stroke-miterlimit="10"><path d="M44.1 181.1l2.4 9.7c.2.7.8 1.2 1.6 1.2h13.7c.7 0 1.4-.5 1.6-1.2l2.4-9.7c.3-1-.5-2-1.6-2H45.7c-1-.1-1.8.9-1.6 2z"/><path d="M51 179l1.9-5.7M59 179l-1.9-5.7" stroke-linecap="round"/></g><g fill="none" stroke="#FFF" stroke-width="2" stroke-miterlimit="10"><path d="M144.6 180.7l2.4 9.7c.2.7.8 1.2 1.6 1.2h13.7c.7 0 1.4-.5 1.6-1.2l2.4-9.7c.3-1-.5-2-1.6-2h-18.6c-.9-.1-1.7.9-1.5 2z"/><path d="M151.5 178.6l1.9-5.7m6.1 5.7l-1.9-5.7" stroke-linecap="round"/></g><g fill="none" stroke="#FFF" stroke-width="2" stroke-miterlimit="10"><path d="M44.1 334.4l2.4 9.7c.2.7.8 1.2 1.6 1.2h13.7c.7 0 1.4-.5 1.6-1.2l2.4-9.7c.3-1-.5-2-1.6-2H45.7c-1 0-1.8 1-1.6 2z"/><path d="M51 332.4l1.9-5.7m6.1 5.7l-1.9-5.7" stroke-linecap="round"/></g><g fill="none" stroke="#FFF" stroke-width="2" stroke-miterlimit="10"><path d="M144.6 334.4l2.4 9.7c.2.7.8 1.2 1.6 1.2h13.7c.7 0 1.4-.5 1.6-1.2l2.4-9.7c.3-1-.5-2-1.6-2h-18.6c-.9 0-1.7 1-1.5 2z"/><path d="M151.5 332.4l1.9-5.7m6.1 5.7l-1.9-5.7" stroke-linecap="round"/></g></svg>