<svg xmlns="http://www.w3.org/2000/svg" viewBox="0 0 1600 450">
  <g id="Guide-Illustration" fill="none" fill-rule="evenodd">
    <g id="Artboard">
      <path id="stroke" stroke="#FFFFFF" stroke-width=".75" d="M853.85 224.92V450" stroke-linecap="round" stroke-linejoin="round" opacity=".5"/>
      <polyline id="stroke" stroke="#FFFFFF" stroke-width=".75" points="417.056 415.612 367.192 415.612 338.581 388.2 255.035 388.2" stroke-linecap="round" stroke-linejoin="round" opacity=".5"/>
      <polyline id="stroke" stroke="#FFFFFF" stroke-width="2" points="0 334.258 361.485 334.258 425.481 398.254 625.708 398.254" opacity=".65"/>
      <polyline id="stroke" stroke="#FFFFFF" stroke-width=".75" points="0 220.167 175.926 220.167 190.695 205.398 253.384 205.398" stroke-linejoin="round" opacity=".5"/>
      <polyline id="stroke" stroke="#FFFFFF" stroke-width=".75" points="192.345 334.258 192.345 366.916 222.782 397.354 275.584 450.155" stroke-linecap="round" stroke-linejoin="round" opacity=".5"/>
      <path id="stroke" stroke="#FFFFFF" stroke-width=".75" d="M217.87 355.66a3.15 3.15 0 1 1-6.3 0 3.15 3.15 0 0 1 6.3 0zm37.16 32.54a3.15 3.15 0 1 1-6.3 0 3.15 3.15 0 0 1 6.3 0z" stroke-linecap="round" stroke-linejoin="round"/>
      <polyline id="stroke" stroke="#FFFFFF" stroke-width=".75" points="204.377 249.333 204.377 262.694 214.717 273.034 214.717 352.242" stroke-linecap="round" stroke-linejoin="round" opacity=".5"/>
      <path id="stroke" stroke="#FFFFFF" stroke-width=".75" d="M1034.36 285.9a3.15 3.15 0 1 1-6.3 0 3.15 3.15 0 0 1 6.3 0z" stroke-linecap="round" stroke-linejoin="round"/>
      <polyline id="stroke" stroke="#FFFFFF" stroke-width=".75" points="1031.208 282.782 1031.208 223.367 930.052 223.367 930.052 111.205" stroke-linecap="round" stroke-linejoin="round" opacity=".5"/>
      <polygon id="stroke" stroke="#FFFFFF" stroke-width=".75" points="997.609 81.988 980.898 81.988 969.659 70.609 986.37 70.609" stroke-linecap="round" stroke-linejoin="round"/>
      <polygon id="stroke" stroke="#FFFFFF" stroke-width=".75" points="800.418 140.433 817.129 140.433 828.368 129.053 811.658 129.053" stroke-linecap="round" stroke-linejoin="round"/>
      <polygon id="stroke" stroke="#FFFFFF" stroke-width=".75" points="775.651 140.433 792.362 140.433 803.601 129.053 786.89 129.053" stroke-linecap="round" stroke-linejoin="round"/>
      <polyline id="stroke" stroke="#FFFFFF" stroke-width="2" points="254.417 269.896 254.417 194.667 304.222 194.667 363.159 135.729 520.097 135.729 619.096 135.729 642.558 112.266 642.558 -6.073" opacity=".65"/>
      <polyline id="stroke" stroke="#FFFFFF" stroke-width="2" points="244.408 248.331 368.633 248.331 495.354 248.331 545.962 197.723 733.618 197.723 913.156 197.723 1073.28 197.723 1093.752 218.195 1600 218.195" opacity=".65"/>
      <polyline id="stroke" stroke="#FFFFFF" stroke-width=".75" points="563.725 150.631 820.349 150.631 884.35 86.631 926.495 44.485 972.049 -1.069" stroke-linecap="round" stroke-linejoin="round" opacity=".5"/>
      <polyline id="stroke" stroke="#FFFFFF" stroke-width=".75" points="377.366 225.916 377.366 173.649 557.669 174.177" stroke-linecap="round" stroke-linejoin="round" opacity=".5"/>
      <path id="fill" fill="#FFFFFF" d="M879.9 105.88a17.3 17.3 0 1 1-34.61 0 17.3 17.3 0 0 1 34.6 0"/>
      <path id="fill" fill="#F7BF4E" d="M870.56 106.39l2.78-.5-.62-3.5-2.67.47a8 8 0 0 0-.97-1.79l1.76-2.1-2.73-2.3-1.7 2.03a7.98 7.98 0 0 0-1.94-.74v-2.69h-3.57v2.64c-.69.14-1.34.38-1.95.7l-1.74-2.08-2.73 2.3 1.73 2.06a8.02 8.02 0 0 0-1.03 1.75l-2.72-.48-.62 3.52 2.74.48a8 8 0 0 0 .33 1.95l-2.46 1.42 1.78 3.09 2.47-1.43c.44.47.93.9 1.47 1.25l-1 2.74 3.35 1.22.99-2.71a7.98 7.98 0 0 0 1.9.03l1 2.76 3.36-1.22-.98-2.7a8.06 8.06 0 0 0 1.5-1.2l2.52 1.45 1.78-3.09-2.43-1.4c.21-.61.35-1.26.4-1.93"/>
      <path id="fill" fill="#FFFFFF" d="M865.5 105.88a2.9 2.9 0 1 1-5.8 0 2.9 2.9 0 0 1 5.8 0"/>
      <path id="stroke" stroke="#FFFFFF" stroke-width=".75" d="M927.17 88.69a3.15 3.15 0 1 0 6.3 0 3.15 3.15 0 0 0-6.3 0z" stroke-linecap="round" stroke-linejoin="round"/>
      <polyline id="stroke" stroke="#FFFFFF" stroke-width="2" points="820.762 261.31 707.053 261.31 678.442 288.721 598.554 288.721 572.782 262.95 440.821 262.95" opacity=".65"/>
      <path id="fill" fill="#FCC67F" d="M776.62 265.42a4.11 4.11 0 1 0 0-8.23 4.11 4.11 0 0 0 0 8.23"/>
      <path id="stroke" stroke="#FFFFFF" stroke-width="2" d="M776.62 265.42a4.11 4.11 0 1 0 0-8.23 4.11 4.11 0 0 0 0 8.23z"/>
      <path id="fill" fill="#FCC67F" d="M796.63 265.42a4.11 4.11 0 1 0 0-8.23 4.11 4.11 0 0 0 0 8.23"/>
      <path id="stroke" stroke="#FFFFFF" stroke-width="2" d="M796.63 265.42a4.11 4.11 0 1 0 0-8.23 4.11 4.11 0 0 0 0 8.23z"/>
      <path id="fill" fill="#FCC67F" d="M816.65 265.42a4.11 4.11 0 1 0 0-8.23 4.11 4.11 0 0 0 0 8.23"/>
      <path id="stroke" stroke="#FFFFFF" stroke-width="2" d="M816.65 265.42a4.11 4.11 0 1 0 0-8.23 4.11 4.11 0 0 0 0 8.23zM563.97 151.17a3.15 3.15 0 1 1-6.3 0 3.15 3.15 0 0 1 6.3 0zm0 23a3.15 3.15 0 1 1-6.3 0 3.15 3.15 0 0 1 6.3 0z"/>
      <path id="stroke" stroke="#FFFFFF" stroke-width=".75" d="M933.47 107.2a3.15 3.15 0 1 1-6.3 0 3.15 3.15 0 0 1 6.3 0zm348.58 52.89a3.15 3.15 0 1 1-6.3 0 3.15 3.15 0 0 1 6.3 0zm-30.01 0a3.15 3.15 0 1 1-6.3 0 3.15 3.15 0 0 1 6.3 0z" stroke-linecap="round" stroke-linejoin="round"/>
      <path id="stroke" stroke="#FFFFFF" stroke-width="2" d="M1396.85 93.63a3.15 3.15 0 1 1-6.3 0 3.15 3.15 0 0 1 6.3 0zM881.87 23.64a3.15 3.15 0 1 1-6.3 0 3.15 3.15 0 0 1 6.3 0z"/>
      <polyline id="stroke" stroke="#FFFFFF" stroke-width=".75" points="544.9 450 544.9 220.989 494.204 158.284 494.168 31.004" stroke-linecap="round" stroke-linejoin="round" opacity=".5"/>
      <path id="fill" fill="#FFFFFF" d="M785.26 197.88a14.03 14.03 0 1 1-28.06 0 14.03 14.03 0 0 1 28.06 0"/>
      <path id="fill" fill="#E5A03E" d="M769.32 200.1L767.2 198c-1-.83-2.5.11-1.75 1.3l2.62 3.87c.38.47 1.38 1.06 2.38 0l6.98-8.57c.88-1.06-.37-1.89-1.25-1.18"/>
      <polygon id="stroke" stroke="#FFFFFF" stroke-width=".75" points="363.374 127.519 387.682 127.519 404.031 110.965 379.723 110.965" stroke-linecap="round" stroke-linejoin="round"/>
      <polygon id="stroke" stroke="#FFFFFF" stroke-width=".75" points="381.317 105.191 406.104 105.191 406.104 80.405 381.317 80.405" stroke-linecap="round" stroke-linejoin="round"/>
      <polygon id="stroke" stroke="#FFFFFF" stroke-width=".75" points="1303.949 128.022 1328.736 128.022 1328.736 103.236 1303.949 103.236" stroke-linecap="round" stroke-linejoin="round"/>
      <polygon id="stroke" stroke="#FFFFFF" stroke-width=".75" points="998.799 255.089 1023.586 255.089 1023.586 230.303 998.799 230.303" stroke-linecap="round" stroke-linejoin="round"/>
      <polygon id="stroke" stroke="#FFFFFF" stroke-width=".75" points="254.329 184.629 279.116 184.629 279.116 159.843 254.329 159.843" stroke-linecap="round" stroke-linejoin="round"/>
      <path id="stroke" stroke="#FFFFFF" stroke-width=".75" d="M583.96 250.74H603c1.6 0 2.88-1.29 2.88-2.88v-19.03c0-1.59-1.29-2.88-2.88-2.88h-19.03a2.88 2.88 0 0 0-2.88 2.88v19.03c0 1.59 1.3 2.88 2.88 2.88z" stroke-linecap="round" stroke-linejoin="round"/>
      <polyline id="stroke" stroke="#FFFFFF" stroke-width=".75" points="487.659 334.137 506.882 315.454 549.87 315.454" stroke-linecap="round" stroke-linejoin="round" opacity=".5"/>
      <polyline id="stroke" stroke="#FFFFFF" stroke-width=".75" points="377.108 293.483 377.108 310.733 400.512 334.137 487.659 334.137" stroke-linecap="round" stroke-linejoin="round" opacity=".5"/>
      <polygon id="stroke" stroke="#FFFFFF" stroke-width=".75" points="644.905 281.578 669.213 281.578 685.563 265.025 661.255 265.025" stroke-linecap="round" stroke-linejoin="round"/>
      <path id="fill" fill="#FFFFFF" d="M1024.22 196.88a14.03 14.03 0 1 1-28.06 0 14.03 14.03 0 0 1 28.06 0"/>
      <path id="fill" fill="#E5A03E" d="M1008.9 191.54a.5.5 0 0 0-.5.43l-1.3 8.23a.5.5 0 0 0 .77.5l1.52-.93.67 2.47a.5.5 0 0 0 .61.36l1.97-.52a.5.5 0 0 0 .36-.62l-.67-2.48 1.8.05a.5.5 0 0 0 .4-.83l-5.24-6.47a.5.5 0 0 0-.4-.2"/>
      <polyline id="stroke" stroke="#FFFFFF" stroke-width=".75" points="933.735 88.691 1188.735 88.691 1205.291 72.135 1234.637 42.788 1600 42.788" stroke-linejoin="round" opacity=".5"/>
      <polyline id="stroke" stroke="#FFFFFF" stroke-width=".75" points="1600 70.615 1262.634 70.615 1204.736 128.513 1120.403 128.513 1120.403 242.696" stroke-linejoin="round" opacity=".5"/>
      <polygon id="stroke" stroke="#FFFFFF" stroke-width=".75" points="197.047 328.884 208.297 328.884 208.297 317.634 197.047 317.634" stroke-linecap="round" stroke-linejoin="round"/>
      <polygon id="stroke" stroke="#FFFFFF" stroke-width=".75" points="182.072 328.884 193.322 328.884 193.322 317.634 182.072 317.634" stroke-linecap="round" stroke-linejoin="round"/>
      <path id="fill" fill="#FFFFFF" d="M433.4 336.57a2.44 2.44 0 1 0 0-4.87 2.44 2.44 0 0 0 0 4.87m11.86 0a2.44 2.44 0 1 0 0-4.87 2.44 2.44 0 0 0 0 4.87m11.86 0a2.44 2.44 0 1 0 0-4.87 2.44 2.44 0 0 0 0 4.87"/>
      <polyline id="stroke" stroke="#FFFFFF" points="1600 31.004 1323.736 31.004 1294.447 60.292 1294.447 206.043" stroke-linejoin="round" opacity=".5"/>
      <path id="fill" fill="#FFFFFF" d="M304.63 349.46a15.2 15.2 0 1 0 0-30.41 15.2 15.2 0 0 0 0 30.41"/>
      <path id="fill" fill="#E5A03E" d="M303.11 329.46c0-1.38.6-2.3 1.52-2.3.91 0 1.52.92 1.52 2.3V335c0 1.39-.6 2.3-1.52 2.3-.91 0-1.52-.91-1.52-2.3v-5.53m1.52 11.9c-.89 0-1.52-.64-1.52-1.53 0-.88.63-1.52 1.52-1.52s1.52.64 1.52 1.52c0 .9-.63 1.52-1.52 1.52"/>
      <path id="fill" fill="#FFFFFF" d="M1138.79 179.05a18.11 18.11 0 1 1-36.22 0 18.11 18.11 0 0 1 36.22 0"/>
      <path id="fill" fill="#E5A03E" d="M1122.46 185.46a6.5 6.5 0 0 1-7.53.6l-3.03 1.01c-.2.07-.32-.04-.25-.25l1-3.03a6.53 6.53 0 0 1 5.25-9.87 7.55 7.55 0 0 0 4.55 11.54"/>
      <path id="fill" fill="#FCD669" d="M1130.26 181.61a7.01 7.01 0 1 0-2.44 2.44l3.25 1.08c.23.08.35-.05.28-.27l-1.09-3.25z"/>
      <polygon id="stroke" stroke="#FFFFFF" stroke-width=".82" points="747.678 275.477 1262.608 275.477 1262.608 -53.59 747.678 -53.59" opacity=".5"/>
      <path id="stroke" stroke="#FFFFFF" stroke-width=".82" d="M1130.26 181.61a7.01 7.01 0 1 0-2.44 2.44l3.25 1.08c.23.08.35-.05.28-.27l-1.09-3.25z"/>
      <path id="stroke" stroke="#FFFFFF" stroke-width=".75" d="M687.65 169.74V126.5" stroke-linecap="round" stroke-linejoin="round" opacity=".5"/>
      <path id="stroke" stroke="#FFFFFF" stroke-width=".75" d="M698.44 126.38h-21.75a2.89 2.89 0 0 1-2.88-2.88v-21.75c0-1.58 1.3-2.88 2.88-2.88h21.75c1.58 0 2.88 1.3 2.88 2.88v21.75c0 1.59-1.3 2.88-2.88 2.88z" stroke-linecap="round" stroke-linejoin="round"/>
      <path id="fill" fill="#FFFFFF" d="M688.81 119.1v-1.76c1.87-.32 2.87-1.58 2.87-3.02 0-1.53-.83-2.43-2.75-3.15-1.45-.56-2.06-.97-2.06-1.66 0-.58.43-1.2 1.62-1.2 1.15 0 1.9.4 2.3.59l.47-1.55a5.28 5.28 0 0 0-2.35-.58v-1.56h-1.4v1.65c-1.7.3-2.73 1.44-2.73 2.89 0 1.58 1.17 2.4 2.94 3.04 1.26.46 1.87.93 1.87 1.72 0 .8-.75 1.32-1.82 1.32a5.41 5.41 0 0 1-2.65-.73l-.46 1.6c.61.39 1.68.71 2.76.75v1.65h1.39zm24.71 104.93H665.1a2.89 2.89 0 0 1-2.88-2.88v-48.42c0-1.58 1.3-2.88 2.88-2.88h48.42c1.59 0 2.88 1.3 2.88 2.88v48.42c0 1.59-1.3 2.88-2.88 2.88"/>
      <path id="stroke" stroke="#E5A03E" stroke-width="1.78" d="M713.52 224.03H665.1a2.89 2.89 0 0 1-2.88-2.88v-48.42c0-1.58 1.3-2.88 2.88-2.88h48.42c1.59 0 2.88 1.3 2.88 2.88v48.42c0 1.59-1.3 2.88-2.88 2.88z" stroke-linecap="round" stroke-linejoin="round"/>
      <path id="fill" fill="#E5A03E" d="M684.06 204.72h-5.25c-.16 0-.3-.09-.3-.2v-.38c0-.1.14-.2.3-.2.48 0 .87-.26.87-.58v-7c0-.32-.39-.58-.87-.58-.16 0-.3-.1-.3-.2v-.39c0-.1.14-.2.3-.2h5.25c.16 0 .3.1.3.2v.4c0 .1-.14.19-.3.19-.48 0-.88.26-.88.58v7c0 .32.4.58.88.58.16 0 .3.1.3.2v.39c0 .1-.14.2-.3.2m8.75 0h-5.25c-.16 0-.3-.1-.3-.2v-.4c0-.1.14-.19.3-.19.48 0 .88-.26.88-.58v-7c0-.32-.4-.58-.88-.58-.16 0-.3-.1-.3-.2v-.39c0-.1.14-.2.3-.2h5.25c.16 0 .3.1.3.2v.4c0 .1-.14.19-.3.19-.48 0-.87.26-.87.58v7c0 .32.39.58.87.58.16 0 .3.1.3.2v.39c0 .1-.14.2-.3.2m8.75-.79c.16 0 .3.1.3.2v.39c0 .1-.14.2-.3.2h-5.25c-.16 0-.29-.1-.29-.2v-.4c0-.1.13-.19.3-.19.47 0 .87-.26.87-.58v-7c0-.32-.4-.58-.88-.58-.16 0-.29-.1-.29-.2v-.39c0-.1.13-.2.3-.2h5.24c.16 0 .3.1.3.2v.4c0 .1-.14.19-.3.19-.48 0-.87.26-.87.58v7c0 .32.39.58.87.58zm3.27-12.6s-.41-.09-.41.23v.99a.46.46 0 0 1-.42.5h-27.63a.46.46 0 0 1-.41-.5v-1c0-.31-.42-.22-.42-.22-1.14 0-1.22-.42-.2-.93l13.72-6.85a2.82 2.82 0 0 1 2.25 0l13.71 6.84c1.04.52.95.94-.2.94zm-28.84 16.78s.57.06.57-.97c-.01-.25.16-.47.39-.49h26.48c.22.02.4.24.38.5 0 1.01.58.96.58.96.22.02.4.24.38.49v1.46c.01.25-.16.47-.38.49h-28.4c-.23-.02-.4-.24-.39-.5v-1.45c-.01-.25.16-.47.39-.49z"/>
      <path id="fill" fill="#FFFFFF" d="M876.92 223.98h-46.14a4.09 4.09 0 0 1-4.08-4.08v-46.14a4.09 4.09 0 0 1 4.08-4.07h46.14a4.09 4.09 0 0 1 4.07 4.07v46.14a4.09 4.09 0 0 1-4.07 4.08"/>
      <path id="stroke" stroke="#E5A03E" stroke-width="2" d="M876.92 223.98h-46.14a4.09 4.09 0 0 1-4.08-4.08v-46.14a4.09 4.09 0 0 1 4.08-4.07h46.14a4.09 4.09 0 0 1 4.07 4.07v46.14a4.09 4.09 0 0 1-4.07 4.08z"/>
      <path id="fill" fill="#FFFFFF" d="M864.39 214.42H843.3a2.89 2.89 0 0 1-2.88-2.88V184.1c0-1.59 1.3-2.88 2.88-2.88h21.08c1.58 0 2.88 1.3 2.88 2.88v27.44c0 1.59-1.3 2.88-2.88 2.88"/>
      <path id="stroke" stroke="#E5A03E" stroke-width="2.04" d="M864.39 214.42H843.3a2.89 2.89 0 0 1-2.88-2.88V184.1c0-1.59 1.3-2.88 2.88-2.88h21.08c1.58 0 2.88 1.3 2.88 2.88v27.44c0 1.59-1.3 2.88-2.88 2.88z" stroke-linecap="round" stroke-linejoin="round"/>
      <path id="fill" fill="#FCD669" d="M861.71 211.64h-15.73a2.89 2.89 0 0 1-2.88-2.88v-22.4c0-1.58 1.3-2.88 2.88-2.88h15.73c1.59 0 2.88 1.3 2.88 2.88v22.4c0 1.58-1.3 2.88-2.88 2.88"/>
      <path id="fill" fill="#E5A03E" d="M847.96 184.76c-.81 0-1.5-.62-1.57-1.44l-.06-.7c0-1.94 1.56-3.5 3.49-3.5h.97c0-1.04.85-1.88 1.88-1.88h2.35c1.04 0 1.88.84 1.88 1.88h.98a3.5 3.5 0 0 1 3.49 3.5v.56c0 .87-.7 1.58-1.58 1.58h-11.83z"/>
      <path id="fill" fill="#FFFFFF" d="M860.86 203.5h-14.02a.51.51 0 0 1-.51-.52v-.21c0-.28.23-.51.51-.51h14.02c.28 0 .51.23.51.51v.2c0 .3-.23.52-.51.52m0 3.8h-14.02a.51.51 0 0 1-.51-.52v-.21c0-.28.23-.51.51-.51h14.02c.28 0 .51.23.51.5v.22c0 .28-.23.51-.51.51m0-7.6h-14.02a.51.51 0 0 1-.51-.52v-.21c0-.28.23-.51.51-.51h14.02c.28 0 .51.23.51.5v.22c0 .28-.23.51-.51.51m-8.7-9.26h-4.86a.97.97 0 0 1-.97-.97v-.4c0-.53.43-.96.97-.96h4.86c.54 0 .97.43.97.97v.4c0 .52-.43.96-.97.96"/>
      <path id="fill" fill="#F7BF4E" d="M545.58 319.3H526.2a4.08 4.08 0 0 1-4.07-4.08v-19.37a4.08 4.08 0 0 1 4.07-4.07h19.37a4.09 4.09 0 0 1 4.07 4.07v19.37a4.09 4.09 0 0 1-4.07 4.07"/>
      <path id="stroke" stroke="#F7BF4E" stroke-width="2.04" d="M545.58 319.3H526.2a4.08 4.08 0 0 1-4.07-4.08v-19.37a4.08 4.08 0 0 1 4.07-4.07h19.37a4.09 4.09 0 0 1 4.07 4.07v19.37a4.09 4.09 0 0 1-4.07 4.07z" stroke-linecap="round" stroke-linejoin="round"/>
      <path id="fill" fill="#FFFFFF" d="M567.97 332.68h-46.14a4.08 4.08 0 0 1-4.08-4.07v-46.15a4.08 4.08 0 0 1 4.08-4.07h46.14a4.08 4.08 0 0 1 4.08 4.07v46.15a4.08 4.08 0 0 1-4.08 4.07"/>
      <path id="stroke" stroke="#E5A03E" stroke-width="2" d="M567.97 332.68h-46.14a4.08 4.08 0 0 1-4.08-4.07v-46.15a4.08 4.08 0 0 1 4.08-4.07h46.14a4.08 4.08 0 0 1 4.08 4.07v46.15a4.08 4.08 0 0 1-4.08 4.07z"/>
      <path id="fill" fill="#E5A03E" d="M525.8 316.56c.4.47.94.7 1.64.7.77 0 1.36-.22 1.77-.67.4-.44.61-1.06.61-1.86 0-.77-.2-1.37-.61-1.8-.41-.44-1-.66-1.77-.66-.68 0-1.23.24-1.63.71a2.6 2.6 0 0 0-.6 1.75c0 .74.2 1.35.6 1.83zm.57-3.2c.24-.33.6-.5 1.07-.5 1.06 0 1.6.62 1.6 1.87 0 .62-.14 1.1-.41 1.44-.28.34-.67.5-1.19.5a1.2 1.2 0 0 1-1.06-.55 2.42 2.42 0 0 1-.38-1.39c0-.58.12-1.03.37-1.37zm11.1 3.78l-1.61-2.22c.3-.06.55-.2.76-.45.22-.24.33-.51.33-.82 0-.92-.67-1.38-2-1.38a20.46 20.46 0 0 0-1.4.05v4.82h.76v-2.1l.8.03 1.5 2.07h.86zm-2.7-4.26c.48 0 .83.06 1.05.17.23.12.34.32.34.59 0 .33-.1.56-.31.68-.21.13-.55.2-1 .2-.18 0-.35-.02-.54-.04v-1.57l.45-.03zm9.86 4.26l-1.62-2.22c.3-.06.55-.2.77-.45.21-.24.32-.51.32-.82 0-.92-.67-1.38-2-1.38a20.52 20.52 0 0 0-1.39.05v4.82h.76v-2.1l.8.03 1.49 2.07h.87zm-2.71-4.26c.48 0 .83.06 1.06.17.22.12.33.32.33.59 0 .33-.1.56-.31.68-.2.13-.54.2-1 .2-.17 0-.35-.02-.53-.04v-1.57l.45-.03zm6.2 4.35h.77v-4.82h-.76v4.82zm8.3-4.7l-.25.57a2.15 2.15 0 0 0-1.14-.24c-.48 0-.87.18-1.17.55-.29.36-.44.83-.44 1.4 0 .56.15 1 .46 1.34.3.34.69.51 1.16.51.52 0 .92-.16 1.2-.49l.42.5c-.44.4-1 .58-1.7.58a2.2 2.2 0 0 1-1.7-.68 2.55 2.55 0 0 1-.63-1.8c0-.71.22-1.3.67-1.78a2.24 2.24 0 0 1 1.72-.72c.6 0 1.07.1 1.4.27zm6.83 4.7l-1.57-2.22-.74.91v1.3h-.76v-4.81h.76v2.62l2.06-2.62h.86l-1.67 2.09 1.9 2.73h-.84zm-25.59-16.86c0 3.93 3.1 7 7.06 7a6.95 6.95 0 0 0 7.05-7c0-3.86-3.17-7-7.05-7a7.04 7.04 0 0 0-7.06 7zm1.9 0a5.07 5.07 0 0 1 5.16-5.21 5.07 5.07 0 0 1 5.15 5.21 5.2 5.2 0 0 1-5.15 5.22 5.2 5.2 0 0 1-5.16-5.22z"/>
      <polygon id="stroke" stroke="#FFFFFF" stroke-width=".75" points="1003.468 157.628 1027.776 157.628 1044.125 141.075 1019.817 141.075" stroke-linecap="round" stroke-linejoin="round"/>
      <polygon id="stroke" stroke="#FFFFFF" stroke-width=".75" points="1019.338 136.645 1044.125 136.645 1044.125 111.858 1019.338 111.858" stroke-linecap="round" stroke-linejoin="round"/>
      <polygon id="stroke" stroke="#FFFFFF" stroke-width=".75" points="989.783 136.645 1014.57 136.645 1014.57 111.858 989.783 111.858" stroke-linecap="round" stroke-linejoin="round"/>
      <polyline id="stroke" stroke="#FFFFFF" stroke-width=".75" points="739.035 197.723 739.035 53.161 768.555 23.642 874.566 23.642" stroke-linecap="round" stroke-linejoin="round" opacity=".5"/>
      <path id="fill" fill="#FCC67F" d="M1063.33 92.8a4.11 4.11 0 1 0 0-8.22 4.11 4.11 0 0 0 0 8.23"/>
      <path id="stroke" stroke="#FFFFFF" stroke-width="2" d="M1063.33 92.8a4.11 4.11 0 1 0 0-8.22 4.11 4.11 0 0 0 0 8.23z"/>
      <path id="fill" fill="#FCC67F" d="M1083.34 92.8a4.12 4.12 0 1 0 0-8.23 4.12 4.12 0 0 0 0 8.24"/>
      <path id="stroke" stroke="#FFFFFF" stroke-width="2" d="M1083.34 92.8a4.12 4.12 0 1 0 0-8.23 4.12 4.12 0 0 0 0 8.24z"/>
      <path id="fill" fill="#FCC67F" d="M1103.36 92.8a4.12 4.12 0 1 0 0-8.23 4.12 4.12 0 0 0 0 8.24"/>
      <path id="stroke" stroke="#FFFFFF" stroke-width="2" d="M1103.36 92.8a4.12 4.12 0 1 0 0-8.23 4.12 4.12 0 0 0 0 8.24z"/>
      <path id="fill" fill="#FCC67F" d="M490.05 71.9a4.11 4.11 0 1 0 8.23 0 4.11 4.11 0 0 0-8.23 0"/>
      <path id="stroke" stroke="#FFFFFF" stroke-width="2" d="M490.05 71.9a4.11 4.11 0 1 0 8.23 0 4.11 4.11 0 0 0-8.23 0z"/>
      <path id="fill" fill="#FCC67F" d="M490.05 91.92a4.11 4.11 0 1 0 8.23 0 4.11 4.11 0 0 0-8.23 0"/>
      <path id="stroke" stroke="#FFFFFF" stroke-width="2" d="M490.05 91.92a4.11 4.11 0 1 0 8.23 0 4.11 4.11 0 0 0-8.23 0z"/>
      <path id="fill" fill="#FCC67F" d="M490.05 111.93a4.11 4.11 0 1 0 8.23 0 4.11 4.11 0 0 0-8.23 0"/>
      <path id="stroke" stroke="#FFFFFF" stroke-width="2" d="M490.05 111.93a4.11 4.11 0 1 0 8.23 0 4.11 4.11 0 0 0-8.23 0z"/>
      <polyline id="stroke" stroke="#FFFFFF" stroke-width=".75" points="232.303 248.701 192.345 248.701 0 248.701" stroke-linejoin="round" opacity=".5"/>
      <polyline id="stroke" stroke="#FFFFFF" stroke-width=".75" points="1282.051 160.09 1334.051 160.09 1349.841 175.88 1600 175.671" stroke-linejoin="round" opacity=".5"/>
      <polyline id="stroke" stroke="#FFFFFF" stroke-width=".75" points="1248.887 163.845 1248.887 215.845 1233.097 231.636 1233.306 450" stroke-linecap="round" stroke-linejoin="round" opacity=".5"/>
      <path id="stroke" stroke="#FFFFFF" stroke-width=".75" d="M255.03 269.9v63.36" stroke-linecap="round" stroke-linejoin="round" opacity=".5"/>
      <path id="fill" fill="#FFFFFF" d="M277.14 247.8a22.1 22.1 0 1 1-44.2 0 22.1 22.1 0 0 1 44.2 0"/>
      <path id="stroke" stroke="#E5A03E" stroke-width="2" d="M277.14 247.8a22.1 22.1 0 1 1-44.2 0 22.1 22.1 0 0 1 44.2 0z"/>
      <path id="fill" fill="#E5A03E" d="M254.76 267.1c-5.22 0-9.93-2.2-13.26-5.72 1.95-3.56 6.05-5.97 13.26-5.97 7.22 0 11.32 2.4 13.26 5.97a18.23 18.23 0 0 1-13.26 5.72m.01-29.7v.01c-3.8 0-6.88 2.76-6.88 7.24s3.08 7.24 6.88 7.24 6.88-2.76 6.88-7.25c0-4.48-3.08-7.23-6.88-7.23"/>
      <path id="fill" fill="#FFFFFF" d="M314.7 219.54h56.96c.62 0 1.19.36 1.46.91l4.41 8.96c.11.22.17.47.17.72v60.15c0 .9-.73 1.64-1.63 1.64H314.5c-.9 0-1.63-.73-1.63-1.64v-69.1c0-.9.73-1.64 1.63-1.64h.2z"/>
      <path id="stroke" stroke="#E5A03E" stroke-width="2.04" d="M314.7 219.54h56.96c.62 0 1.19.36 1.46.91l4.41 8.96c.11.22.17.47.17.72v60.15c0 .9-.73 1.64-1.63 1.64H314.5c-.9 0-1.63-.73-1.63-1.64v-69.1c0-.9.73-1.64 1.63-1.64h.2z" stroke-linecap="round" stroke-linejoin="round"/>
      <path id="fill" fill="#FFFFFF" d="M439.86 219.54H382.9c-.62 0-1.19.36-1.46.91l-4.41 8.96c-.11.22-.17.47-.17.72v60.15c0 .9.73 1.64 1.63 1.64h61.56c.9 0 1.63-.73 1.63-1.64v-69.1c0-.9-.73-1.64-1.63-1.64h-.2z"/>
      <path id="stroke" stroke="#E5A03E" stroke-width="2.04" d="M439.86 219.54H382.9c-.62 0-1.19.36-1.46.91l-4.41 8.96c-.11.22-.17.47-.17.72v60.15c0 .9.73 1.64 1.63 1.64h61.56c.9 0 1.63-.73 1.63-1.64v-69.1c0-.9-.73-1.64-1.63-1.64h-.2z" stroke-linecap="round" stroke-linejoin="round"/>
      <path id="fill" fill="#FFFFFF" d="M368.9 288.1c2.9 0 5.49 1.31 7.2 3.38.35.42 1.03.17 1.03-.37v-65.26c0-5.49-4.45-9.94-9.94-9.94h-47.72c-.9 0-1.63.73-1.63 1.63v68.93c0 .9.73 1.63 1.63 1.63h49.43z"/>
      <path id="stroke" stroke="#E5A03E" stroke-width="2.04" d="M368.9 288.1c2.9 0 5.49 1.31 7.2 3.38.35.42 1.03.17 1.03-.37v-65.26c0-5.49-4.45-9.94-9.94-9.94h-47.72c-.9 0-1.63.73-1.63 1.63v68.93c0 .9.73 1.63 1.63 1.63h49.43z" stroke-linecap="round" stroke-linejoin="round"/>
      <path id="fill" fill="#FFFFFF" d="M385.66 288.1a9.34 9.34 0 0 0-7.2 3.38c-.35.42-1.03.17-1.03-.37v-65.26c0-5.49 4.45-9.94 9.94-9.94h47.72c.9 0 1.63.73 1.63 1.63v68.93c0 .9-.73 1.63-1.63 1.63h-49.43z"/>
      <path id="stroke" stroke="#E5A03E" stroke-width="2.04" d="M385.66 288.1a9.34 9.34 0 0 0-7.2 3.38c-.35.42-1.03.17-1.03-.37v-65.26c0-5.49 4.45-9.94 9.94-9.94h47.72c.9 0 1.63.73 1.63 1.63v68.93c0 .9-.73 1.63-1.63 1.63h-49.43z" stroke-linecap="round" stroke-linejoin="round"/>
      <path id="fill" fill="#E5A03E" d="M363.4 259.94h-34.3a1.6 1.6 0 0 1-1.6-1.6c0-.88.72-1.6 1.6-1.6h34.3c.88 0 1.6.72 1.6 1.6 0 .88-.72 1.6-1.6 1.6m0 7.48h-34.3a1.6 1.6 0 0 1-1.6-1.6c0-.88.72-1.6 1.6-1.6h34.3c.88 0 1.6.72 1.6 1.6 0 .88-.72 1.6-1.6 1.6m0 7.49h-34.3a1.6 1.6 0 0 1-1.6-1.6c0-.89.72-1.6 1.6-1.6h34.3c.88 0 1.6.71 1.6 1.6 0 .88-.72 1.6-1.6 1.6m60.82-14.97h-34.3a1.6 1.6 0 0 1-1.6-1.6c0-.88.73-1.6 1.6-1.6h34.3c.88 0 1.6.72 1.6 1.6 0 .88-.72 1.6-1.6 1.6m-21.03 7.48h-13.26a1.6 1.6 0 0 1-1.6-1.6c0-.88.72-1.6 1.6-1.6h13.26c.88 0 1.6.72 1.6 1.6 0 .88-.72 1.6-1.6 1.6m20.95 0h-13.27a1.6 1.6 0 0 1-1.6-1.6c0-.88.72-1.6 1.6-1.6h13.27c.88 0 1.6.72 1.6 1.6 0 .88-.72 1.6-1.6 1.6m.08 7.49h-34.3a1.6 1.6 0 0 1-1.6-1.6c0-.89.73-1.6 1.6-1.6h34.3c.88 0 1.6.71 1.6 1.6 0 .88-.72 1.6-1.6 1.6"/>
      <path id="fill" fill="#FCC87C" d="M396.28 250.7h-5.13a1.98 1.98 0 0 1-1.98-1.97V226.2c0-1.08.9-1.97 1.98-1.97h5.13c1.08 0 1.97.89 1.97 1.97v22.54c0 1.09-.9 1.97-1.97 1.97m-68.16-20.63v-1.79c0-1.08.89-1.97 1.97-1.97h12.8c1.08 0 1.96.89 1.96 1.97v1.8c0 1.08-.88 1.96-1.97 1.96H330.1a1.98 1.98 0 0 1-1.97-1.97"/>
      <path id="fill" fill="#FABE90" d="M409.24 250.7h-5.13a1.98 1.98 0 0 1-1.97-1.97v-13.36c0-1.09.89-1.97 1.97-1.97h5.13c1.09 0 1.97.88 1.97 1.97v13.36c0 1.09-.88 1.97-1.97 1.97"/>
      <path id="fill" fill="#F9B99E" d="M422.68 250.7h-5.13a1.98 1.98 0 0 1-1.97-1.97v-6.33c0-1.09.89-1.97 1.97-1.97h5.13c1.09 0 1.98.88 1.98 1.97v6.33c0 1.09-.9 1.97-1.98 1.97"/>
    </g>
  </g>
</svg>
