<svg xmlns="http://www.w3.org/2000/svg" width="15px" height="11px"><path fill="#E5A03E" d="M15 1.72c-1.96.95-2.94 2.07-2.94 3.36.83.1 1.53.44 2.07 1.02.55.58.82 1.25.82 2.01 0 .81-.26 1.5-.8 2.05-.52.56-1.2.84-2 .84-.9 0-1.68-.36-2.33-1.09a3.78 3.78 0 0 1-1-2.63c0-3.1 1.76-5.53 5.26-7.28L15 1.72zm-8.83 0c-1.97.95-2.96 2.07-2.96 3.36.85.1 1.55.44 2.1 1.02.54.58.82 1.25.82 2.01 0 .81-.27 1.5-.81 2.05-.54.56-1.21.84-2.02.84-.9 0-1.67-.36-2.32-1.09A3.8 3.8 0 0 1 0 7.28C0 4.18 1.74 1.75 5.23 0l.94 1.72z"/></svg>