<?xml version="1.0" encoding="UTF-8" standalone="no"?>
<svg width="126px" height="25px" viewBox="0 0 126 25" version="1.1" xmlns="http://www.w3.org/2000/svg" xmlns:xlink="http://www.w3.org/1999/xlink">
    <!-- Generator: Sketch 3.8.3 (29802) - http://www.bohemiancoding.com/sketch -->
    <title>Buy with Apple Pay</title>
    <desc>Created with Sketch.</desc>
    <defs></defs>
    <g id="Demo" stroke="none" stroke-width="1" fill="none" fill-rule="evenodd">
        <g id="Artboard" transform="translate(-125.000000, -545.000000)" fill="#FFFFFF">
            <g id="Buy-with-Apple-Pay" transform="translate(125.000000, 545.000000)">
                <path d="M116.590055,6.41893068 L119.787271,14.4080418 C119.962548,14.8518813 120.128497,15.3084861 120.286099,15.7783472 C120.443211,16.2472263 120.583138,16.6787915 120.70539,17.0710789 L120.757924,17.0710789 C120.880668,16.6959756 121.019613,16.2732479 121.177215,15.8038778 C121.334818,15.3345077 121.509604,14.8518813 121.701083,14.3559987 L124.690126,6.41843971 L126.000042,6.41843971 L122.357514,15.4322113 C121.989775,16.3876446 121.645112,17.2551937 121.321561,18.0314219 C120.998992,18.808141 120.670531,19.5082684 120.338634,20.131313 C120.006245,20.7543576 119.670419,21.3042473 119.328702,21.7829459 C118.988458,22.2601715 118.607463,22.6789714 118.188663,23.0373816 C117.699654,23.4635461 117.249432,23.7758049 116.838488,23.972194 C116.428034,24.1690742 116.15309,24.2927994 116.012671,24.3433696 L115.592398,23.3447307 C115.907603,23.2082402 116.257176,23.0290351 116.641608,22.8071153 C117.026039,22.5851956 117.402125,22.2955216 117.768881,21.9366204 C118.083595,21.6297623 118.42924,21.2242187 118.804834,20.7199895 C119.179937,20.2172333 119.516254,19.606463 119.814274,18.8891515 C119.918852,18.6161706 119.971386,18.4364745 119.971386,18.3510452 C119.971386,18.2322298 119.919343,18.0525337 119.814274,17.8134299 L115.278667,6.41843971 L116.590055,6.41843971 L116.590055,6.41893068 Z M114.180115,15.7914562 C114.180115,16.2863569 114.188461,16.7817485 114.206136,17.2766492 C114.223321,17.7715499 114.275855,18.2492666 114.363739,18.7102901 L113.209952,18.7102901 L113.02682,16.9693002 L112.973794,16.9693002 C112.816683,17.208404 112.615384,17.4470168 112.37088,17.6861206 C112.126375,17.9247335 111.842593,18.1427254 111.519533,18.3391146 C111.195982,18.5355038 110.829225,18.6931061 110.41828,18.8124125 C110.007336,18.9317189 109.557605,18.9916176 109.068596,18.9916176 C108.456844,18.9916176 107.919228,18.892932 107.45575,18.6975248 C106.992763,18.5011357 106.612749,18.2448478 106.31522,17.9296432 C106.018181,17.6129657 105.795771,17.2506277 105.647497,16.8411563 C105.498732,16.4316849 105.424595,16.0217225 105.424595,15.6117601 C105.424595,14.1609352 106.049113,13.0429898 107.298639,12.2574332 C108.548656,11.4718765 110.431537,11.0967732 112.948755,11.1306504 L112.948755,10.7977707 C112.948755,10.4732377 112.917824,10.1015712 112.856943,9.68326225 C112.79508,9.26495333 112.660063,8.86775625 112.449926,8.49265295 C112.240281,8.11754965 111.926058,7.80185407 111.506767,7.54605719 C111.087477,7.28976933 110.51893,7.1616254 109.8026,7.1616254 C109.260566,7.1616254 108.723933,7.24263593 108.190736,7.40514796 C107.65754,7.56716902 107.17295,7.79301656 106.735984,8.08318155 L106.342714,7.18715599 C106.901442,6.81205269 107.478826,6.54299954 108.072412,6.38097848 C108.66698,6.21895742 109.287079,6.13794689 109.93369,6.13794689 C110.807622,6.13794689 111.520024,6.2827839 112.070404,6.57343986 C112.620785,6.86360485 113.053332,7.23919912 113.368046,7.69924073 C113.682268,8.16026429 113.897314,8.67676779 114.010238,9.24875123 C114.123653,9.82073466 114.181097,10.3887903 114.181097,10.9514453 L114.181097,15.7914562 L114.180115,15.7914562 Z M112.948264,12.1297802 C112.283487,12.1121052 111.58876,12.1381268 110.863102,12.206372 C110.138426,12.2746173 109.469721,12.424364 108.85846,12.6541393 C108.246216,12.8848966 107.740023,13.222195 107.338407,13.6660345 C106.936301,14.109874 106.735002,14.6985505 106.735002,15.433046 C106.735002,16.3030499 106.988344,16.9432786 107.49601,17.353241 C108.002203,17.7627124 108.569767,17.9679391 109.199195,17.9679391 C109.705879,17.9679391 110.16052,17.8996938 110.562136,17.7627124 C110.964242,17.625731 111.312833,17.4421071 111.610363,17.2123318 C111.907892,16.9820655 112.156325,16.7218498 112.357623,16.4316849 C112.559413,16.1410289 112.711615,15.8430083 112.817174,15.5346774 C112.904567,15.1929602 112.948755,14.9455099 112.948755,14.7913444 L112.948755,12.1297802 L112.948264,12.1297802 Z M94.759878,1.65683717 C95.267053,1.57140789 95.8257801,1.49481611 96.4380234,1.4260799 C97.0492846,1.35783467 97.7219175,1.32395754 98.4569039,1.32395754 C99.5051311,1.32395754 100.409503,1.44768271 101.169529,1.69513306 C101.930046,1.9425834 102.554564,2.29657487 103.043082,2.75759843 C103.462864,3.16706983 103.791325,3.65362398 104.026992,4.21676991 C104.262168,4.7804068 104.37951,5.42898201 104.37951,6.16298651 C104.37951,7.05066552 104.218471,7.82738466 103.895411,8.49314392 C103.572351,9.15890318 103.131457,9.71812133 102.571748,10.1703074 C102.012039,10.6224934 101.348243,10.9593008 100.57938,11.1817116 C99.8100253,11.4036313 98.9714436,11.5145912 98.0621617,11.5145912 C97.241255,11.5145912 96.5509471,11.4546925 95.99222,11.3353861 L95.99222,18.7102901 L94.759878,18.7102901 L94.759878,1.65683717 Z M95.99222,10.2606464 C96.2892586,10.3455847 96.6211562,10.4054834 96.988404,10.4393605 C97.3551607,10.4732377 97.74843,10.4899307 98.1677209,10.4899307 C99.7403071,10.4899307 100.959393,10.1315205 101.823996,9.41470007 C102.68909,8.6983706 103.121638,7.64817955 103.121638,6.26559985 C103.121638,5.59984058 103.008714,5.01901964 102.781393,4.52411895 C102.554073,4.02872728 102.231013,3.62318366 101.811722,3.30748808 C101.392431,2.9917925 100.894093,2.7526887 100.317691,2.59017667 C99.7403071,2.42815561 99.1025333,2.34714508 98.4028969,2.34714508 C97.8441698,2.34714508 97.3635073,2.36874789 96.9614005,2.41146253 C96.5592937,2.45417717 96.2362335,2.5008196 95.991729,2.55188078 L95.991729,10.2606464 L95.99222,10.2606464 Z M84.8574454,3.02979381 C85.5413707,2.22754408 86.0023942,1.11107169 85.8767052,0 C84.8903406,0.0382958867 83.6977674,0.636300887 82.9907664,1.43805964 C82.3564294,2.14800647 81.80163,3.28411777 81.9513768,4.37358665 C83.0506651,4.4560701 84.1735201,3.83253451 84.8574454,3.02979381 Z M87.3231113,10.0821286 C87.3506058,12.9538292 89.9237948,13.9092624 89.9522713,13.9215368 C89.9306684,13.989291 89.5413269,15.2834956 88.5966951,16.6209058 C87.7802071,17.776656 86.9322969,18.9284785 85.5978325,18.9525361 C84.2859529,18.9761028 83.8642072,18.1993837 82.364285,18.1993837 C80.8648537,18.1993837 80.3959746,18.9284785 79.1543041,18.9761028 C77.8659912,19.0232362 76.8845364,17.7255948 76.0611748,16.5737724 C74.3786107,14.2175934 73.0927526,9.9161798 74.8195043,7.01256603 C75.677234,5.5705786 77.2095604,4.65736899 78.8734676,4.63429327 C80.1387048,4.61072657 81.3332419,5.45863678 82.1070152,5.45863678 C82.8798065,5.45863678 84.3316134,4.43888605 85.8575572,4.58863279 C86.496313,4.61465435 88.289346,4.838538 89.4406775,6.47102291 C89.3473926,6.52699382 87.3005266,7.68127112 87.3231113,10.0821286 Z" id="Logo"></path>
                <path d="M4.955,5.5 L0.485,5.5 L0.485,16 L5.15,16 C7.445,16 8.96,14.935 8.96,13.12 C8.96,11.665 7.955,10.945 6.71,10.57 C7.535,10.21 8.375,9.505 8.375,8.125 C8.375,6.52 7.025,5.5 4.955,5.5 L4.955,5.5 Z M4.76,10.18 L1.655,10.18 L1.655,6.565 L4.85,6.565 C6.35,6.565 7.175,7.24 7.175,8.29 C7.175,9.535 6.185,10.18 4.76,10.18 L4.76,10.18 Z M5.18,14.935 L1.655,14.935 L1.655,11.23 L4.97,11.23 C6.8,11.23 7.76,11.89 7.76,13.045 C7.76,14.23 6.77,14.935 5.18,14.935 L5.18,14.935 Z M16.625,12.685 C16.625,14.14 15.62,15.115 14.3,15.115 C12.935,15.115 12.155,14.215 12.155,12.775 L12.155,8.245 L11,8.245 L11,13.06 C11,14.905 12.095,16.165 13.97,16.165 C15.305,16.165 16.1,15.49 16.625,14.65 L16.625,16 L17.765,16 L17.765,8.245 L16.625,8.245 L16.625,12.685 Z M27.395,8.245 L26.165,8.245 L23.675,14.71 L20.855,8.245 L19.58,8.245 L23.105,15.97 C22.64,17.065 22.205,17.425 21.515,17.425 C21.02,17.425 20.675,17.335 20.3,17.14 L19.91,18.055 C20.435,18.31 20.915,18.445 21.56,18.445 C22.73,18.445 23.48,17.86 24.14,16.255 L27.395,8.245 Z M39.38,8.215 L38.42,8.215 L36.335,14.47 L34.295,8.245 L33.065,8.245 L35.78,16.06 L36.8,16.06 L38.9,9.94 L40.985,16.06 L41.99,16.06 L44.72,8.245 L43.52,8.245 L41.48,14.47 L39.38,8.215 Z M47.99,6.55 L47.99,5.275 L46.67,5.275 L46.67,6.55 L47.99,6.55 Z M47.9,16 L47.9,8.245 L46.745,8.245 L46.745,16 L47.9,16 Z M52.145,9.265 L54.605,9.265 L54.605,8.245 L52.145,8.245 L52.145,5.905 L50.99,5.905 L50.99,8.245 L49.91,8.245 L49.91,9.265 L50.99,9.265 L50.99,13.945 C50.99,15.52 51.935,16.135 53.18,16.135 C53.735,16.135 54.17,16.015 54.575,15.805 L54.575,14.815 C54.17,15.01 53.84,15.085 53.45,15.085 C52.67,15.085 52.145,14.74 52.145,13.795 L52.145,9.265 Z M57.8,11.56 C57.8,10.105 58.79,9.13 60.125,9.13 C61.49,9.13 62.27,10.03 62.27,11.47 L62.27,16 L63.425,16 L63.425,11.185 C63.425,9.34 62.33,8.08 60.455,8.08 C59.12,8.08 58.31,8.755 57.8,9.595 L57.8,5.05 L56.645,5.05 L56.645,16 L57.8,16 L57.8,11.56 Z" id="Buy-with"></path>
            </g>
        </g>
    </g>
</svg>