 <svg xmlns="http://www.w3.org/2000/svg" width="260" height="260" viewBox="0 0 260 260">
  <g id="Desktop-v2" fill="none" fill-rule="evenodd" stroke-linecap="round">
    <g id="Artboard-2" stroke="#F84578" stroke-width="2.75">
      <path id="Shape" d="M17.03 71.65a127.27 127.27 0 0 0-11.48 83.46M187.08 15.05a127.26 127.26 0 0 0-81.5-10.5 127.35 127.35 0 0 0-77.96 49.91m228.51 50.12a127.37 127.37 0 0 0-51.85-79.35M97.84 253.33a143.67 143.67 0 0 0 33.03-123.5m-21.83 74.84a128.62 128.62 0 0 1-27.72 43"/>
      <path id="Shape" d="M115.74 256.78a159.52 159.52 0 0 0 30.8-130.1l.05-.02a16.06 16.06 0 1 0-31.5 6.35l.12-.02a127.47 127.47 0 0 1-.27 52.03m-14.18-41.67a111.9 111.9 0 0 1-34.54 96.76"/>
      <path id="Shape" d="M165.7 157.95a176.62 176.62 0 0 0-3.5-34.43l.04-.01a32.03 32.03 0 0 0-62.76-.2m35.44 134.29a175.9 175.9 0 0 0 29.66-79.38"/>
      <path id="Shape" d="M134.6 81.98a47.99 47.99 0 0 0-50.8 57.34l.09-.01a95.94 95.94 0 0 1-31.31 91.58m102.72 24.4a191.1 191.1 0 0 0 22.56-134.93h.03a47.9 47.9 0 0 0-23.7-32.45m-89.78 99.24a80.43 80.43 0 0 1-23.97 33.06"/>
      <path id="Shape" d="M194.92 191.98a207.22 207.22 0 0 0-1.4-74.78h.02a63.95 63.95 0 1 0-125.4 25.28l.08-.01c1.66 8.22 2 16.4 1.15 24.32m107.33 82.36a207.91 207.91 0 0 0 13.93-37.27"/>
      <path id="Shape" d="M195.48 82.8a79.66 79.66 0 0 1 13.7 31.24 222.72 222.72 0 0 1-10.25 124M97.48 57.2a80.1 80.1 0 0 1 17.57-5.7 79.76 79.76 0 0 1 66.47 16.53M29.85 208.21a64 64 0 0 0 22.7-62.59l-.05.02a79.91 79.91 0 0 1 28-77.9"/>
      <path id="Shape" d="M35.02 133.64c.2 5.01.8 10.08 1.83 15.15h.05a48.03 48.03 0 0 1-16.07 46.17m206.2-71.66c-.62-4.13-1.34-8.27-2.18-12.41h-.02A95.88 95.88 0 0 0 111.9 35.84a95.92 95.92 0 0 0-75.55 77.6m185.23 106.44a238.22 238.22 0 0 0 7.58-76.45"/>
      <path id="Shape" d="M145.83 18.97a111.68 111.68 0 0 0-37.1 1.23C48.19 32.4 9 91.39 21.2 151.95l.03-.01a32.01 32.01 0 0 1-7.94 28.15m230.37 9.83a255.48 255.48 0 0 0-3.14-82.19 111.91 111.91 0 0 0-75.62-84.45"/>
    </g>
  </g>
</svg>
