<svg xmlns="http://www.w3.org/2000/svg" width="385" height="25"><path fill="#AAB7C4" d="M43.51 22.126H5.49c-1.93 0-3.49-1.536-3.49-3.43V6.43C2 4.537 3.562 3 5.49 3h38.02C45.44 3 47 4.537 47 6.432v12.263c0 1.894-1.562 3.43-3.49 3.43zM25.664 4.276H5.494c-1.22 0-2.208.974-2.208 2.177v12.22c0 1.202.988 2.178 2.208 2.178h20.17V4.277zm4.86 5.722c-.773 0-1.492.31-1.833.995h-.02v-.88h-1.567v6.85h1.7V14.31h.02c.322.583.966.8 1.56.8 1.466 0 2.25-1.2 2.25-2.645 0-1.18-.746-2.466-2.108-2.466zm7.77 3.844v-1.818c0-1.49-1.086-2.026-2.344-2.026-.73 0-1.362.104-1.967.348l.03 1.144c.47-.263 1.02-.366 1.567-.366.614 0 1.115.178 1.126.844a4.987 4.987 0 0 0-.795-.066c-.905 0-2.54.178-2.54 1.668 0 1.06.87 1.538 1.843 1.538.7 0 1.172-.27 1.56-.882h.02c0 .254.026.506.037.77h1.558a5.904 5.904 0 0 1-.095-1.154zm4.433-3.73l-1.01 3.187h-.02l-1.06-3.19h-1.832l1.994 4.997c-.124.43-.445.675-.86.675-.24 0-.446-.028-.673-.103l-.113 1.283c.35.075.7.113 1.06.113 1.56 0 1.927-1.19 2.41-2.42l1.806-4.545h-1.704zm-7.07 3.87c-.397 0-.7-.195-.7-.534 0-.468.453-.645 1.03-.645.256 0 .502.017.72.027 0 .572-.407 1.153-1.05 1.153zm-5.812-.168c-.568 0-1.04-.534-1.04-1.247 0-.73.415-1.275 1.04-1.275.662 0 1.03.563 1.03 1.21 0 .778-.388 1.312-1.03 1.312zm-20.316.32c-.388.566-.93.827-1.58.827-1.29 0-2.09-1.002-2.09-2.434 0-1.44.657-2.52 2.12-2.52.692 0 1.252.39 1.595.986h.018v-.872h1.47v4.276c0 1.99-.938 2.632-2.832 2.632a5.302 5.302 0 0 1-1.794-.308l.08-1.32c.497.25.912.4 1.59.4.937 0 1.442-.456 1.442-1.404v-.26h-.02zm-1.074-2.846c-.604 0-.92.55-.92 1.21 0 .753.433 1.18.92 1.18.577 0 1.037-.502 1.037-1.246 0-.54-.306-1.144-1.037-1.144zm5.35-1.96h-1.623V8.1h1.624v1.227zm0 5.633h-1.622v-4.84h1.623v4.843zm2.565-3.95h.02c.28-.613.685-1.004 1.39-1.004.19 0 .386.03.55.056l-.083 1.396c-.18-.055-.36-.055-.55-.055-.757 0-1.182.567-1.182 1.516v2.044H14.89V10.12h1.48v.892zm4.754-1.004c1.552 0 2.734.93 2.734 2.54 0 1.598-1.182 2.527-2.734 2.527-1.55 0-2.732-.93-2.732-2.528 0-1.61 1.182-2.54 2.733-2.54zm0 3.896c.75 0 1.057-.64 1.057-1.356 0-.725-.306-1.367-1.056-1.367-.748 0-1.055.64-1.055 1.366 0 .716.306 1.357 1.054 1.357zM105.136 19l-.66-2.247H99.86L99.236 19h-3.574l3.856-13h5.213l3.907 13h-3.5zm-2.964-10.414L100.6 14.22h3.19l-1.618-5.634zm-8.365 6.972c-.15.025-.794.048-1.927.067l-.573.02h-2.06V19h-3.455V6h6.435c.885 0 1.558.073 2.02.22 1.06.336 1.77 1.023 2.135 2.063.188.544.282 1.366.282 2.463 0 1.32-.104 2.266-.31 2.844-.413 1.14-1.263 1.797-2.547 1.968zm-.814-6.012c-.124-.372-.422-.6-.893-.68a6.323 6.323 0 0 0-.67-.02h-2.183v3.782H91.4c.684-.025 1.1-.08 1.25-.16.203-.115.34-.343.408-.684.044-.228.066-.566.066-1.014 0-.55-.043-.957-.13-1.224zM80.803 7.83c-1.682 0-3.15.928-3.942 2.308h7.143l-.857 1.86h-6.878a4.87 4.87 0 0 0 .026 1.155h6.32l-.858 1.864h-4.76c.816 1.258 2.217 2.09 3.81 2.09 1.362 0 2.584-.61 3.42-1.572v2.282a6.487 6.487 0 0 1-3.642 1.11 6.475 6.475 0 0 1-5.963-3.91h-2.273l.857-1.863h.94a6.307 6.307 0 0 1-.033-.632c0-.178.01-.35.025-.523h-1.87l.86-1.863h1.452a6.473 6.473 0 0 1 6.007-4.022 6.49 6.49 0 0 1 4.5 1.802l-.746 1.617a4.526 4.526 0 0 0-3.533-1.706zM69.12 18.85c-.524.1-1.325.15-2.404.15-1.8 0-3.055-.108-3.764-.327-.87-.267-1.442-.808-1.718-1.623-.156-.454-.233-1.21-.233-2.267h3.216v.27c0 .565.16.928.48 1.09.22.11.488.17.803.176h1.18c.604 0 .99-.033 1.155-.096.296-.117.49-.306.582-.568.05-.163.074-.37.074-.627 0-.573-.205-.92-.62-1.046-.15-.05-.87-.118-2.147-.206-1.028-.075-1.74-.146-2.14-.215-1.054-.2-1.755-.61-2.105-1.233-.307-.528-.462-1.328-.462-2.398 0-.816.084-1.47.25-1.96.166-.492.434-.865.805-1.12.54-.393 1.236-.622 2.08-.69a26.76 26.76 0 0 1 2.34-.095c1.347 0 2.31.077 2.882.233 1.4.38 2.098 1.447 2.098 3.198 0 .145-.01.36-.03.647h-3.214c0-.534-.063-.893-.185-1.075-.193-.27-.72-.405-1.584-.405-.84 0-1.397.078-1.667.232-.273.156-.408.495-.408 1.02 0 .473.12.784.36.933.174.105.402.168.687.187l.65.046c1.387.094 2.255.16 2.6.197 1.1.112 1.895.408 2.39.887.39.374.62.864.694 1.467.043.36.065.77.065 1.223 0 1.047-.1 1.814-.296 2.3-.36.89-1.163 1.453-2.414 1.69zm84.852-9.82h-11.45l-1.165 1.316-3.778 4.274-1.167 1.318h-11.3l1.148-1.334.543-.632 1.147-1.334h-5.205c-.95 0-1.73.802-1.73 1.782v3.76c0 .98.78 1.78 1.73 1.78h19.93c.953 0 2.253-.594 2.89-1.322l3.015-3.446 5.392-6.163z"/><path opacity=".502" fill="#AAB7C4" d="M156.272 5.01c.952 0 1.73.802 1.73 1.782v3.76c0 .98-.778 1.78-1.73 1.78h-5.188l1.157-1.323.576-.66 1.157-1.322h-11.45l-6.108 6.913h-11.37l8.155-9.26.307-.35c.64-.726 1.94-1.32 2.89-1.32h19.875z"/><path fill="#AAB7C4" d="M193.89 20.786c-1.694 1.45-4.082 2.2-7.095 2.242v.004H173V2.007h13.795v.004c2.904.05 5.358.894 7.106 2.456.994.886 1.76 2 2.28 3.31.54 1.368.815 2.964.815 4.744 0 3.723-1.044 6.505-3.105 8.266zm-.912-15.278c-1.542-1.377-3.77-2.105-6.444-2.105H174.39v18.233h12.144c6.104 0 9.07-2.982 9.07-9.117 0-3.097-.883-5.456-2.626-7.013zM178.56 10.85a2.257 2.257 0 0 1-2.25-2.26 2.257 2.257 0 0 1 2.25-2.264 2.257 2.257 0 0 1 2.252 2.263 2.257 2.257 0 0 1-2.25 2.26zm1.952 7.693h-3.977v-6.636h3.977v6.636z"/><path opacity=".502" fill="#AAB7C4" d="M186.383 18.71h-4.046V6.11h4.046-.164c3.372 0 6.963 1.34 6.963 6.317 0 5.26-3.59 6.282-6.965 6.282h.163z"/><path fill="#AAB7C4" d="M270.192 9.61h-3.89l-3.032 8.42h-3.027l3.03-8.42h-2.01c.09-.778-.06-1.458-.454-2.03a2.773 2.773 0 0 0-.553-.59h10.877l-.943 2.62zm-10.023.882c-.604 1.638-2.057 2.447-3.06 2.823.17.267.3.585.42.87.475 1.105 1.12 3.84 1.12 3.84h-3.55s-.852-3.723-.923-3.883l-1.444 3.884h-3.377L253.33 6.99h3.676c1.588.004 2.6.36 3.1 1.085.41.596.43 1.41.062 2.418zm-4.057-1.222h-.557l-.98 2.668h.578c1.107 0 1.69-.544 2.013-1.427.345-.94-.035-1.24-1.054-1.24zm-12.31 8.933h-.006c-1.647-.002-2.456-.673-2.846-1.235-.686-.995-.694-2.504-.022-4.365.356-.986.81-1.867 1.343-2.627.82-1.17 1.82-2.053 2.927-2.583a5.675 5.675 0 0 1 2.447-.566c1.3.002 2.233.402 2.78 1.192.9 1.304.408 3.24.032 4.276-1.417 3.92-3.657 5.906-6.657 5.906zm3.047-8.88c-1.09 0-1.99 1.23-2.686 3.154-.932 2.577-.584 3.214.412 3.214h.003c1.02 0 1.7-.65 2.634-3.24.91-2.516.673-3.124-.364-3.125zm-5.36.282h-3.458c-.343 0-.578.19-.676.43l-.47 1.342 2.924.002-.835 2.315-2.934-.002-1.555 4.326h-3.32l3.03-8.417c.628-1.707 1.956-2.62 3.74-2.62h6.38c-.97.6-2.008 1.446-2.74 2.493-.028.04-.054.086-.083.128zm-15.784 8.598h-.006c-1.646-.002-2.456-.673-2.846-1.235-.687-.995-.694-2.504-.022-4.365.356-.986.81-1.867 1.343-2.627.82-1.17 1.82-2.053 2.927-2.583a5.672 5.672 0 0 1 2.448-.566c1.3.002 2.233.402 2.778 1.192.903 1.304.41 3.24.034 4.276-1.418 3.92-3.656 5.906-6.656 5.906zm3.048-8.88c-1.09 0-1.992 1.23-2.688 3.154-.932 2.577-.583 3.214.413 3.214 1.022 0 1.7-.65 2.637-3.24.91-2.516.673-3.124-.364-3.125zm-5.248.28h-4.008a1.44 1.44 0 0 0-.698.158.724.724 0 0 0-.357.437.618.618 0 0 0 .064.495.726.726 0 0 0 .43.313l.54.158.368.108c.753.22 1.27.56 1.557 1.03.285.47.34 1.07.165 1.807-.463 1.958-1.557 2.936-2.696 3.426-1.14.49-2.324.49-2.973.49H209l1.02-2.828h6.44c.517-.004.857-.034 1.087-.13.232-.093.353-.248.433-.487a.738.738 0 0 0 .044-.264.53.53 0 0 0-.056-.227.597.597 0 0 0-.232-.238 1.293 1.293 0 0 0-.293-.125c-.16-.05-.416-.125-.634-.188l-.415-.12a2.978 2.978 0 0 1-.93-.474 2.134 2.134 0 0 1-.61-.7 1.496 1.496 0 0 1-.146-.737c.007-.283.074-.61.2-.988.585-1.764 1.343-2.646 2.2-3.086.86-.44 1.82-.44 2.807-.44h6.26c-.97.597-1.858 1.444-2.59 2.49-.028.042-.054.087-.082.128z"/></svg>