<svg xmlns="http://www.w3.org/2000/svg" width="70" height="70" viewBox="0 0 70 70"><path d="M35 62.8a27.8 27.8 0 1 1 27.808-27.792A27.813 27.813 0 0 1 35 62.8z" fill="none" stroke="#aab7c4" stroke-width="2.5" opacity=".5"/><path d="M32.99 31.612l1.84-6.872c.176.048.386.1.622.164 2.508.652 8.024 2.11 6.95 5.7-1.128 3.766-7.38 1.568-9.412 1.008M30.152 42.2l1.95-7.278c2.388.453 10.85 1.26 9.382 6.425-1.246 4.963-8.522 2.034-11.332.853m13.293-18.863l1.03-3.844-3.843-1.03-1.03 3.844c-.862-.238-1.042-.29-1.922-.515l1.03-3.844-3.844-1.03-1.03 3.844c-.714-.18-7.3-1.957-7.3-1.957l-.646 3.947 1.145.307a1.99 1.99 0 0 1 1.416 2.433l-3.606 13.462a2 2 0 0 1-2.443 1.4l-1.144-.307-1.415 3.74 7.3 1.957-1.03 3.844 3.845 1.03 1.03-3.845c.54.162.82.23 1.145.312.21.053.442.11.777.2l-1.03 3.844 3.843 1.03.98-3.65c5.605 1.2 8.4.454 10.437-4.68 1.644-4.136.244-6.57-2.657-8.2 2.192-.46 3.895-1.868 4.474-4.837.8-4.055-1.582-5.965-5.51-7.46" fill="#aab7c4"/></svg>