<svg xmlns="http://www.w3.org/2000/svg" width="70" height="70" viewBox="0 0 70 70"><path d="M58.644 21.32s-.667-.136-.667.357v1.53a.72.72 0 0 1-.667.763H12.687a.718.718 0 0 1-.667-.763v-1.53c0-.493-.668-.356-.668-.356-1.838 0-1.977-.645-.313-1.44L33.186 9.3a4.747 4.747 0 0 1 3.623 0l22.147 10.577c1.666.8 1.524 1.444-.313 1.444zM10.657 54.257s.985.08.985-1.5a.71.71 0 0 1 .66-.75H57.7a.706.706 0 0 1 .66.75c0 1.576.985 1.5.985 1.5a.708.708 0 0 1 .66.75v2.248a.707.707 0 0 1-.66.75H10.657a.708.708 0 0 1-.66-.75v-2.25a.707.707 0 0 1 .66-.748z" fill="#aab7c4"/><path d="M56.5 48.5a.5.5 0 0 1 .5.5v1a.5.5 0 0 1-.5.5h-9a.5.5 0 0 1-.5-.5v-1a.5.5 0 0 1 .5-.5A1.5 1.5 0 0 0 49 47V29a1.5 1.5 0 0 0-1.5-1.5.5.5 0 0 1-.5-.5v-1a.5.5 0 0 1 .5-.5h9a.5.5 0 0 1 .5.5v1a.5.5 0 0 1-.5.5A1.5 1.5 0 0 0 55 29v18a1.5 1.5 0 0 0 1.5 1.5zm-17 2h-9a.5.5 0 0 1-.5-.5v-1a.5.5 0 0 1 .5-.5A1.5 1.5 0 0 0 32 47V29a1.5 1.5 0 0 0-1.5-1.5.5.5 0 0 1-.5-.5v-1a.5.5 0 0 1 .5-.5h9a.5.5 0 0 1 .5.5v1a.5.5 0 0 1-.5.5A1.5 1.5 0 0 0 38 29v18a1.5 1.5 0 0 0 1.5 1.5.5.5 0 0 1 .5.5v1a.5.5 0 0 1-.5.5zm-17 0h-9a.5.5 0 0 1-.5-.5v-1a.5.5 0 0 1 .5-.5A1.5 1.5 0 0 0 15 47V29a1.5 1.5 0 0 0-1.5-1.5.5.5 0 0 1-.5-.5v-1a.5.5 0 0 1 .5-.5h9a.5.5 0 0 1 .5.5v1a.5.5 0 0 1-.5.5A1.5 1.5 0 0 0 21 29v18a1.5 1.5 0 0 0 1.5 1.5.5.5 0 0 1 .5.5v1a.5.5 0 0 1-.5.5z" fill="#aab7c4" opacity=".5"/></svg>