<?xml version="1.0" encoding="utf-8"?>
<!-- Generator: Adobe Illustrator 21.0.0, SVG Export Plug-In . SVG Version: 6.00 Build 0)  -->
<svg version="1.1" id="Layer_1" xmlns="http://www.w3.org/2000/svg" xmlns:xlink="http://www.w3.org/1999/xlink" x="0px" y="0px"
	 viewBox="0 0 542 100" style="enable-background:new 0 0 542 100;" xml:space="preserve">
<style type="text/css">
	.st0{fill:#F6F9FC;}
	.st1{opacity:0.1;fill:#E25950;enable-background:new    ;}
	.st2{fill:#E25950;}
	.st3{fill:#FCD669;}
	.st4{fill:#333333;}
	.st5{fill:#24B47E;}
	.st6{fill:#43458B;}
	.st7{fill:#FFFFFF;}
	.st8{fill:#231D4F;}
	.st9{fill:#ED1D24;}
	.st10{fill:#FCE883;}
	.st11{opacity:0.25;fill:#8898AA;enable-background:new    ;}
	.st12{fill:#555ABF;}
	.st13{opacity:0.1;fill:#8898AA;enable-background:new    ;}
	.st14{fill:#F79A59;}
	.st15{opacity:0.2;fill:#8898AA;enable-background:new    ;}
	.st16{fill:#B5562B;}
	.st17{fill:#6772E5;}
	.st18{opacity:0.1;fill:#555ABF;enable-background:new    ;}
	.st19{fill:#F5BE58;}
	.st20{fill:#217AB7;}
	.st21{opacity:0.2;fill:#E25950;enable-background:new    ;}
	.st22{opacity:0.5;fill:#FFFFFF;enable-background:new    ;}
	.st23{fill:#CC0001;}
	.st24{fill:#010066;}
	.st25{fill:#FDCB00;}
	.st26{fill:#FECB00;}
	.st27{fill:#138808;}
	.st28{fill:#FF9933;}
	.st29{fill:none;stroke:#101075;stroke-width:0.5;stroke-miterlimit:10;}
	.st30{fill:none;stroke:#101075;stroke-width:0.25;stroke-miterlimit:10;}
</style>
<path class="st0" d="M12,10h17c1.1,0,2,0.9,2,2v11c0,1.1-0.9,2-2,2H12c-1.1,0-2-0.9-2-2V12C10,10.9,10.9,10,12,10z"/>
<path class="st1" d="M31,21h-1v-7h1V21z M10,21v-7h1v7H10z"/>
<path class="st2" d="M31,12v3H10v-3c0-1.1,0.9-2,2-2h17C30.1,10,31,10.9,31,12z M10,23v-3h21v3c0,1.1-0.9,2-2,2H12
	C10.9,25,10,24.1,10,23z"/>
<path class="st3" d="M92,10h9v15h-9V10z"/>
<path class="st4" d="M88,10h5v15h-5c-1.1,0-2-0.9-2-2V12C86,10.9,86.9,10,88,10z"/>
<path class="st2" d="M105,25h-5V10h5c1.1,0,2,0.9,2,2v11C107,24.1,106.1,25,105,25z"/>
<path class="st5" d="M126,10h17c1.1,0,2,0.9,2,2v11c0,1.1-0.9,2-2,2h-17c-1.1,0-2-0.9-2-2V12C124,10.9,124.9,10,126,10z"/>
<path class="st3" d="M134.5,11.5l9,6l-9,6l-9-6L134.5,11.5z"/>
<path class="st6" d="M134.5,14c1.9,0,3.5,1.6,3.5,3.5s-1.6,3.5-3.5,3.5s-3.5-1.6-3.5-3.5S132.6,14,134.5,14z"/>
<path class="st7" d="M137.7,18.9c-0.2,0.4-0.4,0.8-0.7,1.1c-1.4-1.9-3.5-3-5.9-3.3c0.1-0.4,0.3-0.8,0.5-1.2
	C134,15.9,136.1,17.1,137.7,18.9z"/>
<path class="st2" d="M202,10h17c1.1,0,2,0.9,2,2v11c0,1.1-0.9,2-2,2h-17c-1.1,0-2-0.9-2-2V12C200,10.9,200.9,10,202,10z"/>
<path class="st7" d="M215,19h-3v3h-3v-3h-3v-3h3v-3h3v3h3V19z"/>
<path class="st8" d="M238,15.4h21v4.1h-21V15.4z"/>
<path class="st9" d="M238,23.8V22h21v1.8c0,0.7-0.9,1.2-2,1.2h-17C238.9,25,238,24.5,238,23.8z"/>
<path class="st9" d="M259,11.2V13h-21v-1.8c0-0.7,0.9-1.2,2-1.2h17C258.1,10,259,10.5,259,11.2z"/>
<path class="st2" d="M278,10h17c1.1,0,2,0.9,2,2v11c0,1.1-0.9,2-2,2h-17c-1.1,0-2-0.9-2-2V12C276,10.9,276.9,10,278,10z"/>
<path class="st0" d="M297,19h-12v6h-3v-6h-6v-3h6v-6h3v6h12V19z"/>
<path class="st1" d="M296,20v-5h1v5H296z M281,24h5v1h-5V24z M281,10h5v1h-5V10z M276,15h1v5h-1V15z"/>
<path class="st6" d="M354,10h17c1.1,0,2,0.9,2,2v11c0,1.1-0.9,2-2,2h-17c-1.1,0-2-0.9-2-2V12C352,10.9,352.9,10,354,10z"/>
<path class="st10" d="M367,18.3c-0.5,0-0.8-0.4-0.8-0.8s0.4-0.8,0.8-0.8s0.8,0.4,0.8,0.8S367.5,18.3,367,18.3L367,18.3z M365.1,14.9
	c-0.3-0.3-0.3-0.9,0-1.2c0.3-0.3,0.9-0.3,1.2,0c0,0,0,0,0,0c0.3,0.3,0.3,0.9,0,1.2C366,15.2,365.5,15.2,365.1,14.9z M366.3,20.1
	c0.3,0.3,0.3,0.9-0.1,1.2c-0.3,0.3-0.8,0.3-1.1,0c-0.3-0.3-0.3-0.9,0.1-1.2C365.5,19.8,366,19.8,366.3,20.1z M362.5,22.9
	c-0.5,0-0.8-0.4-0.8-0.8c0-0.5,0.4-0.8,0.8-0.8c0,0,0,0,0,0c0.5,0,0.8,0.4,0.8,0.8C363.3,22.5,363,22.9,362.5,22.9z M362.5,13.8
	c-0.5,0-0.8-0.4-0.8-0.8s0.4-0.8,0.8-0.8l0,0c0.5,0,0.8,0.4,0.8,0.8S363,13.8,362.5,13.8z M358.7,21.3c-0.3-0.3-0.3-0.9,0-1.2
	c0.3-0.3,0.9-0.3,1.2,0c0,0,0,0,0,0c0.3,0.3,0.3,0.9,0,1.2C359.6,21.6,359.1,21.6,358.7,21.3z M358.7,14.9c-0.3-0.3-0.3-0.9,0.1-1.2
	c0.3-0.3,0.8-0.3,1.1,0c0.3,0.3,0.3,0.9-0.1,1.2C359.5,15.2,359,15.2,358.7,14.9z M358.8,17.5c0,0.5-0.4,0.8-0.8,0.8
	c-0.5,0-0.8-0.4-0.8-0.8l0,0c0-0.5,0.4-0.8,0.8-0.8C358.4,16.7,358.8,17,358.8,17.5z"/>
<path class="st0" d="M392,10h17c1.1,0,2,0.9,2,2v11c0,1.1-0.9,2-2,2h-17c-1.1,0-2-0.9-2-2V12C390,10.9,390.9,10,392,10z"/>
<path class="st11" d="M409,25h-17c-1.1,0-2-0.9-2-2V12c0-1.1,0.9-2,2-2h17c1.1,0,2,0.9,2,2v11C411,24.1,410.1,25,409,25z M410,12
	c0-0.6-0.4-1-1-1h-17c-0.6,0-1,0.4-1,1v11c0,0.6,0.4,1,1,1h17c0.6,0,1-0.4,1-1V12z"/>
<path class="st12" d="M411,19h-12v6h-3v-6h-6v-3h6v-6h3v6h12V19z"/>
<path class="st0" d="M434,10h9v15h-9V10z"/>
<path class="st13" d="M434,25v-1h9v1H434z M434,10h9v1h-9V10z"/>
<path class="st12" d="M430,10h5v15h-5c-1.1,0-2-0.9-2-2V12C428,10.9,428.9,10,430,10z"/>
<path class="st2" d="M447,25h-5V10h5c1.1,0,2,0.9,2,2v11C449,24.1,448.1,25,447,25z"/>
<path class="st6" d="M486.9,23.5h-2.4V25h-16v-1.5h-2.4c0-0.2-0.1-0.3-0.1-0.5V12c0-0.2,0-0.3,0.1-0.5h2.4V10h16v1.5h2.4
	c0,0.2,0.1,0.3,0.1,0.5v11C487,23.2,487,23.3,486.9,23.5z"/>
<path class="st0" d="M483.7,10h1.3c1.1,0,2,0.9,2,2v0.5l-3.4,2.5h3.4v5h-3.3l3.3,2.5V23c0,1.1-0.9,2-2,2h-1.3l-4.7-3.6V25h-5v-3.6
	l-4.7,3.6H468c-1.1,0-2-0.9-2-2v-0.5l3.3-2.5H466v-5h3.4l-3.4-2.5V12c0-1.1,0.9-2,2-2h1.3l4.7,3.5V10h5v3.5L483.7,10z"/>
<path class="st2" d="M478,19v6h-3v-6h-9v-3h9v-6h3v6h9v3H478z M478.5,15.5v-0.2l6.9-5.2c0.5,0.1,0.9,0.4,1.1,0.7l-6.3,4.7H478.5z
	 M466.2,11.1c0.2-0.4,0.5-0.7,0.9-0.9l7,5.3H472L466.2,11.1z M474.5,19.5v0.2l-6.9,5.2c-0.5-0.1-0.9-0.4-1.1-0.7l6.3-4.7H474.5z
	 M486.8,23.9c-0.2,0.4-0.5,0.7-0.9,0.9l-7-5.3h2.1L486.8,23.9z M506,10h17c1.1,0,2,0.9,2,2v11c0,1.1-0.9,2-2,2h-17c-1.1,0-2-0.9-2-2
	V12C504,10.9,504.9,10,506,10z"/>
<path class="st7" d="M514.3,17.4c0.2-0.8,0.4-1.4,1.8-1.9c1.4-0.5,2.7,0.9,2.9,1.7c-0.1,0-0.1,0-0.3-0.1c-0.2-0.1-0.3-0.2-0.6,0
	c-0.4,0.3-0.5,0.5-0.9,0.6c-0.5,0.2-0.8,0-1.2-0.3S514.9,16.8,514.3,17.4 M514,17.8c-0.7,0.5-1.1,0.9-2.5,0.5
	c-1.4-0.4-1.7-2.3-1.4-3.1c0.2,0,0.1,0.6,0.6,0.6c0.2,0,0.3,0,0.4,0c0.2,0,0.4,0,0.7,0c0.5,0.1,0.7,0.5,0.8,1
	C512.8,17.4,513.2,17.9,514,17.8 M514.4,17.9c0.3,0.8,0.5,1.3-0.4,2.6c-0.8,1.2-2.7,0.8-3.3,0.3c0-0.2,0.6,0.1,0.8-0.4
	c0.2-0.4,0.1-0.7,0.4-1c0.3-0.4,0.7-0.5,1.2-0.4C513.6,19,514.2,18.8,514.4,17.9 M514.5,17.6c0.9,0,1.4-0.1,2.4,1.1
	c0.9,1.2,0,2.9-0.7,3.3c-0.1-0.1,0.2-0.5-0.1-0.8c-0.4-0.3-0.6-0.3-0.9-0.7c-0.3-0.4-0.3-0.8-0.1-1.3
	C515.3,18.7,515.2,18,514.5,17.6 M514,17.5c-0.7-0.5-1.2-0.8-1.2-2.3s1.7-2.3,2.5-2.2c0.1,0.1-0.5,0.3-0.4,0.7
	c0.1,0.4,0.3,0.6,0.3,1.1c0,0.5-0.3,0.8-0.7,1.1C514,16.2,513.7,16.7,514,17.5"/>
<path class="st0" d="M16,40h9v15h-9V40z"/>
<path class="st13" d="M16,55v-1h9v1H16z M16,40h9v1h-9V40z"/>
<path class="st5" d="M12,40h5v15h-5c-1.1,0-2-0.9-2-2V42C10,40.9,10.9,40,12,40z"/>
<path class="st14" d="M29,55h-5V40h5c1.1,0,2,0.9,2,2v11C31,54.1,30.1,55,29,55z"/>
<path class="st0" d="M54,40h9v15h-9V40z"/>
<path class="st13" d="M54,55v-1h9v1H54z M54,40h9v1h-9V40z"/>
<path class="st5" d="M50,40h5v15h-5c-1.1,0-2-0.9-2-2V42C48,40.9,48.9,40,50,40z"/>
<path class="st2" d="M67,55h-5V40h5c1.1,0,2,0.9,2,2v11C69,54.1,68.1,55,67,55z"/>
<path class="st0" d="M88,40h17c1.1,0,2,0.9,2,2v11c0,1.1-0.9,2-2,2H88c-1.1,0-2-0.9-2-2V42C86,40.9,86.9,40,88,40z"/>
<path class="st15" d="M105,55H88c-1.1,0-2-0.9-2-2V42c0-1.1,0.9-2,2-2h17c1.1,0,2,0.9,2,2v11C107,54.1,106.1,55,105,55z M106,42
	c0-0.6-0.4-1-1-1H88c-0.6,0-1,0.4-1,1v11c0,0.6,0.4,1,1,1h17c0.6,0,1-0.4,1-1V42z"/>
<path class="st2" d="M96.5,44c1.9,0,3.5,1.6,3.5,3.5S98.4,51,96.5,51S93,49.4,93,47.5S94.6,44,96.5,44z"/>
<path class="st0" d="M168,40h9v15h-9V40z"/>
<path class="st13" d="M168,55v-1h9v1H168z M168,40h9v1h-9V40z"/>
<path class="st5" d="M164,40h5v15h-5c-1.1,0-2-0.9-2-2V42C162,40.9,162.9,40,164,40z"/>
<path class="st2" d="M181,55h-5V40h5c1.1,0,2,0.9,2,2v11C183,54.1,182.1,55,181,55z"/>
<path class="st5" d="M170.6,47.5c0,1.1,0.9,1.9,1.9,1.9c1.1,0,1.9-0.9,1.9-1.9h0.9l0,0c0,1.5-1.2,2.8-2.7,2.8
	c-1.5,0-2.8-1.2-2.8-2.7c0,0,0-0.1,0-0.1l0,0H170.6z"/>
<path class="st16" d="M172.5,45.5c0.8,0,1.5,0.7,1.5,1.5c0,0.8-0.7,1.5-1.5,1.5l0,0c-0.8,0-1.5-0.7-1.5-1.5
	C171,46.2,171.7,45.5,172.5,45.5z"/>
<path class="st0" d="M200,44h21v7h-21V44z"/>
<path class="st13" d="M220,51v-7h1v7H220z M200,44h1v7h-1V44z"/>
<path class="st17" d="M200,53v-3h21v3c0,1.1-0.9,2-2,2h-17C200.9,55,200,54.1,200,53z"/>
<path class="st2" d="M221,42v3h-21v-3c0-1.1,0.9-2,2-2h17C220.1,40,221,40.9,221,42z M240,40h17c1.1,0,2,0.9,2,2v11c0,1.1-0.9,2-2,2
	h-17c-1.1,0-2-0.9-2-2V42C238,40.9,238.9,40,240,40z"/>
<path class="st0" d="M259,49h-12v6h-3v-6h-6v-3h6v-6h3v6h12V49z"/>
<path class="st18" d="M258,49v-3h1v3H258z M244,54h3v1h-3V54z M244,40h3v1h-3V40z M238,46h1v3h-1V46z"/>
<path class="st12" d="M259,48h-13v7h-1v-7h-7v-1h7v-7h1v7h13V48z"/>
<path class="st6" d="M278,40h17c1.1,0,2,0.9,2,2v11c0,1.1-0.9,2-2,2h-17c-1.1,0-2-0.9-2-2V42C276,40.9,276.9,40,278,40z"/>
<path class="st0" d="M276,45.7l3.5-2.4l0,0h0l0,0l5.4,3.7h-1.8l-3.7-2.5l-3.5,2.4V45.7z M285,40.1v1.2l-3.5,2.4l0,0l0,0l-4.8-3.3
	c0.3-0.3,0.7-0.4,1.1-0.4l3.6,2.5L285,40.1z"/>
<path class="st2" d="M284.9,47l-3.7-2.5l-3.7,2.5H276v-0.1l5.2-3.6v0h0v0l3.7,2.6L284.9,47L284.9,47z M279.8,43.7L279.8,43.7
	L279.8,43.7L279.8,43.7l-3.6-2.5c0.1-0.3,0.3-0.6,0.6-0.8l3,2.1l3.7-2.5h1.6v0.1C285,40.1,279.8,43.7,279.8,43.7z"/>
<path class="st0" d="M285,44.6h-3.4V47h-2.2v-2.4H276v-2.2h3.4V40h2.2v2.4h3.4V44.6z"/>
<path class="st2" d="M285,44h-4v3h-1v-3h-4v-1h4v-3h1v3h4C285,43,285,44,285,44z"/>
<path class="st0" d="M292.5,46.7c-0.7,0-1.2-0.5-1.3-1.2c0-0.7,0.5-1.2,1.2-1.3c0,0,0,0,0.1,0c0.7,0,1.2,0.6,1.2,1.3
	C293.7,46.2,293.1,46.7,292.5,46.7z M290.5,44.7c-0.7,0-1.2-0.5-1.3-1.2c0-0.7,0.5-1.2,1.2-1.3c0,0,0,0,0.1,0c0.7,0,1.2,0.6,1.2,1.3
	C291.7,44.2,291.1,44.7,290.5,44.7z M289.7,46.5c0,0.7-0.5,1.2-1.2,1.3c-0.7,0-1.2-0.5-1.3-1.2c0,0,0,0,0-0.1c0-0.7,0.6-1.2,1.3-1.2
	C289.2,45.3,289.7,45.9,289.7,46.5z M290.5,50.3c0.7,0,1.2,0.5,1.3,1.2c0,0.7-0.5,1.2-1.2,1.3c0,0,0,0-0.1,0c-0.7,0-1.2-0.6-1.2-1.3
	C289.3,50.8,289.9,50.3,290.5,50.3z"/>
<path class="st2" d="M292.5,46.2c-0.4,0-0.7-0.3-0.7-0.7c0-0.4,0.3-0.7,0.7-0.7s0.7,0.3,0.7,0.7C293.2,45.9,292.9,46.2,292.5,46.2
	L292.5,46.2z M290.5,52.2c-0.4,0-0.7-0.3-0.7-0.7c0-0.4,0.3-0.7,0.7-0.7c0,0,0,0,0,0c0.4,0,0.7,0.3,0.7,0.7
	C291.2,51.9,290.9,52.2,290.5,52.2z M290.5,44.2c-0.4,0-0.7-0.3-0.7-0.7c0-0.4,0.3-0.7,0.7-0.7s0.7,0.3,0.7,0.7
	C291.2,43.9,290.9,44.2,290.5,44.2z M288.5,47.2c-0.4,0-0.7-0.3-0.7-0.7s0.3-0.7,0.7-0.7c0.4,0,0.7,0.3,0.7,0.7
	C289.2,46.9,288.9,47.2,288.5,47.2C288.5,47.2,288.5,47.2,288.5,47.2z"/>
<path class="st0" d="M315.4,40.1l9.6,7.4l-9.6,7.4c-0.8-0.3-1.4-1-1.4-1.9V42C314,41.1,314.6,40.3,315.4,40.1z"/>
<path class="st15" d="M316,41c-0.6,0-1,0.4-1,1v11c0,0.6,0.4,1,1,1h1v1h-1c-1.1,0-2-0.9-2-2V42c0-1.1,0.9-2,2-2h1v1H316z"/>
<path class="st2" d="M333,55h-17c-0.5,0-0.9-0.2-1.3-0.5l10.3-7l-0.7-0.5H335v6C335,54.1,334.1,55,333,55z"/>
<path class="st12" d="M314.7,40.5c0.4-0.3,0.8-0.5,1.3-0.5h17c1.1,0,2,0.9,2,2v5.5h-10L314.7,40.5L314.7,40.5z"/>
<path class="st19" d="M318.5,45c1.4,0,2.5,1.1,2.5,2.5c0,0,0,0,0,0c0,1.4-1.1,2.5-2.5,2.5c-1.4,0-2.5-1.1-2.5-2.5c0,0,0,0,0,0
	C316,46.1,317.1,45,318.5,45z"/>
<path class="st5" d="M360,55h-6c-1.1,0-2-0.9-2-2V42c0-1.1,0.9-2,2-2h6V55z"/>
<path class="st2" d="M371,55h-12V40h12c1.1,0,2,0.9,2,2v11C373,54.1,372.1,55,371,55z"/>
<path class="st3" d="M359,44c2,0,3.5,1.6,3.5,3.5c0,2-1.6,3.5-3.5,3.5c-1.9,0-3.5-1.6-3.5-3.6C355.6,45.5,357.1,44,359,44L359,44z"
	/>
<path class="st2" d="M359,45.3c1.2,0,2.3,0.9,2.3,2.2c0,1.2-0.9,2.3-2.2,2.3c0,0-0.1,0-0.1,0c-1.2,0-2.2-1.1-2.2-2.3
	C356.9,46.3,357.8,45.3,359,45.3z"/>
<path class="st0" d="M358,46h2v2c0,0.6-0.4,1-1,1s-1-0.4-1-1V46z"/>
<path class="st20" d="M392,40h17c1.1,0,2,0.9,2,2v11c0,1.1-0.9,2-2,2h-17c-1.1,0-2-0.9-2-2V42C390,40.9,390.9,40,392,40z"/>
<path class="st3" d="M411,49h-12v6h-3v-6h-6v-3h6v-6h3v6h12V49z"/>
<path class="st0" d="M449,47v6c0,1.1-0.9,2-2,2h-17c-1.1,0-2-0.9-2-2v-6H449z"/>
<path class="st15" d="M447,55h-17c-1.1,0-2-0.9-2-2v-6h1v6c0,0.6,0.4,1,1,1h17c0.6,0,1-0.4,1-1v-6h1v6C449,54.1,448.1,55,447,55z"/>
<path class="st2" d="M428,48v-6c0-1.1,0.9-2,2-2h17c1.1,0,2,0.9,2,2v6H428z"/>
<path class="st0" d="M432.2,44c0,1.3,1.1,2.4,2.4,2.4c-0.5,0.4-1.1,0.6-1.8,0.6c-1.6,0-3-1.3-3-3c0-1.6,1.3-3,3-3c0,0,0,0,0,0
	c0.7,0,1.3,0.2,1.8,0.6C433.3,41.6,432.2,42.7,432.2,44z"/>
<path class="st0" d="M437.9,44.2c-0.3,0-0.6-0.2-0.6-0.6c0-0.3,0.2-0.6,0.6-0.6c0,0,0,0,0,0c0.3,0,0.6,0.3,0.6,0.6
	C438.5,43.9,438.2,44.1,437.9,44.2z M436.4,43c-0.3,0-0.6-0.3-0.6-0.6c0-0.3,0.3-0.6,0.6-0.6s0.6,0.3,0.6,0.6
	C437,42.7,436.8,43,436.4,43z M436.2,45.3c0,0.3-0.3,0.6-0.6,0.6c-0.3,0-0.6-0.3-0.6-0.6c0,0,0,0,0,0c0-0.3,0.3-0.6,0.6-0.6
	C435.9,44.8,436.2,45,436.2,45.3z M435,44.2c-0.3,0-0.6-0.3-0.6-0.6s0.3-0.6,0.6-0.6c0,0,0,0,0,0c0.3,0,0.6,0.3,0.6,0.6
	C435.6,43.9,435.3,44.2,435,44.2z M437.3,44.7c0.3,0,0.6,0.3,0.6,0.6c0,0.3-0.3,0.6-0.6,0.6s-0.6-0.3-0.6-0.6
	C436.8,45,437,44.7,437.3,44.7z"/>
<path class="st2" d="M485,55h-17c-1.1,0-2-0.9-2-2v-7h8v-6h11c1.1,0,2,0.9,2,2v11C487,54.1,486.1,55,485,55z"/>
<path class="st0" d="M466,51h21v1h-21V51z M466,49h21v1h-21V49z M466,47h21v1h-21V47z M474,45h13v1h-13V45z M474,43h13v1h-13V43z
	 M474,41h12.7c0.2,0.3,0.3,0.6,0.3,1h-13V41z M486.7,54h-20.4c-0.2-0.3-0.3-0.6-0.3-1h21C487,53.4,486.9,53.7,486.7,54L486.7,54z"/>
<path class="st21" d="M485,55h-17c-1.1,0-2-0.9-2-2v-7h1v7c0,0.6,0.4,1,1,1h17c0.6,0,1-0.4,1-1V42c0-0.6-0.4-1-1-1h-11v-1h11
	c1.1,0,2,0.9,2,2v11C487,54.1,486.1,55,485,55z"/>
<path class="st6" d="M466,47v-5c0-1.1,0.9-2,2-2h7v7H466z"/>
<path class="st7" d="M473.5,42.2c-0.4,0-0.7-0.3-0.7-0.7c0-0.4,0.3-0.7,0.7-0.7c0,0,0,0,0.1,0c0.4,0,0.7,0.3,0.7,0.7
	C474.2,41.9,473.9,42.2,473.5,42.2z M473.2,43.5c0,0.4-0.3,0.7-0.7,0.7c-0.4,0-0.7-0.3-0.7-0.7s0.3-0.7,0.7-0.7
	C472.9,42.8,473.2,43.1,473.2,43.5z M471.5,42.2c-0.4,0-0.7-0.3-0.7-0.7c0-0.4,0.3-0.7,0.7-0.7c0,0,0,0,0.1,0c0.4,0,0.7,0.3,0.7,0.7
	C472.2,41.9,471.9,42.2,471.5,42.2z M471.2,43.5c0,0.4-0.3,0.7-0.7,0.7c-0.4,0-0.7-0.3-0.7-0.7s0.3-0.7,0.7-0.7
	C470.9,42.8,471.2,43.1,471.2,43.5z M469.5,42.2c-0.4,0-0.7-0.3-0.7-0.7c0-0.4,0.3-0.7,0.7-0.7c0,0,0,0,0.1,0c0.4,0,0.7,0.3,0.7,0.7
	C470.2,41.9,469.9,42.2,469.5,42.2z M469.2,43.5c0,0.4-0.3,0.7-0.7,0.7c-0.4,0-0.7-0.3-0.7-0.7s0.3-0.7,0.7-0.7
	C468.9,42.8,469.2,43.1,469.2,43.5z M467.5,42.2c-0.4,0-0.7-0.3-0.7-0.7c0-0.4,0.3-0.7,0.7-0.7c0,0,0,0,0.1,0c0.4,0,0.7,0.3,0.7,0.7
	C468.2,41.9,467.9,42.2,467.5,42.2z M467.5,44.8c0.4,0,0.7,0.3,0.7,0.7c0,0.4-0.3,0.7-0.7,0.7c0,0,0,0-0.1,0c-0.4,0-0.7-0.3-0.7-0.7
	C466.9,45.1,467.1,44.8,467.5,44.8z M469.5,44.8c0.4,0,0.7,0.3,0.7,0.7c0,0.4-0.3,0.7-0.7,0.7c0,0,0,0-0.1,0c-0.4,0-0.7-0.3-0.7-0.7
	C468.9,45.1,469.1,44.8,469.5,44.8z M471.5,44.8c0.4,0,0.7,0.3,0.7,0.7c0,0.4-0.3,0.7-0.7,0.7c0,0,0,0-0.1,0c-0.4,0-0.7-0.3-0.7-0.7
	C470.9,45.1,471.1,44.8,471.5,44.8z M473.5,44.8c0.4,0,0.7,0.3,0.7,0.7c0,0.4-0.3,0.7-0.7,0.7c0,0,0,0-0.1,0c-0.4,0-0.7-0.3-0.7-0.7
	C472.9,45.1,473.1,44.8,473.5,44.8z"/>
<path class="st22" d="M475,44c-0.1,0.1-0.3,0.2-0.5,0.2c-0.4,0-0.7-0.3-0.7-0.7c0-0.4,0.3-0.7,0.7-0.7c0,0,0.1,0,0.1,0
	c0.2,0,0.4,0.1,0.5,0.2C475,43,475,44,475,44z M466,43c0.3-0.3,0.7-0.3,1-0.1c0.2,0.1,0.2,0.3,0.2,0.5c0,0.4-0.3,0.7-0.7,0.7l0,0
	c-0.2,0-0.4-0.1-0.5-0.2V43z"/>
<path d="M523,55h-11.1l8.7-15h2.4c1.1,0,2,0.9,2,2v11C525,54.1,524.1,55,523,55z M508.4,55H506c-1.1,0-2-0.9-2-2V42c0-1.1,0.9-2,2-2
	h11.1L508.4,55L508.4,55z"/>
<rect x="238" y="11.5" class="st18" width="1" height="5"/>
<rect x="238" y="17.5" class="st18" width="1" height="5"/>
<rect x="258" y="18.5" class="st18" width="1" height="5"/>
<rect x="258" y="12.4" class="st18" width="1" height="5"/>
<g>
	<path class="st8" d="M162,15.4h21v4.1h-21V15.4z"/>
	<path class="st9" d="M162,23.8V22h21v1.8c0,0.7-0.9,1.2-2,1.2h-17C162.9,25,162,24.5,162,23.8z"/>
	<path class="st9" d="M183,11.2V13h-21v-1.8c0-0.7,0.9-1.2,2-1.2h17C182.1,10,183,10.5,183,11.2z"/>
	<rect x="162" y="11.5" class="st18" width="1" height="5"/>
	<rect x="162" y="17.5" class="st18" width="1" height="5"/>
	<rect x="182" y="18.5" class="st18" width="1" height="5"/>
	<rect x="182" y="12.4" class="st18" width="1" height="5"/>
</g>
<g>
	<path class="st23" d="M314,12.1h21v1h-21V12.1z"/>
	<path class="st23" d="M314,14h21v1h-21V14z"/>
	<path class="st23" d="M314,16h21v1h-21V16z"/>
	<path class="st23" d="M314,17.9h21v1h-21V17.9z"/>
	<path class="st23" d="M314,19.8h21v1h-21V19.8z"/>
	<path class="st23" d="M314,21.7h21v1h-21V21.7z"/>
	<path class="st23" d="M314,24.5v-0.8h21v0.8c0,0.3-0.9,0.5-2,0.5h-17C314.9,25,314,24.8,314,24.5z"/>
	<path class="st23" d="M335,10.6v0.7h-21v-0.7c0-0.3,0.9-0.5,2-0.5h17C334.1,10.1,335,10.4,335,10.6z"/>
	<rect x="314" y="11.1" class="st18" width="1" height="6.9"/>
	<rect x="314" y="17.9" class="st18" width="1" height="5.9"/>
	<rect x="334" y="18.6" class="st18" width="1" height="5"/>
	<rect x="334" y="11.1" class="st18" width="1" height="6.9"/>
	<path class="st24" d="M315.2,10.2c0,0-1.2,0-1.2,0.5s0,5.3,0,5.3h9.9v-5.8L315.2,10.2z"/>
	<path class="st25" d="M321.6,13.5c-0.2,0-0.4,0-0.7,0c0.1,0.2,0.3,0.3,0.4,0.5c-0.2-0.1-0.4-0.2-0.6-0.3c0.1,0.2,0.1,0.4,0.2,0.6
		c0,0,0,0,0,0c-0.1-0.2-0.3-0.3-0.4-0.5c0,0.2-0.1,0.5-0.1,0.7c-0.1-0.2-0.1-0.4-0.2-0.7c-0.1,0.2-0.3,0.3-0.4,0.5c0,0,0,0,0,0
		c0.1-0.2,0.1-0.4,0.2-0.6c-0.2,0.1-0.4,0.2-0.6,0.3c0,0,0,0,0,0c0.1-0.2,0.3-0.3,0.5-0.5c-0.3,0-0.5,0-0.7,0c0,0,0,0,0,0
		c0.2-0.1,0.4-0.2,0.6-0.3c-0.2-0.1-0.4-0.2-0.7-0.3c0.3,0,0.5,0,0.7,0c-0.1-0.2-0.3-0.3-0.4-0.5c0.2,0,0.4,0.2,0.6,0.3
		c0-0.2-0.1-0.4-0.1-0.7c0.2,0.2,0.3,0.4,0.4,0.6c0.1-0.3,0.1-0.5,0.1-0.7c0,0,0,0,0,0c0,0.2,0.1,0.4,0.1,0.7
		c0.1-0.2,0.3-0.3,0.4-0.5c0,0.3-0.1,0.4-0.1,0.7c0.1-0.1,0.2-0.1,0.3-0.2c0,0,0.1-0.1,0.1,0c0.1,0.1,0,0.1,0,0.1
		c-0.1,0.1-0.1,0.2-0.2,0.3c0.3,0,0.5,0,0.7,0c0,0,0,0,0,0c-0.2,0.1-0.4,0.2-0.6,0.3C321.2,13.3,321.4,13.4,321.6,13.5
		C321.6,13.5,321.6,13.5,321.6,13.5z"/>
	<path class="st26" d="M318.7,11.8c-1,0.2-1.5,1.3-1,2.1c0.3,0.6,0.9,0.9,1.5,0.8c0,0,0.1,0,0.2,0c-0.5,0.4-1.4,0.3-1.9-0.3
		c-0.6-0.6-0.7-1.5-0.2-2.1c0.5-0.7,1.3-0.9,2.1-0.6c0,0.1-0.1,0-0.2,0.1C319,11.8,318.9,11.7,318.7,11.8z"/>
</g>
<g>
	<path class="st0" d="M48,14h21v7H48V14z"/>
	<path class="st13" d="M68,21v-7h1v7H68z M48,14h1v7h-1V14z"/>
	<path class="st27" d="M48,23v-3h21v3c0,1.1-0.9,2-2,2H50C48.9,25,48,24.1,48,23z"/>
	<path class="st28" d="M69,12v3H48v-3c0-1.1,0.9-2,2-2h17C68.1,10,69,10.9,69,12z"/>
	<circle class="st29" cx="58.2" cy="17.5" r="2.2"/>
	<line class="st30" x1="56.8" y1="15.9" x2="59.7" y2="18.8"/>
	<line class="st30" x1="59.6" y1="16" x2="56.7" y2="19"/>
	<line class="st30" x1="58.3" y1="15.2" x2="58.3" y2="19.7"/>
	<line class="st30" x1="56.2" y1="17.3" x2="60.2" y2="17.3"/>
	<line class="st30" x1="57.5" y1="19.4" x2="59" y2="15.6"/>
	<line class="st30" x1="56.4" y1="16.5" x2="60.3" y2="18.3"/>
	<line class="st30" x1="56.2" y1="18.3" x2="60.2" y2="16.6"/>
	<line class="st30" x1="57.4" y1="15.2" x2="59.1" y2="19.5"/>
</g>
<polygon class="st2" points="131.7,51 131.7,49 130.3,49 130.5,48.2 128.6,47.9 129.3,46.7 128.7,45.1 130.3,45.7 130.8,43.9 
	131.5,44.3 132.1,43 132.9,44.3 133.5,44 133.8,45.7 135.6,45.2 135,46.6 135.6,47.9 133.9,48.2 134,49 132.6,49 132.6,51 131.7,51 
	"/>
<path class="st2" d="M127.6,55h-4c-1.1,0-2-0.9-2-2V42c0-1.1,0.9-2,2-2h4V55z"/>
<path class="st2" d="M140.6,55h-4V40h4c1.1,0,2,0.9,2,2v11C142.6,54.1,141.7,55,140.6,55z"/>
</svg>
