<?xml version="1.0" encoding="utf-8"?>
<!-- Generator: Adobe Illustrator 21.0.0, SVG Export Plug-In . SVG Version: 6.00 Build 0)  -->
<svg version="1.1" id="Layer_1" xmlns="http://www.w3.org/2000/svg" xmlns:xlink="http://www.w3.org/1999/xlink" x="0px" y="0px"
	 viewBox="0 0 21 15" style="enable-background:new 0 0 21 15;" xml:space="preserve">
<style type="text/css">
	.st0{fill:#F6F9FC;}
	.st1{opacity:0.1;fill:#8898AA;enable-background:new    ;}
	.st2{fill:#138808;}
	.st3{fill:#FF9933;}
	.st4{fill:none;stroke:#101075;stroke-width:0.5;stroke-miterlimit:10;}
	.st5{fill:none;stroke:#101075;stroke-width:0.25;stroke-miterlimit:10;}
</style>
<path class="st0" d="M0,4h21v7H0V4z"/>
<path class="st1" d="M20,11V4h1v7H20z M0,4h1v7H0V4z"/>
<path class="st2" d="M0,13v-3h21v3c0,1.1-0.9,2-2,2H2C0.9,15,0,14.1,0,13z"/>
<path class="st3" d="M21,2v3H0V2c0-1.1,0.9-2,2-2h17C20.1,0,21,0.9,21,2z"/>
<circle class="st4" cx="10.2" cy="7.5" r="2.2"/>
<line class="st5" x1="8.8" y1="5.9" x2="11.7" y2="8.8"/>
<line class="st5" x1="11.6" y1="6.1" x2="8.7" y2="9"/>
<line class="st5" x1="10.3" y1="5.3" x2="10.3" y2="9.7"/>
<line class="st5" x1="8.2" y1="7.4" x2="12.2" y2="7.4"/>
<line class="st5" x1="9.5" y1="9.4" x2="11" y2="5.6"/>
<line class="st5" x1="8.4" y1="6.5" x2="12.3" y2="8.3"/>
<line class="st5" x1="8.2" y1="8.3" x2="12.2" y2="6.6"/>
<line class="st5" x1="9.4" y1="5.3" x2="11.1" y2="9.5"/>
</svg>
