<?xml version="1.0" encoding="utf-8"?>
<!-- Generator: Adobe Illustrator 21.0.0, SVG Export Plug-In . SVG Version: 6.00 Build 0)  -->
<svg version="1.1" id="Layer_1" xmlns="http://www.w3.org/2000/svg" xmlns:xlink="http://www.w3.org/1999/xlink" x="0px" y="0px"
	 viewBox="0 0 21 15" style="enable-background:new 0 0 21 15;" xml:space="preserve">
<style type="text/css">
	.st0{fill:#CC0001;}
	.st1{opacity:0.1;fill:#555ABF;enable-background:new    ;}
	.st2{fill:#010066;}
	.st3{fill:#FDCB00;}
	.st4{fill:#FECB00;}
</style>
<g>
	<path class="st0" d="M0,2.1h21v1H0V2.1z"/>
	<path class="st0" d="M0,3.9h21v1H0V3.9z"/>
	<path class="st0" d="M0,5.9h21v1H0V5.9z"/>
	<path class="st0" d="M0,7.9h21v1H0V7.9z"/>
	<path class="st0" d="M0,9.7h21v1H0V9.7z"/>
	<path class="st0" d="M0,11.6h21v1H0V11.6z"/>
	<path class="st0" d="M0,14.4v-0.8h21v0.8c0,0.3-0.9,0.5-2,0.5H2C0.9,14.9,0,14.7,0,14.4z"/>
	<path class="st0" d="M21,0.6v0.7H0V0.6c0-0.3,0.9-0.5,2-0.5h17C20.1,0.1,21,0.3,21,0.6z"/>
	<rect x="0" y="1.1" class="st1" width="1" height="6.9"/>
	<rect x="0" y="7.9" class="st1" width="1" height="5.9"/>
	<rect x="20" y="8.6" class="st1" width="1" height="5"/>
	<rect x="20" y="1.1" class="st1" width="1" height="6.9"/>
	<path class="st2" d="M1.2,0.1c0,0-1.2,0-1.2,0.5s0,5.3,0,5.3h9.9V0.1L1.2,0.1z"/>
	<path class="st3" d="M7.6,3.5c-0.2,0-0.4,0-0.7,0C7.1,3.6,7.2,3.8,7.4,4C7.1,3.9,7,3.8,6.7,3.7c0.1,0.2,0.1,0.4,0.2,0.6
		c0,0,0,0,0,0C6.7,4.2,6.6,4,6.5,3.8c0,0.2-0.1,0.5-0.1,0.7C6.2,4.3,6.2,4.1,6.1,3.8C6,4,5.9,4.1,5.8,4.3c0,0,0,0,0,0
		c0.1-0.2,0.1-0.4,0.2-0.6C5.7,3.8,5.5,3.9,5.3,4c0,0,0,0,0,0c0.1-0.2,0.3-0.3,0.5-0.5c-0.3,0-0.5,0-0.7,0c0,0,0,0,0,0
		c0.2-0.1,0.4-0.2,0.6-0.3C5.4,3.1,5.2,3,4.9,2.9c0.3,0,0.5,0,0.7,0C5.5,2.7,5.4,2.5,5.2,2.3c0.2,0,0.4,0.2,0.6,0.3
		c0-0.2-0.1-0.4-0.1-0.7C5.9,2.2,6,2.3,6.2,2.5C6.2,2.3,6.2,2,6.3,1.8c0,0,0,0,0,0c0,0.2,0.1,0.4,0.1,0.7C6.6,2.3,6.7,2.2,6.9,2
		c0,0.3-0.1,0.4-0.1,0.7C6.9,2.6,7,2.5,7.1,2.5c0,0,0.1-0.1,0.1,0c0.1,0.1,0,0.1,0,0.1C7.1,2.7,7,2.8,6.9,2.9c0.3,0,0.5,0,0.7,0
		c0,0,0,0,0,0C7.4,3,7.2,3.1,7,3.2C7.2,3.3,7.4,3.3,7.6,3.5C7.6,3.5,7.6,3.5,7.6,3.5z"/>
	<path class="st4" d="M4.7,1.7c-1,0.2-1.5,1.3-1,2.1C4,4.4,4.6,4.7,5.2,4.6c0,0,0.1,0,0.2,0C4.8,5,4,4.9,3.4,4.4
		C2.8,3.8,2.7,2.9,3.2,2.2c0.5-0.7,1.3-0.9,2.1-0.6c0,0.1-0.1,0-0.2,0.1C5,1.7,4.9,1.7,4.7,1.7z"/>
</g>
</svg>
