<?xml version="1.0" encoding="utf-8"?>
<!-- Generator: Adobe Illustrator 21.0.0, SVG Export Plug-In . SVG Version: 6.00 Build 0)  -->
<svg version="1.1" id="Layer_1" xmlns="http://www.w3.org/2000/svg" xmlns:xlink="http://www.w3.org/1999/xlink" x="0px" y="0px"
	 viewBox="0 0 1280 1024" style="enable-background:new 0 0 1280 1024;" xml:space="preserve">
<style type="text/css">
	.st0{fill:#F182A9;}
</style>
<g id="XMLID_6_">
	<path id="XMLID_10_" class="st0" d="M775.6,583.6c0.1-0.7,0.3-1.5,0.4-2.2c0.7-4.1,1-8.3,1-12.6v-0.6c0-2.3-0.1-4.6-0.3-6.9
		c-4.1-27.3-27.6-48.3-56.1-48.3c-16,0-30.5,6.7-40.8,17.4c4.6-1.9,9.9-3,15.8-3c23.5,0,39.5,19.3,39.5,41.4v0.6
		c0,22.1-14.6,40.9-38.9,40.9c-7.5,0-14.3-2-20-5.4c-5.7-3.4-10.4-8.3-13.7-14.1c-3.6-7.7-5.6-16.3-5.6-25.4c0-0.5,0-1,0-1.5
		c0.1-2.7,0.3-5.3,0.7-7.9h0c0,0-18.2,88.2,84,77.9l0,0C759.2,622.3,771.6,604.4,775.6,583.6z"/>
	<path id="XMLID_9_" class="st0" d="M725.7,629.6c-24.1,0-41.7-6.6-52.4-19.8c-0.6-0.7-1.1-1.4-1.6-2.1c0.6,0.4,1.2,0.8,1.8,1.2
		c6.8,4.1,12,6.1,20.2,6.1c25.4,0,41.5-19.2,41.5-45.8v-0.6c0-24.8-15.4-44.4-38.6-46.2c6.7-3.1,15.2-4.7,22.8-4.7
		c12.5,0,25.2,4.5,34.6,12.7c9.3,8.1,15.9,19.2,17.7,31.3c0.2,2.3,0.7,4.3,0.7,6.3v0.6c0,3.9-0.5,7.9-1.1,11.8
		c-0.1,0.7-0.3,1.3-0.5,2.1c-1.9,9.7-5.6,18.6-11.2,26.7c-5.3,7.7-11.9,14.3-19.8,19.5C735,629.4,730.2,629.6,725.7,629.6z"/>
	<path id="XMLID_8_" class="st0" d="M659.1,554.8c4.5-29,29.6-51.3,59.9-51.3c0.7,0,1.3,0,1.9,0.1c19.9,0.6,37.3,10.8,47.9,26.1
		c-13.4-23.9-39.5-40-71.2-40c-26.3,0-48.8,11.1-63.5,28.5c-11.4,13.5-18,30.8-18,49.6v0.6c0,43.1,34.4,77.5,80.9,77.5
		c17.4,0,33.1-4.9,46-13.2l0,0C640.8,642.9,659,554.8,659.1,554.8L659.1,554.8z"/>
	<path id="XMLID_7_" class="st0" d="M695.5,642c-21,0-40.7-7.5-54.8-21.2C626.9,607.2,619,589,619,569.3v-0.6
		c0-8.7,1.8-17.1,4.7-25.1c2.9-7.8,7.2-15,12.6-21.3c7-8.3,15.7-14.8,25.7-19.5c10.5-4.8,22-7.3,34.1-7.3c9.3,0,18.4,1.5,26.8,4.4
		c-1.1-0.1-2.2-0.1-3.3-0.2c-0.2,0-0.4,0-0.6,0c-0.5,0-1,0-1.5,0c-32.4,0-59.5,23.1-64.7,55l0,0.2c-0.1,0.4-1.9,9.2-1.2,21.1
		c0.9,15.9,5.8,29.8,14.2,40.1c11.3,13.9,28.6,21.6,51.5,23.1C710.3,641,703,642,695.5,642z"/>
</g>
</svg>
