<svg xmlns="http://www.w3.org/2000/svg" width="24px" height="9px">
  <g id="Home-(v2)" fill="none" fill-rule="evenodd">
    <g id="Artboard-2" fill="#D7912F">
      <path id="Quotes" d="M12 7.6c1.57-.79 2.35-1.7 2.35-2.76a2.59 2.59 0 0 1-1.66-.83 2.36 2.36 0 0 1-.65-1.65c0-.66.21-1.22.64-1.68a2.1 2.1 0 0 1 1.6-.68c.72 0 1.34.3 1.87.89.53.59.79 1.31.79 2.16 0 2.53-1.4 4.52-4.2 5.95L12 7.6zm7.06 0c1.58-.79 2.37-1.7 2.37-2.76a2.6 2.6 0 0 1-1.67-.83 2.36 2.36 0 0 1-.66-1.65c0-.66.22-1.22.65-1.68.43-.45.96-.68 1.6-.68.73 0 1.35.3 1.87.89.52.59.78 1.31.78 2.16 0 2.53-1.4 4.52-4.19 5.95l-.75-1.4zM12 1.4c-1.57.79-2.35 1.7-2.35 2.76.67.08 1.22.35 1.66.83.43.47.65 1.02.65 1.65 0 .66-.21 1.22-.64 1.68a2.1 2.1 0 0 1-1.6.68C9 9 8.38 8.7 7.85 8.11c-.53-.59-.79-1.31-.79-2.16 0-2.53 1.4-4.52 4.2-5.95L12 1.4zm-7.06 0c-1.58.79-2.37 1.7-2.37 2.76a2.6 2.6 0 0 1 1.67.83c.44.47.66 1.02.66 1.65 0 .66-.22 1.22-.65 1.68-.43.45-.96.68-1.6.68a2.4 2.4 0 0 1-1.87-.89A3.15 3.15 0 0 1 0 5.95C0 3.42 1.4 1.43 4.19 0l.75 1.4z"/>
    </g>
  </g>
</svg>
