<svg xmlns="http://www.w3.org/2000/svg" width="80px" height="80px">
  <g id="Home-(v2)" fill="none" fill-rule="evenodd">
    <g id="Artboard-2">
      <path id="Shape" fill="#E5A03E" d="M23 34a3 3 0 0 1 3-3h32a3 3 0 0 1 3 3v19a3 3 0 0 1-3 3H26a3 3 0 0 1-3-3V34zm0 3v4h38v-4H23z" transform="rotate(8 42 43.5)"/>
      <rect id="Shape" width="38" height="25" x="17" y="25" fill="#FDD760" rx="3"/>
      <path id="Shape" fill="#E5A03E" d="M45 43a1 1 0 0 1 1-1h4a1 1 0 0 1 0 2h-4a1 1 0 0 1-1-1zm-8 0a1 1 0 0 1 1-1h4a1 1 0 0 1 0 2h-4a1 1 0 0 1-1-1zm-8 0a1 1 0 0 1 1-1h4a1 1 0 0 1 0 2h-4a1 1 0 0 1-1-1zm-8 0a1 1 0 0 1 1-1h4a1 1 0 0 1 0 2h-4a1 1 0 0 1-1-1zm0-13a1 1 0 0 1 1-1h5a1 1 0 0 1 1 1v5a1 1 0 0 1-1 1h-5a1 1 0 0 1-1-1v-5z"/>
    </g>
  </g>
</svg>
