<?xml version="1.0" encoding="utf-8"?>
<!-- Generator: Adobe Illustrator 21.0.0, SVG Export Plug-In . SVG Version: 6.00 Build 0)  -->
<svg version="1.1" id="Layer_1" xmlns="http://www.w3.org/2000/svg" xmlns:xlink="http://www.w3.org/1999/xlink" x="0px" y="0px"
	 viewBox="0 0 80 80" style="enable-background:new 0 0 80 80;" xml:space="preserve">
<style type="text/css">
	.st0{fill:#E5A03E;}
	.st1{fill:#FCD669;}
	.st2{fill:#E0AC38;}
	.st3{fill:#FFFFFF;}
	.st4{fill:#E1EFFA;}
	.st5{fill:#F6C358;}
	.st6{fill:#FCD462;}
	.st7{fill:#DB9037;}
	.st8{fill:#F7F7F7;}
</style>
<g id="Home-_x28_v2_x29_">
	<g id="Artboard-2">
		<path id="Shape" class="st0" d="M-8.5-78.1v13c0,1.1,0.7,1.4,1.5,0.7l35.5-30.7L-8.5-78.1z"/>
		<path id="Shape_1_" class="st1" d="M28.5-95.1L9.6-64.8c-0.5,0.8-1.5,1.1-2.3,0.6c-0.1-0.1-0.2-0.1-0.3-0.2l-11.5-9.7L28.5-95.1z
			 M28.5-95.1l-37,18l-12.2-6.1c-1-0.5-0.9-1.1,0.2-1.3L28.5-95.1z"/>
	</g>
</g>
<g>
	<polygon class="st2" points="61.8,32.5 50.1,32.5 50.1,46 20.9,46 20.9,50.4 65.9,50.4 65.9,40.8 	"/>
	<polygon class="st3" points="60.7,34.3 54,34.3 54,41.1 64,41.1 	"/>
	<polygon class="st4" points="54,34.3 54,41.1 64,41.1 	"/>
	<rect x="20.9" y="25.5" class="st5" width="29.2" height="20.6"/>
	<rect x="20.9" y="25.5" class="st6" width="29.2" height="10.3"/>
	<g>
		<polygon class="st3" points="39.5,39.2 36.5,37.3 36.5,38.1 20.9,38.1 20.9,40.4 36.5,40.4 36.5,41.1 		"/>
		<polygon class="st3" points="39.5,32.3 36.5,30.4 36.5,31.1 20.9,31.1 20.9,33.4 36.5,33.4 36.5,34.2 		"/>
	</g>
	<path class="st0" d="M35.6,51.1c0-0.3,0.1-0.5,0.1-0.8c0-3.1-2.5-5.7-5.7-5.7c-3.1,0-5.7,2.5-5.7,5.7c0,0.3,0,0.5,0.1,0.8H35.6z"/>
	<circle class="st7" cx="30" cy="50.4" r="4.3"/>
	<path class="st8" d="M32.1,50.4c0,1.2-1,2.1-2.1,2.1c-1.2,0-2.1-0.9-2.1-2.1c0-1.2,0.9-2.1,2.1-2.1C31.2,48.3,32.1,49.2,32.1,50.4z
		"/>
	<path class="st0" d="M63.6,51.1c0-0.3,0.1-0.5,0.1-0.8c0-3.1-2.5-5.7-5.7-5.7c-3.1,0-5.7,2.5-5.7,5.7c0,0.3,0,0.5,0.1,0.8H63.6z"/>
	<circle class="st7" cx="58" cy="50.4" r="4.3"/>
	<circle class="st8" cx="58" cy="50.4" r="2.1"/>
	<g>
		<rect x="20.4" y="47.1" class="st0" width="1.1" height="2.1"/>
		<rect x="65.4" y="47.1" class="st0" width="1.1" height="2.1"/>
	</g>
	<rect x="65.7" y="42.3" class="st3" width="0.5" height="3.7"/>
	<g>
		<rect x="54" y="42.2" class="st5" width="2.2" height="0.6"/>
		<rect x="14.6" y="31.9" class="st5" width="5.4" height="0.8"/>
		<rect x="9.2" y="38.8" class="st5" width="10.7" height="0.8"/>
	</g>
</g>
</svg>
