<?xml version="1.0" encoding="utf-8"?>
<!-- Generator: Adobe Illustrator 21.0.0, SVG Export Plug-In . SVG Version: 6.00 Build 0)  -->
<svg version="1.1" id="Layer_1" xmlns="http://www.w3.org/2000/svg" xmlns:xlink="http://www.w3.org/1999/xlink" x="0px" y="0px"
	 viewBox="0 0 80 80" style="enable-background:new 0 0 80 80;" xml:space="preserve">
<style type="text/css">
	.st0{fill:#FCD669;}
	.st1{fill:#E5A03E;}
</style>
<rect x="20.7" y="24.7" class="st0" width="38.6" height="27.3"/>
<path class="st1" d="M19.1,22.3h41.8c0,0,2.8,0.6,0,1.6H19.1C19.1,23.9,16,23.2,19.1,22.3z"/>
<g id="Home-_x28_v2_x29_">
	<g id="Artboard-2">
		<path id="Shape" class="st1" d="M133.8,1.4v13c0,1.1,0.7,1.4,1.5,0.7l35.5-30.7L133.8,1.4z"/>
		<path id="Shape_1_" class="st0" d="M170.8-15.6l-18.9,30.3c-0.5,0.8-1.5,1.1-2.3,0.6c-0.1-0.1-0.2-0.1-0.3-0.2l-11.5-9.7
			L170.8-15.6z M170.8-15.6l-37,18l-12.2-6.1c-1-0.5-0.9-1.1,0.2-1.3L170.8-15.6z"/>
	</g>
</g>
<path class="st0" d="M60.9,21.5H40.4v-1.7c0.7-0.2,1.2-0.8,1.2-1.6c0-0.9-0.7-1.6-1.6-1.6s-1.6,0.7-1.6,1.6c0,0.7,0.5,1.4,1.2,1.6
	v1.7H19.1c-0.9,0-1.6,0.7-1.6,1.6c0,0.9,0.7,1.6,1.6,1.6h0.8v27.7c0,0.2,0.2,0.4,0.4,0.4h9.9l-2.3,10c0,0.1,0,0.2,0.1,0.3
	c0.1,0.1,0.2,0.2,0.3,0.2h3.2c0.2,0,0.3-0.1,0.4-0.3l0.9-3.7h14.4L48,63c0,0.2,0.2,0.3,0.4,0.3h3.2c0.1,0,0.2-0.1,0.3-0.2
	c0.1-0.1,0.1-0.2,0.1-0.3l-2.3-10h9.9c0.2,0,0.4-0.2,0.4-0.4V24.7h0.8c0.9,0,1.6-0.7,1.6-1.6C62.5,22.2,61.8,21.5,60.9,21.5z
	 M39.2,18.3c0-0.4,0.4-0.8,0.8-0.8s0.8,0.4,0.8,0.8s-0.4,0.8-0.8,0.8S39.2,18.7,39.2,18.3z M31.2,62.5h-2.4l2.2-9.6h2.4L31.2,62.5z
	 M45.7,52.9l0.7,3.2H33.5l0.7-3.2H45.7z M33,58.5l0.4-1.6h13.3l0.4,1.6H33z M51.2,62.5h-2.4l-2.2-9.6h2.4L51.2,62.5z M59.3,52.1h-10
	H46H34h-3.2h-10V24.7h38.6V52.1z M60.9,23.9h-1.2H20.3h-1.2c-0.4,0-0.8-0.4-0.8-0.8s0.4-0.8,0.8-0.8h41.8c0.4,0,0.8,0.4,0.8,0.8
	S61.3,23.9,60.9,23.9z"/>
<path class="st1" d="M24.3,50.5h4.8c1,0,1.8-0.7,2-1.6h6.7l2.3,2.3c0.1,0.1,0.2,0.1,0.3,0.1c0.1,0,0.2,0,0.3-0.1l2.3-2.3h5.9
	c0.2,0.9,1,1.6,2,1.6h4.8c1.1,0,2-0.9,2-2c0-1.1-0.9-2-2-2h-4.8c-1,0-1.8,0.7-2,1.6H43l-2.2-2.2l0-4.3h1.6v1.2
	c0,0.2,0.2,0.4,0.4,0.4h6.4c0.2,0,0.4-0.2,0.4-0.4v-3.2c0-0.2-0.2-0.4-0.4-0.4h-2.8v-2.4H50c0.2,0,0.4-0.2,0.4-0.4v-3.2
	c0-0.2-0.2-0.4-0.4-0.4h-3.6v-1.2c0-0.2-0.2-0.4-0.4-0.4h-5.6v-0.8h3.2c1.1,0,2-0.9,2-2c0-1.1-0.9-2-2-2h-7.2c-1.1,0-2,0.9-2,2
	c0,1.1,0.9,2,2,2h3.2v0.8H34c-0.2,0-0.4,0.2-0.4,0.4v1.2H30c-0.2,0-0.4,0.2-0.4,0.4v1.2h-2.8c-0.2,0-0.4,0.2-0.4,0.4v3.8L24,40.9
	c-0.2,0.2-0.2,0.4,0,0.6l2.3,2.3v2.6h-2c-1.1,0-2,0.9-2,2C22.3,49.5,23.2,50.5,24.3,50.5z M35.2,28.3c0-0.7,0.5-1.2,1.2-1.2h7.2
	c0.7,0,1.2,0.5,1.2,1.2c0,0.7-0.5,1.2-1.2,1.2h-7.2C35.7,29.5,35.2,29,35.2,28.3z M50.8,47.2h4.8c0.7,0,1.2,0.5,1.2,1.2
	c0,0.7-0.5,1.2-1.2,1.2h-4.8c-0.7,0-1.2-0.5-1.2-1.2C49.6,47.8,50.2,47.2,50.8,47.2z M40.4,50.3l-1.8-1.8l1.8-1.8l1.8,1.8L40.4,50.3
	z M48.8,42.4h-5.6V40h5.6V42.4z M49.6,36h-7.2v-2.4h7.2V36z M30.4,33.6h7.2V36h-7.2V33.6z M29.5,35.2v1.2c0,0.2,0.2,0.4,0.4,0.4h8
	c0.2,0,0.4-0.2,0.4-0.4v-3.2c0-0.2-0.2-0.4-0.4-0.4h-3.6V32h11.3v0.8H42c-0.2,0-0.4,0.2-0.4,0.4v3.2c0,0.2,0.2,0.4,0.4,0.4h3.6v2.4
	h-2.8c-0.2,0-0.4,0.2-0.4,0.4v1.2h-2h-2v-1.2c0-0.2-0.2-0.4-0.4-0.4h-6.4c-0.2,0-0.4,0.2-0.4,0.4v1.2h-1.9l-2.2-2.2v-3.5H29.5z
	 M32,40h5.6v2.4H32V40z M26.7,39.4l1.8,1.8l-1.8,1.8l-1.8-1.8L26.7,39.4z M27.1,43.8l2.2-2.2h1.9v1.2c0,0.2,0.2,0.4,0.4,0.4H38
	c0.2,0,0.4-0.2,0.4-0.4v-1.2H40l0,4.2L37.8,48h-6.7c-0.2-0.9-1-1.6-2-1.6h-2V43.8z M24.3,47.2h4.8c0.7,0,1.2,0.5,1.2,1.2
	c0,0,0,0,0,0c0,0,0,0,0,0c0,0.7-0.5,1.2-1.2,1.2h-4.8c-0.7,0-1.2-0.5-1.2-1.2C23.1,47.8,23.7,47.2,24.3,47.2z"/>
</svg>
