<?xml version="1.0" encoding="utf-8"?>
<!-- Generator: Adobe Illustrator 21.0.0, SVG Export Plug-In . SVG Version: 6.00 Build 0)  -->
<svg version="1.1" id="Layer_1" xmlns="http://www.w3.org/2000/svg" xmlns:xlink="http://www.w3.org/1999/xlink" x="0px" y="0px"
	 viewBox="0 0 80 80" style="enable-background:new 0 0 80 80;" xml:space="preserve">
<style type="text/css">
	.st0{fill:#E5A03E;}
	.st1{fill:#FCD669;}
	.st2{fill:#F6C358;}
	.st3{fill:#FCD462;}
	.st4{fill:#FFFFFF;}
	.st5{fill:#EDBD43;}
</style>
<g id="Home-_x28_v2_x29_">
	<g id="Artboard-2">
		<path id="Shape" class="st0" d="M133.8,1.4v13c0,1.1,0.7,1.4,1.5,0.7l35.5-30.7L133.8,1.4z"/>
		<path id="Shape_1_" class="st1" d="M170.8-15.6l-18.9,30.3c-0.5,0.8-1.5,1.1-2.3,0.6c-0.1-0.1-0.2-0.1-0.3-0.2l-11.5-9.7
			L170.8-15.6z M170.8-15.6l-37,18l-12.2-6.1c-1-0.5-0.9-1.1,0.2-1.3L170.8-15.6z"/>
	</g>
</g>
<path class="st2" d="M54.7,47.6l-18-18l-1.9-0.5c-0.4-0.1-0.7-0.3-1-0.6l-1.6-1.6l-11.3,11l3.1,5.9c0.1,0.2,0.2,0.4,0.4,0.5
	l14.4,14.4l0,0l1.2,1.2c0.9,0.9,2.4,1,3.4,0.1c0.9-0.8,1-2,0.5-3l0.2,0.2c0.9,0.9,2.4,1,3.4,0.2c1-0.9,1.1-2.3,0.3-3.3l0.2,0.2
	c0.9,0.9,2.4,1,3.3,0.2c1-0.8,1.1-2.3,0.4-3.3c1,0.8,2.4,0.6,3.3-0.4C55.8,49.9,55.6,48.5,54.7,47.6z"/>
<path class="st3" d="M47.2,27.1L46,28.3c-0.4,0.4-1,0.6-1.5,0.6h-6c-0.6,0-1.1,0.2-1.5,0.6l-5.8,5.8c-1.1,1.1-1.2,2.9-0.2,4
	c1.1,1.3,3.1,1.3,4.2,0.1l4-4c2.6,2.6,5.7,2.1,5.7,2.1l8.4,8.4l5.7-7.2L47.2,27.1z"/>
<path class="st4" d="M31.7,36.1c-0.8,0.8-0.8,2,0,2.8c0.4,0.4,0.9,0.6,1.4,0.6c0.5,0,1-0.2,1.4-0.6l1.6-1.6l-2.8-2.8L31.7,36.1z"/>
<g>
	<path class="st3" d="M29.1,43.9c-0.8-0.8-2.1-0.8-3,0l-1.9,1.9c-0.8,0.8-0.8,2.1,0,3l0,0c0.8,0.8,2.1,0.8,3,0l1.9-1.9
		C29.9,46,29.9,44.7,29.1,43.9z"/>
	<path class="st3" d="M36.4,50.7c-0.8-0.8-2.1-0.8-3,0l-3,3c-0.8,0.8-0.8,2.1,0,3l0,0c0.8,0.8,2.1,0.8,3,0l3-3
		C37.3,52.9,37.3,51.6,36.4,50.7z"/>
	<path class="st3" d="M33.2,46.7c-0.8-0.8-2.1-0.8-3,0l-3.8,3.8c-0.8,0.8-0.8,2.1,0,3l0,0c0.8,0.8,2.1,0.8,3,0l3.8-3.8
		C34,48.9,34,47.6,33.2,46.7z"/>
	<path class="st3" d="M39.3,55c-0.8-0.8-2.1-0.8-3,0l-1.9,1.9c-0.8,0.8-0.8,2.1,0,3l0,0c0.8,0.8,2.1,0.8,3,0l1.9-1.9
		C40.1,57.2,40.1,55.8,39.3,55z"/>
</g>
<g>
	<path class="st4" d="M28.4,46.2c0.2-0.2,0.3-0.5,0.3-0.8c0-0.3-0.1-0.6-0.3-0.8c-0.2-0.2-0.5-0.3-0.8-0.3s-0.6,0.1-0.8,0.3
		l-0.6,0.6l1.7,1.7L28.4,46.2z"/>
	<path class="st4" d="M35.8,53c0.5-0.5,0.5-1.2,0-1.7C35.6,51.2,35.3,51,35,51s-0.6,0.1-0.8,0.3l-0.8,0.8l1.7,1.7L35.8,53z"/>
	<path class="st4" d="M32.6,49.1c0.5-0.5,0.5-1.2,0-1.7c-0.2-0.2-0.5-0.3-0.8-0.3c-0.3,0-0.6,0.1-0.8,0.3l-1,1l1.7,1.7L32.6,49.1z"
		/>
	<path class="st4" d="M38.6,57.3c0.5-0.5,0.5-1.2,0-1.7c-0.2-0.2-0.5-0.3-0.8-0.3c-0.3,0-0.6,0.1-0.8,0.3l-0.3,0.3l1.7,1.7
		L38.6,57.3z"/>
</g>
<rect x="51.6" y="19.7" transform="matrix(0.7071 -0.7071 0.7071 0.7071 -5.1658 49.1)" class="st5" width="10.1" height="22.2"/>
<ellipse class="st4" cx="61.7" cy="35.8" rx="1.6" ry="1.6"/>
<rect x="12.2" y="25.7" transform="matrix(0.7071 -0.7071 0.7071 0.7071 -14.9394 25.502)" class="st0" width="22.2" height="10.1"/>
<ellipse class="st4" cx="18.3" cy="35.8" rx="1.6" ry="1.6"/>
</svg>
