<?xml version="1.0" encoding="utf-8"?>
<!-- Generator: Adobe Illustrator 21.0.0, SVG Export Plug-In . SVG Version: 6.00 Build 0)  -->
<svg version="1.1" id="Layer_1" xmlns="http://www.w3.org/2000/svg" xmlns:xlink="http://www.w3.org/1999/xlink" x="0px" y="0px"
	 viewBox="0 0 80 80" style="enable-background:new 0 0 80 80;" xml:space="preserve">
<style type="text/css">
	.st0{fill:#E5A03E;}
	.st1{fill:#FCD669;}
</style>
<g id="Home-_x28_v2_x29_">
	<g id="Artboard-2">
		<path id="Shape" class="st0" d="M-8.5-78.1v13c0,1.1,0.7,1.4,1.5,0.7l35.5-30.7L-8.5-78.1z"/>
		<path id="Shape_1_" class="st1" d="M28.5-95.1L9.6-64.8c-0.5,0.8-1.5,1.1-2.3,0.6c-0.1-0.1-0.2-0.1-0.3-0.2l-11.5-9.7L28.5-95.1z
			 M28.5-95.1l-37,18l-12.2-6.1c-1-0.5-0.9-1.1,0.2-1.3L28.5-95.1z"/>
	</g>
</g>
<path class="st0" d="M23.5,43.6L26.3,32c1.5-7.6,8.9-12.5,16.5-11c5.5,1.1,9.9,5.4,11,11l0,0l2.7,11.6c1.5,6.2-2.4,12.4-8.6,13.9
	l0,0c-1.2,0.3-2.4-0.5-2.7-1.7c0-0.2-0.1-0.3-0.1-0.5v-4.1c0-0.2,0.1-0.4,0.3-0.5c2.4-2,3.9-5,4-8.2l0.1-5.3c0-0.5-0.2-0.9-0.6-1.1
	c-1.9-0.9-3.5-2.4-4.7-4.2c-0.3-0.5-0.9-0.6-1.4-0.3c0,0-0.1,0.1-0.1,0.1c-4.8,4.1-8.9,4.6-11,4.5c-0.5,0-1,0.4-1,0.9c0,0,0,0,0,0.1
	l0.1,3.2v0l0.1,0.1c0.2,0.3,0.3,0.5,0.5,0.8c1.3,1.6,3.9,3.6,6.2,4.1c0.8-1,2.2-1.1,3.1-0.4s1.1,2.2,0.4,3.1
	c-0.3,0.4-0.8,0.7-1.3,0.8c-0.1,0-0.3,0-0.4,0c-0.8,0-1.5-0.4-1.9-1.1c-2.1-0.4-4.6-1.9-6.1-3l0,0L31,44.7c0.5,2.4,1.8,4.5,3.7,6
	c0.2,0.1,0.3,0.3,0.3,0.5v4.1c0,1.2-1,2.3-2.3,2.3c-0.2,0-0.4,0-0.5-0.1l0,0C25.9,56.1,22.1,49.9,23.5,43.6z"/>
</svg>
