<svg xmlns="http://www.w3.org/2000/svg" width="80px" height="80px">
  <g id="Home-(v2)" fill="none" fill-rule="evenodd">
    <g id="Artboard-2">
      <path id="Shape" fill="#FCD669" d="M18 28a3 3 0 0 1 3-3h38a3 3 0 0 1 3 3v24a3 3 0 0 1-3 3H21a3 3 0 0 1-3-3V28zm6 16a1 1 0 0 0 1 1h30a1 1 0 0 0 0-2H25a1 1 0 0 0-1 1z"/>
      <path id="Shape" fill="#E5A03E" d="M42 49a1 1 0 0 1 1-1h12a1 1 0 1 1 0 2H43a1 1 0 0 1-1-1zm-18 0a1 1 0 0 1 1-1h12a1 1 0 1 1 0 2H25a1 1 0 0 1-1-1zm17-12a1 1 0 0 1 1-1h13a1 1 0 1 1 0 2H42a1 1 0 0 1-1-1zm0-5a1 1 0 0 1 1-1h13a1 1 0 1 1 0 2H42a1 1 0 0 1-1-1zm-5.84 2.56s-.76-1.8-.92-2.65c-.53-.04-1.7-.23-1.8.27h.92c-.13.1-.21.19-.3.32.35.05.57.55.74 1.23l-1.18.05c.09 0 .18.09.22.31v4.22h-1v-4.4c-.05-.09-.05-.13-.18-.18-.26 0-1.04-.05-1.17.27-.18-.4-.44-1.22-.22-1.63.08-.19.52-.46 1.44-.46.21-1.04 1.57-.95 3.53-.77 0 0-.04.09 0 .27.08.46.95 2.93.95 2.93l-1.03.22zm-2.19-1.38c-.04-.63-.65-.63-1.35-.59-.4.05-.52.14-.4.6h1.75zm2.54 1.65h.9l1.58 3.5c-.72.4-1.51.65-2 .65-.48 0-1.68-.64-1.82-.64-.17 0 1.34-3.51 1.34-3.51zm1.42 3.15L36 36.12l-.87 1.86s.55.07.87.07c.37 0 .93-.07.93-.07zM32.98 29a3.54 3.54 0 0 1-1.56 1.68c-.37.18-1.15.3-1.62.43-.54.16-1.42.4-2.06.87-.44.3-.64.74-.6 1.36.4-.4 1.24-.87 1.92-1.08-.17.56-.14 1.02-.37 1.55-.14.34-1.15 1.12-1.42 1.55-.2.28-.34.77-.24 1.2 0 0 .24-.3.44-.49.4-.4 1.25-.93 1.25-.93 0 .28-.13 1.52-.27 2.02-.13.43-.98 1.2-1.22 1.46l-.43-.75-.1-.43c-.04-.34.2-.6.16-.65l-.13-.25c-.2-.4-1.18-1.03-1.45-1.43-.1-.15-.38-.56-.2-2.45 0 0 .77.75 1.17 1.21.28.31.55.8.55.8-.1-.68.2-1.02.16-1.02 0 0-.03-.24-.16-.43-.38-.59-1.22-.9-1.36-1.61-.1-.53.17-.97 1.52-1.46.27.84.1 1.58.07 2.26.68-.5.58-1.8.91-2.26.1-.19.27-.37.75-.56.47-.15.74-.28 1.18-.34 0 .06-.24.84-.44 1.24-.24.47-.57.65-.57.68.5-.12.9-.34 1.25-.8l.4-.53c.14-.22.27-.47.57-.6.82-.27 1.66-.24 1.9-.24z"/>
    </g>
  </g>
</svg>
