<svg xmlns="http://www.w3.org/2000/svg" width="450" height="835"><path opacity=".102" fill="#525F7F" d="M208.09 45.694c-.245.737-.308.904-.85 1.75-.96 1.22-1.776 1.758-3.133 2.187-.594.12-.373.088-.974.157l-48.363 3.03c-.56.01-.43.01-.802-.01-1.356-.22-1.915-.574-2.732-1.35-.51-.614-.495-.627-.745-1.09-.313-.764-.293-.767-.4-1.316-.065-.55-.09-.585-.015-1.464.212-1.42.745-2.325 1.636-3.284.785-.693.96-.782 1.564-1.095.52-.222.524-.243 1.375-.434l.48-.05 48.33-3.11c.624-.01.548-.02 1.277.083.81.21.948.28 1.645.704.627.48.767.654 1.22 1.277.287.54.306.56.54 1.26.12.563.088.355.148.942.014.895-.027 1.1-.197 1.817zm-50.023 542.283c2.934-.1 1.85-.124 4.762.102 2.882.55 1.825.284 4.63 1.153 2.702 1.18 1.723.686 4.295 2.162 2.41 1.758 1.55 1.056 3.772 3.076l1.636 1.84c1.77 2.478 1.158 1.523 2.675 4.19 1.255 2.823.845 1.75 1.8 4.704.663 3.05.472 1.906.834 5.018.05 3.14.088 1.975-.164 5.108-.563 3.093-.298 1.96-1.16 4.976-1.157 2.907-.675 1.853-2.113 4.62-1.698 2.594-1.022 1.668-2.962 4.06-2.16 2.168-1.32 1.41-3.673 3.325l-2.062 1.34c-2.673 1.35-1.657.906-4.45 1.954-2.864.732-1.79.52-4.713.928-2.945.08-1.855.11-4.778-.138-2.886-.575-1.83-.303-4.632-1.196-2.694-1.202-1.718-.702-4.28-2.2-2.392-1.774-1.538-1.067-3.74-3.1-1.988-2.272-1.294-1.39-3.042-3.87-1.498-2.666-.992-1.648-2.218-4.467-.934-2.944-.64-1.834-1.292-4.87-.342-3.094-.27-1.94-.31-5.06.26-3.11.105-1.96.678-5.03.855-2.99.484-1.9 1.63-4.783 1.426-2.745.85-1.757 2.527-4.332 1.92-2.38 1.165-1.537 3.305-3.694 2.34-1.91 1.442-1.247 3.944-2.89 2.652-1.36 1.646-.91 4.41-1.967 2.852-.746 1.783-.53 4.688-.956z"/></svg>