<svg xmlns="http://www.w3.org/2000/svg" width="450" height="835">

  <def><clipPath id="clip"><path d="M333.854 55.623l-12.55 547.41c-.202 5.737-.808 9.39-2.112 14.403-1.557 5.236-2.73 8.11-5.35 12.93-5.075 8.63-10.99 15.076-20.202 20.683-4.31 2.446-7.252 3.76-12.477 5.31-5.4 1.41-9.496 2.037-15.97 1.942l-200.258-6.386c-2.157-.108-1.175-.044-3.335-.223-.168-.007-1.57-.127-1.736-.142-4.413-.53-6.3-1-10.08-2.16-6.386-2.175-10.483-4.537-15.28-8.274-6.82-5.67-10.682-10.88-14.176-17.66-2.572-5.373-3.692-8.994-4.768-14.11-.538-2.99-.65-3.853-.912-6.804-.175-2.97-.158-3.273-.157-5.35l.054-1.776L37.93 70.71c.533-11.972 4.6-22.79 12.328-32.687 6.66-8.147 13.688-13.155 22.19-16.75 4.98-1.94 8.343-2.893 14.114-3.576l1.606-.14L280.54 4.28c2.09-.112 1.318-.082 3.388-.132 3.272.048 4.144.13 6.57.4 4.818.715 6.536 1.195 9.81 2.228 4.764 1.72 7.228 2.99 11.08 5.493 3.35 2.292 6.776 4.876 11.82 10.976 4.46 5.74 7.253 11.264 9.19 18.664.604 2.67 1.288 5.613 1.472 11.986l-.016 1.727"/></clipPath></def>

  <path d="M333.854 55.623l-12.55 547.41c-.202 5.737-.808 9.39-2.112 14.403-1.557 5.236-2.73 8.11-5.35 12.93-5.075 8.63-10.99 15.076-20.202 20.683-4.31 2.446-7.252 3.76-12.477 5.31-5.4 1.41-9.496 2.037-15.97 1.942l-200.258-6.386c-2.157-.108-1.175-.044-3.335-.223-.168-.007-1.57-.127-1.736-.142-4.413-.53-6.3-1-10.08-2.16-6.386-2.175-10.483-4.537-15.28-8.274-6.82-5.67-10.682-10.88-14.176-17.66-2.572-5.373-3.692-8.994-4.768-14.11-.538-2.99-.65-3.853-.912-6.804-.175-2.97-.158-3.273-.157-5.35l.054-1.776L37.93 70.71c.533-11.972 4.6-22.79 12.328-32.687 6.66-8.147 13.688-13.155 22.19-16.75 4.98-1.94 8.343-2.893 14.114-3.576l1.606-.14L280.54 4.28c2.09-.112 1.318-.082 3.388-.132 3.272.048 4.144.13 6.57.4 4.818.715 6.536 1.195 9.81 2.228 4.764 1.72 7.228 2.99 11.08 5.493 3.35 2.292 6.776 4.876 11.82 10.976 4.46 5.74 7.253 11.264 9.19 18.664.604 2.67 1.288 5.613 1.472 11.986l-.016 1.727"/>

</svg>