<?xml version="1.0" encoding="UTF-8" standalone="no"?>
<svg width="16px" height="15px" viewBox="0 0 16 15" version="1.1" xmlns="http://www.w3.org/2000/svg" xmlns:xlink="http://www.w3.org/1999/xlink">
    <!-- Generator: Sketch 39.1 (31720) - http://www.bohemiancoding.com/sketch -->
    <title>Icon</title>
    <desc>Created with Sketch.</desc>
    <defs></defs>
    <g id="Home" stroke="none" stroke-width="1" fill="none" fill-rule="evenodd">
        <g id="Artboard" transform="translate(-121.000000, -675.000000)" fill="#8898AA">
            <g id="Search" transform="translate(105.000000, 664.000000)">
                <path d="M27.7969013,20.8602941 C27.7302521,20.7941176 27.7302521,20.7941176 27.6636029,20.7279412 C28.3300945,19.7352941 28.6633403,18.5441176 28.6633403,17.2867647 C28.6633403,13.8455882 25.7974265,11 22.3316702,11 C18.8659139,11 16,13.8455882 16,17.2867647 C16,20.7279412 18.8659139,23.5735294 22.3316702,23.5735294 C23.5980042,23.5735294 24.7976891,23.1764706 25.7974265,22.5808824 C25.8640756,22.6470588 25.8640756,22.6470588 25.9307248,22.7132353 L28.8410714,25.6029412 C29.1076681,25.8676471 29.4409139,26 29.7741597,26 C30.1074055,26 30.4406513,25.8676471 30.7072479,25.6029412 C31.2404412,25.0735294 31.2404412,24.2794118 30.7072479,23.75 L27.7969013,20.8602941 Z M22.25,21.3125 C20,21.3125 18.1875,19.5 18.1875,17.25 C18.1875,15 20,13.1875 22.25,13.1875 C24.5,13.1875 26.3125,15 26.3125,17.25 C26.3125,19.5 24.5,21.3125 22.25,21.3125 Z" id="Icon"></path>
            </g>
        </g>
    </g>
</svg>