<?xml version="1.0" encoding="utf-8"?>
<!-- Generator: Adobe Illustrator 21.0.0, SVG Export Plug-In . SVG Version: 6.00 Build 0)  -->
<svg version="1.1" id="Layer_1" xmlns="http://www.w3.org/2000/svg" xmlns:xlink="http://www.w3.org/1999/xlink" x="0px" y="0px"
	 viewBox="0 0 72 72" style="enable-background:new 0 0 72 72;" xml:space="preserve">
<style type="text/css">
	.st0{opacity:0.2;fill:#FA5A8E;enable-background:new    ;}
	.st1{fill:#FA5A8E;}
</style>
<title>Icon</title>
<desc>Created with Sketch.</desc>
<g id="iOS" transform="translate(117.000000, 2034.000000)">
	<g id="Icon">
		<path id="Base" class="st0" d="M-81-1962c19.9,0,36-16.1,36-36c0-19.9-16.1-36-36-36s-36,16.1-36,36
			C-117-1978.1-100.9-1962-81-1962z"/>
	</g>
</g>
<g>
	<path class="st1" d="M24.1,33.7H22c-1.3,0-2.4,1.1-2.4,2.4v10.7c0,1.3,1.1,2.4,2.4,2.4h2.1c1.3,0,2.4-1.1,2.4-2.4V36.1
		C26.4,34.8,25.4,33.7,24.1,33.7z"/>
	<path class="st1" d="M43.1,40.2H28.9c-0.3,0-0.6,0.3-0.6,0.6v5.4c0,0.3,0.3,0.6,0.6,0.6h14.2c0.3,0,0.6-0.3,0.6-0.6v-5.4
		C43.7,40.5,43.5,40.2,43.1,40.2z"/>
	<path class="st1" d="M50,33.7h-2.1c-1.3,0-2.4,1.1-2.4,2.4v10.7c0,1.3,1.1,2.4,2.4,2.4H50c1.3,0,2.4-1.1,2.4-2.4V36.1
		C52.4,34.8,51.3,33.7,50,33.7L50,33.7z"/>
	<path class="st1" d="M49.2,31.9l0.6-4.3c0.2-1.2-0.2-2.4-0.9-3.3c-0.8-0.9-1.9-1.4-3.2-1.4H26.3c-1.2,0-2.4,0.5-3.2,1.4
		c-0.8,0.9-1.1,2.1-0.9,3.3l0.6,4.3h1.3c2.3,0,4.2,1.9,4.2,4.2v2.3h15.5v-2.3c0-2.3,1.9-4.2,4.2-4.2L49.2,31.9L49.2,31.9z
		 M32.3,33.4c-0.2,0.2-0.4,0.3-0.6,0.3c-0.2,0-0.5-0.1-0.6-0.3c-0.2-0.2-0.3-0.4-0.3-0.6s0.1-0.5,0.3-0.6c0.2-0.2,0.4-0.3,0.6-0.3
		c0.2,0,0.5,0.1,0.6,0.3c0.2,0.2,0.3,0.4,0.3,0.6S32.5,33.3,32.3,33.4z M32.3,29.1c-0.2,0.2-0.4,0.3-0.6,0.3c-0.2,0-0.5-0.1-0.6-0.3
		c-0.2-0.2-0.3-0.4-0.3-0.6s0.1-0.5,0.3-0.6c0.2-0.2,0.4-0.3,0.6-0.3c0.2,0,0.5,0.1,0.6,0.3c0.2,0.2,0.3,0.4,0.3,0.6
		C32.6,28.7,32.5,28.9,32.3,29.1z M41,33.4c-0.2,0.2-0.4,0.3-0.6,0.3c-0.2,0-0.5-0.1-0.6-0.3c-0.2-0.2-0.3-0.4-0.3-0.6
		s0.1-0.5,0.3-0.6c0.2-0.2,0.4-0.3,0.6-0.3c0.2,0,0.5,0.1,0.6,0.3c0.2,0.2,0.3,0.4,0.3,0.6S41.1,33.3,41,33.4z M41,29.1
		c-0.2,0.2-0.4,0.3-0.6,0.3s-0.5-0.1-0.6-0.3c-0.2-0.2-0.3-0.4-0.3-0.6c0-0.2,0.1-0.5,0.3-0.6c0.2-0.2,0.4-0.3,0.6-0.3
		c0.2,0,0.5,0.1,0.6,0.3c0.2,0.2,0.3,0.4,0.3,0.6S41.1,28.9,41,29.1z"/>
</g>
</svg>
