<?xml version="1.0" encoding="utf-8"?>
<!-- Generator: Adobe Illustrator 21.0.0, SVG Export Plug-In . SVG Version: 6.00 Build 0)  -->
<svg version="1.1" id="Layer_1" xmlns="http://www.w3.org/2000/svg" xmlns:xlink="http://www.w3.org/1999/xlink" x="0px" y="0px"
	 viewBox="0 0 72 72" style="enable-background:new 0 0 72 72;" xml:space="preserve">
<style type="text/css">
	.st0{opacity:0.2;fill:#FA5A8E;enable-background:new    ;}
	.st1{fill:#FA5A8E;}
	.st2{fill:#ED8CB0;enable-background:new    ;}
	.st3{opacity:0.82;fill:#ED8CB0;enable-background:new    ;}
	.st4{fill:#FFFFFF;}
</style>
<title>Icon</title>
<desc>Created with Sketch.</desc>
<g id="iOS" transform="translate(117.000000, 2034.000000)">
	<g id="Icon">
		<path id="Base" class="st0" d="M-81-1962c19.9,0,36-16.1,36-36c0-19.9-16.1-36-36-36s-36,16.1-36,36
			C-117-1978.1-100.9-1962-81-1962z"/>
	</g>
</g>
<rect x="18.7" y="27.3" class="st1" width="34.7" height="15.8"/>
<path class="st2" d="M46.5,25.4c0-0.8-0.7-1.5-1.5-1.5H27c-0.8,0-1.5,0.7-1.5,1.5v3.8c0,0.8,0.7,1.5,1.5,1.5H45
	c0.8,0,1.5-0.7,1.5-1.5V25.4z"/>
<path class="st3" d="M20.9,33.1v10c0,2.3,1.9,4.4,4.2,4.6l5.6,0.4c0.9,0.1,2.1-0.5,2.5-1.2c0,0,0,0,1-1.6c0.8-1.4,2.6-1.4,3.5,0
	c1,1.6,1,1.6,1,1.6c0.4,0.7,1.6,1.3,2.5,1.2l5.6-0.4c2.3-0.2,4.2-2.2,4.2-4.6v-10L20.9,33.1L20.9,33.1z"/>
<g>
	<circle class="st1" cx="30.5" cy="27.3" r="1.1"/>
	<circle class="st1" cx="36.6" cy="27.3" r="1.1"/>
</g>
<circle class="st0" cx="42.1" cy="27.3" r="0.6"/>
<g>
	<path class="st4" d="M33.9,38.5c-0.1,0-0.3-0.1-0.4-0.2c-0.2-0.2-0.2-0.6,0-0.8l2.6-2.6c0.2-0.2,0.6-0.2,0.8,0
		c0.2,0.2,0.2,0.6,0,0.8l-2.6,2.6C34.2,38.5,34,38.5,33.9,38.5z"/>
	<path class="st4" d="M26.4,46c-0.1,0-0.3-0.1-0.4-0.2c-0.2-0.2-0.2-0.6,0-0.8l5.9-5.9c0.2-0.2,0.6-0.2,0.8,0c0.2,0.2,0.2,0.6,0,0.8
		l-5.9,5.9C26.7,46,26.5,46,26.4,46z"/>
	<path class="st4" d="M38.3,43.2c-0.1,0-0.3-0.1-0.4-0.2c-0.2-0.2-0.2-0.6,0-0.8l7.3-7.3c0.2-0.2,0.6-0.2,0.8,0
		c0.2,0.2,0.2,0.6,0,0.8l-7.3,7.3C38.6,43.2,38.5,43.2,38.3,43.2z"/>
</g>
</svg>
