<svg width="211" height="375" viewBox="0 0 211 375" xmlns="http://www.w3.org/2000/svg"><g fill="none" fill-rule="evenodd"><rect stroke="#EFF1F5" stroke-width="2" fill="#FFF" x="1" y="1" width="209" height="373" rx="5"/><path d="M0 6c0-3.32 2.7-6 6-6h199c3.3 0 6 2.68 6 6v117H0V6z" fill="#01CDED"/><path d="M118.16 51.5l-5.18 1.1v14.97l5.16-1.1c4.3-.92 7.18-4.38 7.18-9 0-4.64-2.88-6.9-7.16-5.98zm3.84 6.67c0 3-1.8 4.7-3.98 5.18l-1.86.4v-8.7l1.86-.4c2.2-.45 3.98.52 3.98 3.52zm-21.08-3l-3.16.67v14.98l3.16-.67v-9.5l6.16 8.18 3.16-.67V53.18l-3.16.67v9.5l-6.16-8.18zM82.68 66.54c0 4.63 2.88 6.9 7.16 5.97l5.18-1.1V56.44l-5.16 1.1c-4.3.92-7.18 4.38-7.18 9zm7.3-5.9l1.86-.4v8.7l-1.86.4c-2.2.46-3.98-.5-3.98-3.5s1.8-4.72 3.98-5.2zm45.84-3.8c0 2-1.06 3.2-2.7 3.56-1.66.35-2.7-.42-2.7-2.4v-9.13l-3.2.68v9.27c0 3.92 2.63 5.43 5.9 4.73.97-.2 1.9-.6 2.7-1.14v3.36c0 2-1.3 3.9-3.46 4.37L69 83.66V87l64.27-13.72c3.58-.77 5.73-3.92 5.73-7.25v-19l-3.18.68v9.14zM72.18 67.16c0-2 1.06-3.2 2.7-3.56 1.66-.35 2.7.42 2.7 2.4v9.13l3.2-.68v-9.27c0-3.92-2.63-5.43-5.9-4.73-.97.2-1.9.6-2.7 1.14v-3.36c0-2 1.3-3.9 3.46-4.37L139 40.34V37L74.73 50.72c-3.58.77-5.73 3.92-5.73 7.25v19l3.18-.68v-9.14zM12 12.75c0-.4.34-.75.74-.75h13.52c.4 0 .74.33.74.75 0 .4-.34.75-.74.75H12.74c-.4 0-.74-.33-.74-.75zm0 4c0-.4.34-.75.74-.75h13.52c.4 0 .74.33.74.75 0 .4-.34.75-.74.75H12.74c-.4 0-.74-.33-.74-.75zm0 4c0-.4.34-.75.74-.75h13.52c.4 0 .74.33.74.75 0 .4-.34.75-.74.75H12.74c-.4 0-.74-.33-.74-.75z" fill="#FFF"/><path d="M192.5 25.1h.04c.75-.07 1.47-.82 1.47-1.57h4.48c0-.8.26-2.1-1.58-2.9v-4.72c0-1.54-1.54-3.36-4.36-3.4h-.11c-2.82.04-4.36 1.86-4.36 3.4v4.74c-1.84.8-1.58 2.1-1.58 2.9h4.47c0 .74.72 1.5 1.47 1.56h.05z" stroke="#FFF" stroke-width="1.5"/><g transform="translate(16 144)"><circle fill="#8CC63F" cx="12" cy="12" r="12"/><path d="M15 14.62v-1l-5.5 1.26v1l5.5-1.26zm0 1V17c0 1.1-.9 2-2 2h-1.5c-1.1 0-2-.9-2-2v-.12l5.5-1.26zm0-3v-.12c0-1.75-1.5-2.5-1.5-3.5S15 8 15 7s-.75-1.5-.75-1.5H8.5c-.56 0-1 .45-1 1v.25c0 .5.75.75 1.5.75S7.5 10 8.25 10s1.25-2.25 2-2.25 1 .5 1 1.25-1.75 2-1.75 3v1.88l5.5-1.26z" fill="#FFF"/></g><g transform="translate(16 190)"><circle fill="#43D1B9" cx="12" cy="12" r="12"/><path d="M13.62 14.82V11.9c1.2-.64 2.04-1.92 2.04-3.4 0-1.46-.83-2.73-2.04-3.38v3.65l-1.8 1.02-1.52-1.03V5C8.95 5.6 8 6.94 8 8.5c0 1.48.83 2.76 2.04 3.4v3.57l3.58-.65zm0 .77V17c0 1.66-1.35 3-3 3h2.42c-1.65 0-3-1.34-3-3v-.76l3.58-.65zm-1.8 3.38c.43 0 .78-.34.78-.77 0-.4-.35-.75-.77-.75-.42 0-.77.34-.77.76 0 .44.35.78.77.78z" fill="#FFF"/></g><g transform="translate(16 236)"><circle fill="#FF5B5C" cx="12" cy="12" r="12"/><path d="M11 12.04V4c0-.5.25-1 .75-1s.75.5.75 1v7.7l-1.5.34zm0 .82V13s-.25 1.25-1.5 2-2 1.25-2 2 8.5.75 8.5 0-1.25-1.5-2-2.25-1.5-1.25-1.5-1.75v-.36l-1.5.22zm-4 5.9c0-.42.34-.76.75-.76h8c.42 0 .75.33.75.75 0 .4-.34.75-.75.75h-8c-.42 0-.75-.33-.75-.75z" fill="#FFF"/></g><g transform="translate(16 282)"><circle fill="#FFB600" cx="12" cy="12" r="12"/><path d="M10.07 17.4l-.02-.97 3.9-1-.08.98-3.8 1zm.14 1l.05.1c.5 1.25 2.75 1.25 3.25 0 .1-.25.18-.6.24-1.03l-3.53.92zm-.15-3c0-1-.04-1.87-.3-2.06C8.7 12.6 8 11.26 8 9.74 8 7.4 9.68 5.5 11.75 5.5c2.07 0 3.75 1.9 3.75 4.25 0 1.25-.48 2.37-1.23 3.15-.1.1-.17.7-.24 1.46l-3.98 1.04z" fill="#FFF"/></g><g transform="translate(16 328)"><circle fill="#993192" cx="12" cy="12" r="12"/><path d="M8 11.3V5h4.25c1.25 3 3.25 1.5 3.25 1.5v2.87L8 11.3zm0 1v.45s2.25 1.75 7.5-1.25v-.85L8 12.3zm2.5 1.7l2.5-.5v4.76c0 .68-.55 1.24-1.25 1.24s-1.25-.57-1.25-1.25V14z" fill="#FFF"/></g><path fill="#8CC63F" d="M1 142h3v28H1z"/><path fill="#43D1B9" d="M1 188h3v28H1z"/><path fill="#FF5B5C" d="M1 234h3v28H1z"/><path fill="#FFB600" d="M1 280h3v28H1z"/><path fill="#993192" d="M1 326h3v28H1z"/><rect fill="#E3E7ED" x="52" y="148" width="86" height="5" rx="1"/><rect fill="#F5F6F8" x="52" y="159" width="60" height="5" rx="1"/><rect fill="#E3E7ED" x="52" y="194" width="100" height="5" rx="1"/><rect fill="#F5F6F8" x="52" y="205" width="70" height="5" rx="1"/><rect fill="#E3E7ED" x="52" y="240" width="70" height="5" rx="1"/><rect fill="#F5F6F8" x="52" y="251" width="55" height="5" rx="1"/><rect fill="#E3E7ED" x="52" y="286" width="78" height="5" rx="1"/><rect fill="#F5F6F8" x="52" y="297" width="60" height="5" rx="1"/><rect fill="#E3E7ED" x="52" y="332" width="86" height="5" rx="1"/><rect fill="#F5F6F8" x="52" y="343" width="60" height="5" rx="1"/></g></svg>