<svg xmlns="http://www.w3.org/2000/svg" width="1000" height="750">

  <defs><clipPath id='clip'>
    <path d="M984.246 476.906l-.248.632c-.196.216-1.245 1.38-1.453 1.577-2.228 1.77-1.336 1.128-3.915 2.817-4.15 1.744-2.85 1.332-7.556 2.592-5.47 1.034-8.904 1.758-21.402 1.987l-666.207 10.497c-23.433.317-32.06-1.42-34.892-1.845-1.38-.217-158.767-25.03-159.596-25.176-4.666-1.066-3.043-.61-7.082-1.916-3.537-1.684-2.564-1.125-4.762-2.722-1.87-1.645-1.27-1.036-2.624-2.67-.097-.173-.2-.488-.277-.696l-.123-6.03.145-.753c.126-.19.415-.64.544-.8.33-.217.497-.413 1.11-.605a56.087 56.087 0 0 1-2.337-1.754c-8.942-7.933-12.77-15.964-14.25-26.283L16.98 43.173l-.166-2.167c-.037-5.404.482-9.44 3.668-15.453 1.71-2.734 1.773-2.887 3.797-5.29 3.505-3.622 5.46-4.726 7.93-6.155 7.537-3.724 12.842-3.657 16.27-3.668l547.906 14.258c9.906.555 17.304 4.037 24.534 10.314 7.402 7.038 10.556 13.498 12.303 21.54l67.26 362.53c1.232 7.947.73 14.34-3.415 21.868-1.262 1.948-.77 1.244-2.16 3.087a27.855 27.855 0 0 1-1.474 1.69c10.947.116 22.697.436 31.183 1.068l249.518 19.853c2.73.23 5.564.457 8.168 1.07.52.18.162.012 1.394.767l.538.776c.052.19.16.757.202.965l-.19 6.682z"/>
  </clipPath></defs>

  <path d="M984.246 476.906l-.248.632c-.196.216-1.245 1.38-1.453 1.577-2.228 1.77-1.336 1.128-3.915 2.817-4.15 1.744-2.85 1.332-7.556 2.592-5.47 1.034-8.904 1.758-21.402 1.987l-666.207 10.497c-23.433.317-32.06-1.42-34.892-1.845-1.38-.217-158.767-25.03-159.596-25.176-4.666-1.066-3.043-.61-7.082-1.916-3.537-1.684-2.564-1.125-4.762-2.722-1.87-1.645-1.27-1.036-2.624-2.67-.097-.173-.2-.488-.277-.696l-.123-6.03.145-.753c.126-.19.415-.64.544-.8.33-.217.497-.413 1.11-.605a56.087 56.087 0 0 1-2.337-1.754c-8.942-7.933-12.77-15.964-14.25-26.283L16.98 43.173l-.166-2.167c-.037-5.404.482-9.44 3.668-15.453 1.71-2.734 1.773-2.887 3.797-5.29 3.505-3.622 5.46-4.726 7.93-6.155 7.537-3.724 12.842-3.657 16.27-3.668l547.906 14.258c9.906.555 17.304 4.037 24.534 10.314 7.402 7.038 10.556 13.498 12.303 21.54l67.26 362.53c1.232 7.947.73 14.34-3.415 21.868-1.262 1.948-.77 1.244-2.16 3.087a27.855 27.855 0 0 1-1.474 1.69c10.947.116 22.697.436 31.183 1.068l249.518 19.853c2.73.23 5.564.457 8.168 1.07.52.18.162.012 1.394.767l.538.776c.052.19.16.757.202.965l-.19 6.682z"/>

</svg>