<svg xmlns="http://www.w3.org/2000/svg" width="1000" height="750"><path opacity=".102" fill="#525F7F" d="M853.646 457.492c-1.41.422 22.098-.086-663.47 8.82-4.442.057-11.368.11-16.063-.294-.34-.034-81.92-11.443-82.2-11.607l-.016-.024.015-.024.036-.024c2.365-.78 29.52-.64 381.687-4.806 251.31-2.97 241.197-3.016 249.574-2.6 1.287.065 130.095 10.247 130.49 10.49v.036l-.055.036zm-519.3-421.466c-.755.54-1.005.632-2.007.696-.84-.095-1.467-.157-2.683-1.203-.656-.776-.838-1.045-1.08-2.08-.035-.665-.044-.43.036-1.09.224-.67.21-.71.776-1.333.515-.373.316-.257.905-.53.65-.16.403-.122 1.094-.166 1.15.13 1.45.31 2.217.806.57.49.374.295.863.863.506.815.503.89.682 1.615.035.663.043.428-.036 1.087-.217.65-.204.697-.77 1.334zM582.03 462.07c77.74-1.014 75.58-1.108 83.93-.78 2.716.12 94.068 8.39 94.726 8.73l.026.03-.005.03c-.79.597-1.192.295-259.472 3.94-15.572.213-12.358.103-92.072-8.977-.32-.036-1.668-.157-1.936-.31l-.022-.03.015-.027c1.127-.733 23.03-.616 174.81-2.606z"/></svg>