<?xml version="1.0" encoding="UTF-8" standalone="no"?>
<svg width="62px" height="26px" viewBox="0 0 62 26" version="1.1" xmlns="http://www.w3.org/2000/svg" xmlns:xlink="http://www.w3.org/1999/xlink" xmlns:sketch="http://www.bohemiancoding.com/sketch/ns">
    <!-- Generator: Sketch 3.3 (11970) - http://www.bohemiancoding.com/sketch -->
    <title>Logo</title>
    <desc>Created with Sketch.</desc>
    <defs></defs>
    <g id="Page-1" stroke="none" stroke-width="1" fill="none" fill-rule="evenodd" sketch:type="MSPage">
        <g id="Artboard" sketch:type="MSArtboardGroup" transform="translate(-40.000000, -117.000000)" fill="#D8DEE3">
            <g id="Bookend" sketch:type="MSLayerGroup" transform="translate(21.000000, 80.000000)">
                <path d="M80.7,50.65 C80.7,48.45 80.2,46.35 79.3,45.15 C78.3,43.85 76.9,43.25 75,43.25 C71.2,43.25 68.8,46.05 68.8,50.55 C68.8,53.05 69.4,54.95 70.7,56.15 C71.8,57.25 73.4,57.75 75.5,57.75 C77.4,57.75 79.2,57.35 80.3,56.55 L79.8,53.55 C78.7,54.15 77.4,54.45 76,54.45 C75.1,54.45 74.5,54.25 74.1,53.85 C73.6,53.45 73.4,53.15 73.3,52.25 L80.7,52.25 L80.7,50.65 Z M73.2,49.45 C73.3,47.45 73.9,46.25 74.9,46.25 C75.9,46.25 76.4,47.55 76.5,49.45 L73.2,49.45 Z M63,43.15 C61.7,43.15 60.8,43.65 59.8,44.85 L59.6,43.45 L55.6,43.45 L55.6,62.55 L60.1,61.65 L60.1,57.35 C60.8,57.55 61.5,57.65 62.1,57.65 C63.2,57.65 64.6,57.35 65.8,55.95 C67,54.65 67.6,52.65 67.6,49.95 C67.6,47.55 67.2,45.75 66.3,44.65 C65.5,43.65 64.4,43.15 63,43.15 Z M62.8,53.35 C62.4,54.05 61.9,54.45 61.2,54.45 C60.8,54.45 60.4,54.35 60,54.15 L60,47.35 C60.8,46.55 61.4,46.45 61.7,46.45 C62.8,46.45 63.1,47.75 63.1,50.15 C63.2,51.55 63.2,52.65 62.8,53.35 Z M51.4,37.45 C50.1,37.45 49,38.45 49,39.85 C49,41.15 50,42.25 51.4,42.25 C52.7,42.25 53.7,41.15 53.7,39.85 C53.7,38.45 52.6,37.45 51.4,37.45 Z M49.1,57.45 L53.6,57.45 L53.6,43.45 L49.1,43.45 L49.1,57.45 Z M44.3,45.05 L44,43.35 L40.1,43.35 L40.1,57.35 L44.6,57.35 L44.6,48.25 C45.2,47.55 45.7,47.35 46.8,47.35 C47,47.35 47.3,47.35 47.6,47.45 L47.6,43.35 C47.3,43.25 47,43.25 46.8,43.25 C45.5,43.25 44.7,43.95 44.3,45.05 Z M38.3,46.45 L38.8,43.45 L36,43.45 L36,39.45 L32.4,40.35 L31.6,43.45 L30.4,43.65 L29.9,46.45 L31.6,46.45 L31.6,53.25 C31.6,54.95 32,56.15 32.9,56.85 C33.6,57.45 34.7,57.75 36.2,57.75 C37.4,57.75 38.1,57.55 38.5,57.45 L38.5,53.95 C38.2,54.05 37.6,54.15 37.2,54.15 C36.3,54.15 35.9,53.75 35.9,52.65 L35.9,46.45 L38.3,46.45 Z M25.6,48.75 C24.3,48.25 23.6,47.85 23.6,47.25 C23.6,46.75 24,46.35 24.8,46.35 C26.1,46.35 27.3,46.95 28.3,47.45 L28.8,44.15 C28,43.75 26.7,43.15 24.5,43.15 C23,43.15 21.7,43.55 20.8,44.25 C19.9,45.05 19.4,46.15 19.4,47.45 C19.4,49.85 20.9,50.95 23.3,51.85 C24.9,52.45 25.4,52.85 25.4,53.45 C25.4,54.05 24.9,54.45 24,54.45 C22.9,54.45 21,53.85 19.8,53.15 L19.3,56.55 C20.3,57.15 22.3,57.75 24.3,57.75 C25.9,57.75 27.2,57.35 28.1,56.65 C29.1,55.85 29.6,54.65 29.6,53.15 C29.6,50.65 28.1,49.55 25.6,48.75 Z" id="Logo" sketch:type="MSShapeGroup"></path>
            </g>
        </g>
    </g>
</svg>