<?xml version="1.0" encoding="UTF-8" standalone="no"?>
<svg width="26px" height="25px" viewBox="0 0 26 25" version="1.1" xmlns="http://www.w3.org/2000/svg" xmlns:xlink="http://www.w3.org/1999/xlink" xmlns:sketch="http://www.bohemiancoding.com/sketch/ns">
    <!-- Generator: Sketch 3.3.2 (12043) - http://www.bohemiancoding.com/sketch -->
    <title>search-icon</title>
    <desc>Created with Sketch.</desc>
    <defs></defs>
    <g id="Page-1" stroke="none" stroke-width="1" fill="none" fill-rule="evenodd" sketch:type="MSPage">
        <g id="Artboard" sketch:type="MSArtboardGroup" transform="translate(-498.000000, -430.000000)" fill="#C8CCD0">
            <g id="Team" sketch:type="MSLayerGroup" transform="translate(-35.000000, 80.000000)">
                <g id="Employees-(Search)" transform="translate(0.000000, 174.000000)" sketch:type="MSShapeGroup">
                    <g id="Search-Field" transform="translate(529.500000, 171.000000)">
                        <path d="M19,22.8822483 L19,24.2689746 L19,24.2689746 C19.5979142,24.6150337 20,25.2601465 20,25.9973917 L20,31.0026083 C20,32.1057373 19.1061002,33 17.9951185,33 L17.0048815,33 C15.897616,33 15,32.1041422 15,31.0026083 L15,25.9973917 C15,25.2583994 15.4011586,24.6131407 16,24.2676705 L16,22.8822483 C11.4660215,22.1630746 8,18.2363037 8,13.5 C8,8.25329488 12.2532949,4 17.5,4 C22.7467051,4 27,8.25329488 27,13.5 C27,18.2363037 23.5339785,22.1630746 19,22.8822483 L19,22.8822483 Z M17.5,21 C21.6421356,21 25,17.6421356 25,13.5 C25,9.35786438 21.6421356,6 17.5,6 C13.3578644,6 10,9.35786438 10,13.5 C10,17.6421356 13.3578644,21 17.5,21 Z" id="search-icon" transform="translate(17.500000, 18.500000) rotate(-45.000000) translate(-17.500000, -18.500000) "></path>
                    </g>
                </g>
            </g>
        </g>
    </g>
</svg>