<?xml version="1.0" encoding="utf-8"?>
<!-- Generator: Adobe Illustrator 21.0.0, SVG Export Plug-In . SVG Version: 6.00 Build 0)  -->
<svg version="1.1" id="Layer_1" xmlns="http://www.w3.org/2000/svg" xmlns:xlink="http://www.w3.org/1999/xlink" x="0px" y="0px"
	 viewBox="0 0 85.8 82.1" style="enable-background:new 0 0 85.8 82.1;" xml:space="preserve">
<style type="text/css">
	.st0{fill:#413F63;}
</style>
<path class="st0" d="M1.2,44c0-1.5,0-3,0-4.6c0.1-1,0.1-2,0.2-3c0.1-1.9,0.5-3.8,1-5.6c1.4-5,3.6-9.5,6.7-13.5
	c3.3-4.3,7.4-7.8,12.2-10.5c4.1-2.3,8.4-3.9,13-4.8c1.7-0.3,3.3-0.5,5-0.5c1.8-0.1,3.7,0,5.5-0.1c6.9-0.1,13.4,1.7,19.4,5
	c2.7,1.5,5.2,3.2,7.5,5.3c2.8,2.5,5.3,5.4,7.3,8.6c0.2,0.3,0.5,0.7,0.2,0.9c-0.3,0.3-0.6-0.2-0.8-0.4c-1-1.3-2.2-2.5-3.4-3.6
	c-2.4-2.3-5.2-4.1-8.3-5.5c-2.2-1-4.5-1.7-6.9-2.2c-2.3-0.5-4.7-0.7-7.1-0.6c-5.4,0.3-10.4,1.8-15,4.7c-5.3,3.3-9.2,7.9-11.8,13.5
	c-1.3,2.8-2.1,5.8-2.5,8.9c-0.3,2.3-0.4,4.7-0.5,7c-0.1,3.2,0.6,6.3,1.9,9.2c0.7,1.6,1.7,3,2.8,4.4c2.7,3.2,6.2,5.2,10.3,6.1
	c2.2,0.5,4.4,0.5,6.6,0.3c2.3-0.2,4.5-0.8,6.6-1.8c3.5-1.6,6.1-4.2,8-7.5c1.4-2.5,2.3-5.2,2.7-8.1c0.5-3.8,0.2-7.5-1.1-11.1
	c-1.7-4.8-4.7-8.5-9.2-11c-2.5-1.4-5.3-2.1-8.2-2.4c-2.9-0.2-5.8,0.2-8.5,1.2c-0.2,0.1-0.4,0.1-0.5,0.1c-0.3,0-0.4-0.2-0.3-0.5
	c0.1-0.2,0.3-0.4,0.5-0.6c3.9-3.6,8.4-6.2,13.6-7.4c1.8-0.4,3.6-0.6,5.5-0.7c3.4-0.2,6.7,0.3,10,1.2c3.3,1,6.2,2.5,9,4.5
	c3.2,2.4,5.8,5.3,7.8,8.7c1.6,2.7,2.8,5.7,3.4,8.8c0.2,1.2,0.3,2.5,0.2,3.7c0,1.2,0,2.4,0,3.5c0.1,6.5-1.7,12.4-4.9,18
	c-2,3.7-4.7,6.9-7.7,9.8c-3.1,2.9-6.7,5.1-10.6,6.8c-2.5,1.1-5.1,2-7.8,2.6c-2.3,0.5-4.7,0.8-7.1,0.8c-1.4,0-2.8,0-4.3,0.1
	c-4.6,0-9-0.6-13.4-2.1c-4.9-1.7-9.3-4.1-13.2-7.5c-3.9-3.3-7.1-7.2-9.5-11.7c-1.8-3.5-3.1-7.2-3.9-11c-0.3-1.5-0.3-2.9-0.4-4.4
	C1.3,44.7,1.4,44.4,1.2,44z"/>
</svg>
