<?xml version="1.0" encoding="iso-8859-1"?>
<!-- Generator: Adobe Illustrator 19.0.0, SVG Export Plug-In . SVG Version: 6.00 Build 0)  -->
<svg version="1.1" id="Layer_1" xmlns="http://www.w3.org/2000/svg" xmlns:xlink="http://www.w3.org/1999/xlink" x="0px" y="0px"
	 viewBox="0 0 512.029 512.029" style="enable-background:new 0 0 512.029 512.029;" xml:space="preserve">
<polygon style="fill:#C1C1C1;" points="271.682,0 256.014,0 245.561,56.241 271.682,56.241 "/>
<rect x="240.348" style="fill:#DFDFDF;" width="15.668" height="56.241"/>
<polygon style="fill:#9B9B9B;" points="349.39,406.967 256.014,406.967 245.561,422.635 256.014,438.303 349.39,438.303 "/>
<rect x="162.636" y="406.966" style="fill:#C1C1C1;" width="93.38" height="31.336"/>
<rect x="245.561" y="56.241" style="fill:#F7C02D;" width="207.076" height="307.987"/>
<rect x="59.388" y="56.241" style="fill:#FBE27B;" width="196.631" height="307.987"/>
<rect x="278.46" y="420.858" transform="matrix(-0.2059 -0.9786 0.9786 -0.2059 -2.3125 871.1751)" style="fill:#C1C1C1;" width="147.72" height="31.336"/>
<rect x="144.035" y="362.66" transform="matrix(-0.9786 -0.2059 0.2059 -0.9786 226.108 896.569)" style="fill:#DFDFDF;" width="31.336" height="147.72"/>
<polygon style="fill:#C1C1C1;" points="271.682,511.815 271.682,364.225 245.561,364.225 256.014,511.815 "/>
<polygon style="fill:#F39624;" points="490.141,40.573 256.014,40.573 245.561,56.241 256.014,71.909 490.141,71.909 "/>
<rect x="240.348" y="364.224" style="fill:#DFDFDF;" width="15.668" height="147.591"/>
<polygon style="fill:#F39624;" points="490.141,379.893 490.141,348.558 256.014,348.558 245.561,364.225 256.014,379.893 "/>
<g>
	<rect x="21.888" y="348.557" style="fill:#F7C02D;" width="234.129" height="31.336"/>
	<rect x="21.888" y="40.573" style="fill:#F7C02D;" width="234.129" height="31.336"/>
</g>
<polygon style="fill:#D9000C;" points="256.014,128.575 235.107,180.333 256.014,232.092 306.691,253 357.368,232.092 
	357.368,128.575 "/>
<g>
	<rect x="256.016" y="232.092" style="fill:#E43138;" width="101.35" height="59.799"/>
	<polygon style="fill:#E43138;" points="256.014,128.575 205.338,128.575 184.431,180.333 205.338,232.092 256.014,232.092 	"/>
</g>
<rect x="154.666" y="128.57" style="fill:#F25F67;" width="50.68" height="103.522"/>
<g>
</g>
<g>
</g>
<g>
</g>
<g>
</g>
<g>
</g>
<g>
</g>
<g>
</g>
<g>
</g>
<g>
</g>
<g>
</g>
<g>
</g>
<g>
</g>
<g>
</g>
<g>
</g>
<g>
</g>
</svg>
